<?xml version="1.0" encoding="UTF-8"?>
<svg version="1.1" xmlns="http://www.w3.org/2000/svg" width="512" height="512">
<path d="M0 0 C25.00685881 -1.13770453 49.45556916 4.1710046 71.88378906 15.11669922 C72.85276123 15.5868042 72.85276123 15.5868042 73.84130859 16.06640625 C87.03594143 22.55648947 98.20363062 31.00723627 108.88378906 41.11669922 C109.8415625 41.99841797 110.79933594 42.88013672 111.78613281 43.78857422 C130.80653965 61.68868525 142.80034838 85.92912025 148.88378906 111.11669922 C150.12128906 110.95169922 151.35878906 110.78669922 152.63378906 110.61669922 C176.0921676 108.09153835 199.84895207 113.78573963 218.54785156 128.41894531 C235.93213413 142.76412775 248.94558004 162.47590312 251.88378906 185.11669922 C253.07670057 199.78105359 252.82613551 214.16469825 247.88378906 228.11669922 C247.5215625 229.17501953 247.15933594 230.23333984 246.78613281 231.32373047 C242.28193433 243.21786814 234.7410882 253.11103661 225.88378906 262.11669922 C225.12453125 262.88884766 224.36527344 263.66099609 223.58300781 264.45654297 C205.34063724 281.92264245 182.25594302 287.52310915 157.69628906 287.24169922 C156.15658138 287.23164319 154.6168673 287.22252201 153.07714844 287.21435547 C149.34589319 287.1925639 145.61488352 287.15818064 141.88378906 287.11669922 C141.90473633 288.40769531 141.92568359 289.69869141 141.94726562 291.02880859 C142.01997552 295.84444981 142.06570131 300.66004302 142.10351562 305.47607422 C142.12356066 307.55558447 142.15080419 309.63503885 142.18554688 311.71435547 C142.23437854 314.71319409 142.25682934 317.71128384 142.27441406 320.71044922 C142.2950592 321.63160522 142.31570435 322.55276123 142.3369751 323.50183105 C142.33925362 330.14083412 141.12810976 335.69852922 136.43609619 340.64196777 C132.46930536 344.09109341 128.94825122 346.3377277 123.66601562 346.43554688 C122.43519257 346.46535141 122.43519257 346.46535141 121.17950439 346.49575806 C120.30332458 346.50730927 119.42714478 346.51886047 118.52441406 346.53076172 C117.16784698 346.55981094 117.16784698 346.55981094 115.78387451 346.58944702 C112.90060807 346.64913753 110.01730149 346.69558608 107.13378906 346.74169922 C105.17674058 346.77988869 103.21970873 346.81894099 101.26269531 346.85888672 C96.46986195 346.95483047 91.67694991 347.03890049 86.88378906 347.11669922 C87.79902344 347.91333984 88.71425781 348.70998047 89.65722656 349.53076172 C90.8582932 350.6004617 92.05878393 351.67080856 93.25878906 352.74169922 C93.86207031 353.26376953 94.46535156 353.78583984 95.08691406 354.32373047 C99.38365629 358.19079848 101.48607816 361.35084739 102.11083984 367.26660156 C102.10036621 367.90549316 102.08989258 368.54438477 102.07910156 369.20263672 C102.07265625 369.90517578 102.06621094 370.60771484 102.05957031 371.33154297 C102.0428125 372.04439453 102.02605469 372.75724609 102.00878906 373.49169922 C101.99525391 374.59578125 101.99525391 374.59578125 101.98144531 375.72216797 C101.95809051 377.52048802 101.92222742 379.31863833 101.88378906 381.11669922 C102.81191406 381.41189453 103.74003906 381.70708984 104.69628906 382.01123047 C112.19124193 384.61058299 117.64507703 389.61163673 121.14941406 396.66357422 C124.71298517 405.54740643 125.04478472 413.57105325 121.98535156 422.66357422 C118.64023947 430.11297278 113.30590051 435.7196559 105.88378906 439.11669922 C96.95441049 442.4829332 87.57353234 441.95000826 78.88378906 438.11669922 C70.72019546 433.32756402 66.83126629 427.30997183 63.57128906 418.61669922 C61.85815607 409.89529491 62.74597888 401.77883747 67.10253906 393.91748047 C71.08103364 388.1155092 76.6978129 383.11167808 83.66113281 381.45654297 C84.39460938 381.34439453 85.12808594 381.23224609 85.88378906 381.11669922 C86.31884156 372.85994594 86.31884156 372.85994594 82.97753906 365.56591797 C80.37724189 363.249514 77.69243311 361.17511485 74.88378906 359.11669922 C72.8978137 357.50002747 70.91849636 355.87513855 68.94628906 354.24169922 C68.05039062 353.52240234 67.15449219 352.80310547 66.23144531 352.06201172 C63.88378906 350.11669922 63.88378906 350.11669922 62.58537292 348.5221405 C60.16715199 346.52478521 58.42068729 346.71865174 55.31079102 346.68432617 C53.59935661 346.65463493 53.59935661 346.65463493 51.85334778 346.62434387 C50.62202621 346.61795395 49.39070465 346.61156403 48.12207031 346.60498047 C46.86114059 346.58702927 45.60021088 346.56907806 44.30107117 346.55058289 C40.95223393 346.50554498 37.60376487 346.47327181 34.25476074 346.44714355 C30.83604715 346.41734157 27.41756119 346.37097163 23.99902344 346.32568359 C17.29392657 346.23807522 10.58938155 346.17814067 3.88378906 346.11669922 C3.88378906 361.29669922 3.88378906 376.47669922 3.88378906 392.11669922 C5.86378906 392.44669922 7.84378906 392.77669922 9.88378906 393.11669922 C17.15419996 396.6395809 22.87754201 401.07034186 26.88378906 408.11669922 C27.295 408.83212891 27.70621094 409.54755859 28.12988281 410.28466797 C32.47871043 419.26823228 32.35224821 430.55067987 29.44628906 439.99169922 C25.22719276 449.76765407 18.15921983 455.63227189 8.68066406 460.05810547 C-0.59710085 463.56966174 -10.02432831 462.81027654 -19.11621094 459.11669922 C-27.43634092 455.21663829 -34.0013428 448.51859115 -37.61621094 440.05419922 C-40.59080732 430.59923215 -40.7268269 419.30065329 -36.36230469 410.28466797 C-35.74548828 409.21152344 -35.74548828 409.21152344 -35.11621094 408.11669922 C-34.7153125 407.41158203 -34.31441406 406.70646484 -33.90136719 405.97998047 C-30.00427218 400.0496185 -24.45524667 396.18828254 -18.11621094 393.11669922 C-16.13621094 392.78669922 -14.15621094 392.45669922 -12.11621094 392.11669922 C-12.11621094 376.93669922 -12.11621094 361.75669922 -12.11621094 346.11669922 C-19.33924274 346.01598898 -26.5488637 345.92662718 -33.770401 345.93824005 C-37.13457446 345.94064355 -40.49391786 345.91825754 -43.85791016 345.85961914 C-60.42088728 344.78287943 -60.42088728 344.78287943 -75.10174561 350.88468933 C-77.31082667 353.1393588 -79.19496397 355.61577485 -81.11621094 358.11669922 C-83.10598613 359.93970817 -85.17789002 361.57173485 -87.30371094 363.24169922 C-90.30040814 365.57660566 -90.30040814 365.57660566 -93.11621094 368.11669922 C-93.35102787 370.29962696 -93.52984416 372.48873096 -93.67871094 374.67919922 C-93.7625 375.87673828 -93.84628906 377.07427734 -93.93261719 378.30810547 C-93.99320313 379.23494141 -94.05378906 380.16177734 -94.11621094 381.11669922 C-93.38273438 381.22884766 -92.64925781 381.34099609 -91.89355469 381.45654297 C-84.93023478 383.11167808 -79.31345552 388.1155092 -75.33496094 393.91748047 C-70.71190665 402.25972267 -69.90236092 410.95474386 -72.17871094 420.11669922 C-74.63141168 427.45198562 -78.90977773 433.14020578 -85.61621094 437.05419922 C-95.08457931 441.69242021 -103.70591789 442.49421596 -113.69824219 439.14794922 C-121.90286884 435.64872234 -127.58601198 429.35704568 -130.92871094 421.11279297 C-133.65314514 411.7475504 -132.4922752 402.76525225 -128.11621094 394.11669922 C-124.07306787 387.95771444 -118.8851719 383.98420203 -112.11621094 381.11669922 C-111.45621094 381.11669922 -110.79621094 381.11669922 -110.11621094 381.11669922 C-110.15101563 380.04291016 -110.18582031 378.96912109 -110.22167969 377.86279297 C-110.24984012 376.42661083 -110.27713784 374.9904116 -110.30371094 373.55419922 C-110.32884766 372.84972656 -110.35398438 372.14525391 -110.37988281 371.41943359 C-110.39438477 370.37045898 -110.39438477 370.37045898 -110.40917969 369.30029297 C-110.43274536 368.34981079 -110.43274536 368.34981079 -110.45678711 367.38012695 C-109.41257363 360.44041143 -106.07211257 356.55926916 -100.92871094 352.17919922 C-100.36990234 351.68613281 -99.81109375 351.19306641 -99.23535156 350.68505859 C-97.87183228 349.48469547 -96.49532991 348.29910665 -95.11621094 347.11669922 C-96.31632813 347.11259033 -97.51644531 347.10848145 -98.75292969 347.10424805 C-103.23366408 347.08236769 -107.71353143 347.02798626 -112.19384766 346.96411133 C-114.12768197 346.94100871 -116.06164073 346.92655388 -117.99560547 346.92114258 C-120.78658911 346.91179616 -123.57563635 346.87068304 -126.36621094 346.82373047 C-127.22174561 346.82766312 -128.07728027 346.83159576 -128.95874023 346.83564758 C-135.17360469 346.68681528 -139.26168107 345.0053754 -144.11621094 341.11669922 C-150.05274206 334.86771909 -150.40235029 329.24478092 -150.31152344 321.00341797 C-150.30869354 320.03386673 -150.30586365 319.06431549 -150.302948 318.06538391 C-150.29178085 314.97819516 -150.26668246 311.89129983 -150.24121094 308.80419922 C-150.23117667 306.70719821 -150.2220516 304.61019264 -150.21386719 302.51318359 C-150.19185282 297.38090962 -150.15734665 292.24885412 -150.11621094 287.11669922 C-150.78450928 287.13764648 -151.45280762 287.15859375 -152.14135742 287.18017578 C-181.04296803 287.96364571 -204.52299622 282.12756638 -227.11621094 263.11669922 C-228.63214844 261.97201172 -228.63214844 261.97201172 -230.17871094 260.80419922 C-246.87061872 245.53287934 -258.78783908 222.47501092 -260.34375 199.80078125 C-261.58969502 170.77182953 -256.23515012 146.02517894 -236.55371094 123.80419922 C-235.08040943 122.23616767 -233.60176694 120.67312578 -232.11621094 119.11669922 C-231.32537109 118.21371094 -231.32537109 118.21371094 -230.51855469 117.29248047 C-216.4541423 101.86119424 -192.2965446 91.13053136 -171.59448242 89.97607422 C-158.82991243 89.54625454 -146.9284243 89.91057549 -134.56542969 93.24169922 C-131.06309172 94.28062718 -131.06309172 94.28062718 -127.11621094 94.11669922 C-126.84808594 93.42447266 -126.57996094 92.73224609 -126.30371094 92.01904297 C-114.09334447 61.53329249 -114.09334447 61.53329249 -105.10449219 55.84326172 C-102.149836 54.76356417 -100.10600707 55.28973433 -97.11621094 56.11669922 C-94.39640799 57.80485278 -94.12162214 59.09784343 -93.22949219 62.20654297 C-93.07365888 67.58547877 -95.14927307 70.22605505 -98.11621094 74.55419922 C-103.45498737 82.77443594 -107.44099167 91.05451473 -111.11621094 100.11669922 C-111.85723052 101.89130922 -112.60556766 103.66291145 -113.36621094 105.42919922 C-113.63949219 106.08533203 -113.91277344 106.74146484 -114.19433594 107.41748047 C-115.96216136 110.67597224 -117.59741071 111.94376581 -121.11621094 113.11669922 C-127.07580076 113.46465828 -131.64043719 112.63785131 -137.24121094 110.67919922 C-157.02219283 103.95366538 -178.78449051 105.65853277 -197.49121094 114.86669922 C-212.55489255 122.70966755 -224.74534794 133.22085583 -233.11621094 148.11669922 C-233.8084375 149.33486328 -233.8084375 149.33486328 -234.51464844 150.57763672 C-244.52677588 169.32762084 -246.56256169 193.04622398 -240.50683594 213.40966797 C-236.12940469 225.07871924 -230.5596258 236.07653934 -221.38574219 244.75341797 C-220.11621094 246.11669922 -220.11621094 246.11669922 -220.11621094 248.11669922 C-219.54644531 248.37064453 -218.97667969 248.62458984 -218.38964844 248.88623047 C-215.84616609 250.26285751 -213.92400531 251.90822254 -211.74121094 253.80419922 C-197.03483624 265.70318961 -179.72592244 269.98488432 -161.24121094 270.67919922 C-160.17128906 270.72238281 -159.10136719 270.76556641 -157.99902344 270.81005859 C-155.3715334 270.91562739 -152.74395672 271.01773713 -150.11621094 271.11669922 C-150.12509338 270.18233032 -150.13397583 269.24796143 -150.14312744 268.28527832 C-150.22439079 259.45815273 -150.28426124 250.63110354 -150.32345963 241.80368805 C-150.34428983 237.2659388 -150.3725234 232.72849275 -150.41796875 228.19091797 C-150.46159028 223.8077651 -150.48538237 219.42490295 -150.49571991 215.04154968 C-150.50308213 213.37346321 -150.51745875 211.70539174 -150.53913116 210.03742981 C-150.75934492 192.37891773 -150.75934492 192.37891773 -144.29980469 185.05810547 C-143.72359375 184.60306641 -143.14738281 184.14802734 -142.55371094 183.67919922 C-141.97492188 183.20611328 -141.39613281 182.73302734 -140.79980469 182.24560547 C-137.91906097 180.31396989 -135.40108917 179.99213471 -132.0349884 179.9964447 C-130.79192177 179.99438271 -130.79192177 179.99438271 -129.52374268 179.99227905 C-128.61815613 179.99587433 -127.71256958 179.9994696 -126.77954102 180.00317383 C-125.34510902 180.00295479 -125.34510902 180.00295479 -123.88169861 180.00273132 C-120.71635684 180.00342878 -117.55107369 180.01121342 -114.38574219 180.01904297 C-112.19284599 180.02090774 -109.99994938 180.02233136 -107.80705261 180.02333069 C-102.03173678 180.0271512 -96.25644604 180.03697754 -90.48114014 180.04803467 C-84.58931823 180.05825878 -78.69749228 180.06283046 -72.80566406 180.06787109 C-61.24250199 180.0786002 -49.67935855 180.09567107 -38.11621094 180.11669922 C-37.8147818 179.34648437 -37.51335266 178.57626953 -37.20278931 177.78271484 C-36.03681407 174.92189202 -34.64809063 172.31236271 -33.13964844 169.61669922 C-32.55497803 168.57022217 -31.97030762 167.52374512 -31.36791992 166.44555664 C-30.74860596 165.34703369 -30.12929199 164.24851074 -29.49121094 163.11669922 C-28.85965088 161.99561768 -28.22809082 160.87453613 -27.57739258 159.71948242 C-13.30650227 134.48309856 -13.30650227 134.48309856 -6.24121094 132.17919922 C-2.12352883 132.09684558 0.29534813 133.12312093 3.88378906 135.11669922 C6.98190941 138.59778909 9.27838388 142.32844814 11.56347656 146.37841797 C11.89872345 146.96911575 12.23397034 147.55981354 12.57937622 148.16841125 C13.64332329 150.04469858 14.70133168 151.92424809 15.75878906 153.80419922 C17.15013018 156.26750981 18.54418775 158.72927505 19.93847656 161.19091797 C20.27385437 161.78516571 20.60923218 162.37941345 20.95477295 162.9916687 C23.49014186 167.4694461 26.13513501 171.87048298 28.85693359 176.23706055 C29.88378906 178.11669922 29.88378906 178.11669922 29.88378906 180.11669922 C30.50131042 180.10781677 31.11883179 180.09893433 31.75506592 180.08978271 C38.17873891 180.00133003 44.60223908 179.94097353 51.02636719 179.89697266 C53.42422512 179.87684986 55.82203394 179.84954863 58.21972656 179.81494141 C61.66516229 179.76645431 65.10994958 179.74373681 68.55566406 179.72607422 C70.1652298 179.69510651 70.1652298 179.69510651 71.80731201 179.66351318 C73.30841522 179.66306 73.30841522 179.66306 74.83984375 179.66259766 C75.71920593 179.65371521 76.59856812 179.64483276 77.50457764 179.63568115 C80.70599321 180.28292869 81.8933772 181.57606573 83.88378906 184.11669922 C84.38378906 187.61669922 84.38378906 187.61669922 83.88378906 191.11669922 C82.01670402 193.48167361 80.56317475 194.77700637 77.88378906 196.11669922 C76.32308984 196.22183173 74.75803453 196.2654084 73.19384766 196.27783203 C72.21878265 196.28743958 71.24371765 196.29704712 70.23910522 196.3069458 C69.18083527 196.31119568 68.12256531 196.31544556 67.03222656 196.31982422 C65.40022812 196.32837433 65.40022812 196.32837433 63.73526001 196.33709717 C61.42686946 196.34655872 59.11846533 196.35308571 56.81005859 196.35693359 C53.29402689 196.36660232 49.77858881 196.39760012 46.26269531 196.42919922 C44.0192092 196.43573292 41.7757189 196.44098195 39.53222656 196.44482422 C38.48610199 196.45717102 37.43997742 196.46951782 36.3621521 196.48223877 C30.16362367 196.46352367 25.44845518 195.94802109 19.88378906 193.11669922 C16.70278958 189.88322824 14.59673655 186.11435732 12.35253906 182.18701172 C11.70671875 181.06166016 11.06089844 179.93630859 10.39550781 178.77685547 C9.72483674 177.59852592 9.05426451 176.4201401 8.38378906 175.24169922 C7.71360503 174.07090361 7.04303515 172.90032878 6.37207031 171.72998047 C4.53861263 168.52783382 2.71035011 165.3227833 0.88378906 162.11669922 C0.06112699 160.6764496 -0.76173212 159.23631247 -1.58496094 157.79638672 C-2.09027344 156.91208984 -2.59558594 156.02779297 -3.11621094 155.11669922 C-3.77621094 155.11669922 -4.43621094 155.11669922 -5.11621094 155.11669922 C-5.50365479 155.81641846 -5.89109863 156.5161377 -6.2902832 157.23706055 C-8.08290119 160.4697421 -9.88077509 163.69947252 -11.67871094 166.92919922 C-12.28779297 168.02941406 -12.896875 169.12962891 -13.52441406 170.26318359 C-26.42777897 193.4073143 -26.42777897 193.4073143 -34.03456593 195.69316864 C-36.15620571 196.12483654 -38.0716958 196.25232784 -40.23503113 196.26818848 C-41.04684341 196.27653214 -41.8586557 196.28487579 -42.69506836 196.29347229 C-44.01764648 196.29974892 -44.01764648 196.29974892 -45.36694336 196.30615234 C-46.76992424 196.3185923 -46.76992424 196.3185923 -48.20124817 196.33128357 C-50.22993985 196.34866677 -52.25865142 196.3638383 -54.2873745 196.37705994 C-57.49309405 196.3980897 -60.69871303 196.4251098 -63.90437317 196.45373535 C-71.86244715 196.52356054 -79.82059219 196.58307681 -87.77874756 196.64276123 C-94.50841421 196.69359902 -101.2380255 196.74837959 -107.96761513 196.80857849 C-111.13465886 196.83524277 -114.30170753 196.855999 -117.46879578 196.87658691 C-119.39708709 196.8931807 -121.32537605 196.91005172 -123.25366211 196.92724609 C-124.14145355 196.93143051 -125.029245 196.93561493 -125.94393921 196.93992615 C-129.84397015 196.59619462 -129.84397015 196.59619462 -133.11621094 198.11669922 C-133.21455429 199.79729923 -133.24253096 201.48205255 -133.24319458 203.16552734 C-133.2460144 204.25929687 -133.24883423 205.35306641 -133.2517395 206.47998047 C-133.24971527 207.69041016 -133.24769104 208.90083984 -133.24560547 210.14794922 C-133.24735779 211.41445312 -133.24911011 212.68095703 -133.25091553 213.98583984 C-133.25548938 217.46921741 -133.2537005 220.95256549 -133.25053644 224.4359436 C-133.24801259 228.07367027 -133.25035045 231.71139433 -133.25192261 235.34912109 C-133.25374423 241.45915177 -133.25133818 247.56917037 -133.24658203 253.67919922 C-133.24113942 260.75297767 -133.24290208 267.82672731 -133.24840844 274.90050507 C-133.25293977 280.96333819 -133.25359001 287.02616262 -133.25096977 293.08899689 C-133.24940711 296.71469088 -133.24921293 300.34037132 -133.25250626 303.96606445 C-133.25591912 308.00587687 -133.2511949 312.04563924 -133.24560547 316.08544922 C-133.24864182 317.90109375 -133.24864182 317.90109375 -133.2517395 319.75341797 C-133.24750977 321.39407227 -133.24750977 321.39407227 -133.24319458 323.06787109 C-133.24281755 324.02431519 -133.24244053 324.98075928 -133.24205208 325.96618652 C-133.35631585 328.09812507 -133.35631585 328.09812507 -132.11621094 329.11669922 C-130.74625543 329.21401864 -129.37131738 329.2422533 -127.99790955 329.24254036 C-127.10478593 329.24514811 -126.21166231 329.24775585 -125.29147434 329.25044262 C-124.29898654 329.2482119 -123.30649874 329.24598118 -122.28393555 329.24368286 C-121.23839728 329.24524285 -120.19285902 329.24680284 -119.11563778 329.24841011 C-115.58326276 329.25242503 -112.05093009 329.24922856 -108.51855469 329.24609375 C-105.99789403 329.24744757 -103.47723357 329.2492274 -100.95657349 329.25140381 C-94.80347468 329.25550428 -88.65039178 329.25488479 -82.49729276 329.25199117 C-77.49875364 329.24973735 -72.50021794 329.24942452 -67.50167847 329.25051498 C-66.7916102 329.25066822 -66.08154194 329.25082145 -65.34995645 329.25097933 C-63.90769172 329.25129904 -62.46542698 329.25162325 -61.02316225 329.25195192 C-47.48317874 329.25480687 -33.94320198 329.25151945 -20.40321958 329.24615155 C-8.77271592 329.2416835 2.85777777 329.24245943 14.48828125 329.24707031 C27.9781673 329.2524158 41.46804742 329.25453218 54.95793438 329.25145805 C56.39504178 329.25113948 57.83214919 329.25082511 59.26925659 329.25051498 C59.97643312 329.25036071 60.68360965 329.25020643 61.41221577 329.25004748 C66.40763463 329.24918225 71.40304974 329.25064534 76.39846802 329.25299454 C83.11572133 329.25608388 89.8329528 329.25390016 96.55020523 329.24810028 C99.02344862 329.24677193 101.4966936 329.24716806 103.96993637 329.24936295 C107.33048406 329.2520715 110.69096998 329.24869695 114.05151367 329.24368286 C115.04400147 329.24591358 116.03648928 329.2481443 117.05905247 329.25044262 C117.95217608 329.24783488 118.8452997 329.24522713 119.76548767 329.24254036 C120.54223311 329.24237801 121.31897856 329.24221565 122.11926174 329.24204838 C123.91042325 329.30847299 123.91042325 329.30847299 124.88378906 328.11669922 C124.98213241 326.43609921 125.01010909 324.75134588 125.01077271 323.06787109 C125.01500244 321.4272168 125.01500244 321.4272168 125.01931763 319.75341797 C125.0172934 318.54298828 125.01526917 317.33255859 125.01318359 316.08544922 C125.01493591 314.81894531 125.01668823 313.55244141 125.01849365 312.24755859 C125.02306751 308.76418102 125.02127863 305.28083294 125.01811457 301.79745483 C125.01559072 298.15972817 125.01792857 294.5220041 125.01950073 290.88427734 C125.02132236 284.77424667 125.01891631 278.66422806 125.01416016 272.55419922 C125.00871755 265.48042076 125.01048021 258.40667113 125.01598656 251.33289337 C125.0205179 245.27006025 125.02116814 239.20723582 125.01854789 233.14440155 C125.01698523 229.51870755 125.01679105 225.89302712 125.02008438 222.26733398 C125.02349725 218.22752157 125.01877303 214.18775919 125.01318359 210.14794922 C125.01621994 208.33230469 125.01621994 208.33230469 125.01931763 206.47998047 C125.0164978 205.38621094 125.01367798 204.29244141 125.01077271 203.16552734 C125.01039568 202.20908325 125.01001865 201.25263916 125.0096302 200.26721191 C125.12389397 198.13527337 125.12389397 198.13527337 123.88378906 197.11669922 C120.39158414 196.82872944 116.89911458 196.66766187 113.39941406 196.49560547 C109.44583779 196.0694978 106.10162736 195.61131895 103.50878906 192.42919922 C102.59530737 189.04931697 103.08496643 186.49633344 103.88378906 183.11669922 C105.49764884 180.95623976 106.36923367 180.21307645 109.04101562 179.71264648 C111.73961802 179.68054553 114.43498636 179.65894899 117.13378906 179.67919922 C118.06320312 179.65921875 118.99261719 179.63923828 119.95019531 179.61865234 C126.97279516 179.62361882 131.2600448 180.87440172 136.59082031 185.64404297 C140.9968035 191.26439608 142.18408393 195.60514448 142.11083984 202.66088867 C142.1111319 203.40289017 142.11142395 204.14489166 142.11172485 204.90937805 C142.11033709 207.34969989 142.09480219 209.78971229 142.07910156 212.22998047 C142.07536946 213.92677137 142.07252342 215.62356444 142.07052612 217.32035828 C142.06290519 221.77721144 142.04326996 226.23393339 142.02111816 230.69073486 C142.00062653 235.24221014 141.99151732 239.7937067 141.98144531 244.34521484 C141.96002258 253.26910049 141.92590526 262.19288892 141.88378906 271.11669922 C146.16713518 271.07176224 150.44915594 271.00115483 154.73168945 270.90917969 C156.18112151 270.88137667 157.63069374 270.85996557 159.08032227 270.84570312 C179.51350121 270.63293139 197.42176285 265.04920845 212.88378906 251.11669922 C213.83511719 250.2871875 213.83511719 250.2871875 214.80566406 249.44091797 C226.87737046 238.25055297 234.50514749 220.98355751 235.16894531 204.66357422 C235.66077632 183.41404156 230.804511 164.92182341 215.88378906 149.11669922 C202.86692781 135.51850241 184.66172213 127.82911585 165.94238281 126.98388672 C162.02099884 126.9955749 158.27199163 127.06124171 154.38378906 127.61669922 C148.43467822 128.4665722 142.4585857 129.29681435 136.88378906 126.74169922 C133.92074289 122.85270111 133.09733266 118.80512131 131.88378906 114.11669922 C121.8280411 79.55687228 102.45852887 51.58954168 70.84106445 33.50463867 C56.29208165 25.55378759 40.227622 20.66723495 23.88378906 18.11669922 C23.1296875 17.98650391 22.37558594 17.85630859 21.59863281 17.72216797 C-8.84789325 13.32238097 -41.32291086 22.27743483 -65.97973633 40.31079102 C-67.15908995 41.19558248 -68.32609683 42.09718414 -69.47729492 43.01831055 C-72.16374942 45.09437615 -73.93199663 46.09319679 -77.33105469 46.52685547 C-80.11621094 46.11669922 -80.11621094 46.11669922 -82.99121094 43.99169922 C-85.11621094 41.11669922 -85.11621094 41.11669922 -85.67871094 38.11669922 C-84.78359631 33.34275455 -82.05625089 30.85567507 -78.30371094 27.90576172 C-54.24102566 11.56908569 -29.23377586 1.61210716 0 0 Z M-113.42871094 401.61669922 C-116.25691245 405.80662739 -116.60616295 409.13552048 -116.11621094 414.11669922 C-114.22611575 418.73599015 -112.05340962 421.53316042 -107.80371094 424.17919922 C-102.43341589 425.54452847 -98.60102669 425.07674167 -93.36621094 423.05419922 C-89.53082471 419.75150552 -87.35557577 415.89520869 -86.91699219 410.80419922 C-87.25560022 405.0768862 -88.94366981 402.00474891 -93.11621094 398.11669922 C-100.30547914 393.95449131 -107.9360027 395.67863626 -113.42871094 401.61669922 Z M81.57128906 401.24169922 C78.8953986 405.80062371 78.1399144 410.16200827 79.44238281 415.33544922 C81.42273242 420.05308207 84.02153646 422.57981544 88.73144531 424.56201172 C93.37675523 425.75916963 97.21550443 424.7991793 101.63378906 422.99169922 C105.85464447 419.47431971 107.66741735 415.87858317 108.32128906 410.55419922 C107.66762572 405.41827298 106.19157002 402.3263966 102.38378906 398.80419922 C95.1629845 393.93015614 87.73937403 395.57372925 81.57128906 401.24169922 Z M-18.68652344 412.83544922 C-23.26639055 419.01172716 -23.69218332 424.55298644 -23.11621094 432.11669922 C-21.34877184 437.62695052 -17.76508477 440.88052196 -13.11621094 444.11669922 C-7.88168802 446.79212205 -2.73037871 446.37141534 2.88378906 445.11669922 C8.38719642 442.3130766 12.90082079 438.06560405 14.88378906 432.11669922 C15.3910204 425.90311529 15.67365035 420.32775849 11.88378906 415.11669922 C6.98799764 410.21070823 3.3328283 407.01706303 -3.80371094 406.80419922 C-9.81516513 406.89182975 -14.55360241 408.31185407 -18.68652344 412.83544922 Z " fill="#fefefe" transform="translate(260.1162109375,24.88330078125)"/>
<path d="M0 0 C2.92682121 1.06044247 4.55627888 2.21219485 6.09594727 4.94580078 C7.2829251 7.66337704 8.34018906 10.40831243 9.375 13.1875 C9.78854736 14.25814697 10.20209473 15.32879395 10.62817383 16.43188477 C11.8290388 19.55881662 13.01220352 22.69140574 14.1864624 25.82836914 C15.0582938 28.15560759 15.93430722 30.48124257 16.81103516 32.80664062 C19.40396956 39.68705631 21.99384573 46.56855387 24.55810547 53.4597168 C25.01316467 54.68142326 25.01316467 54.68142326 25.47741699 55.92781067 C26.08036381 57.54792165 26.68202223 59.16851276 27.28234863 60.78959656 C28.80346549 64.8779223 30.3683263 68.94107501 32.01416016 72.98095703 C32.33979446 73.78807632 32.66542877 74.59519562 33.00093079 75.42677307 C33.61799632 76.94886937 34.24475389 78.4670891 34.88322449 79.98033142 C36.69378066 84.46332764 37.48840459 88.08152743 37 93 C35 96 35 96 32 98 C29.13109088 98.31814751 26.66726578 98.12159084 24 97 C21 93 21 93 16 79 C3.46 79 -9.08 79 -22 79 C-23.98 83.95 -25.96 88.9 -28 94 C-33 98 -33 98 -36.625 97.9375 C-40 97 -40 97 -41.9375 95.9375 C-44.08759446 92.01673952 -43.43578575 87.59026619 -42.29501343 83.42736816 C-41.2653153 80.45961381 -40.1560093 77.5348689 -39.01171875 74.609375 C-38.5971492 73.51864182 -38.18257965 72.42790863 -37.75544739 71.30412292 C-36.41252401 67.78092173 -35.05071613 64.26539358 -33.6875 60.75 C-32.76340618 58.3422299 -31.84023013 55.93410735 -30.91796875 53.52563477 C-29.10861282 48.80779774 -27.29115088 44.0932155 -25.46630859 39.38134766 C-23.68437921 34.77856141 -21.91877475 30.17012157 -20.17207336 25.55386353 C-18.95697343 22.3449727 -17.7281406 19.14142203 -16.5 15.9375 C-16.08709717 14.84211914 -15.67419434 13.74673828 -15.2487793 12.61816406 C-14.86761963 11.63944336 -14.48645996 10.66072266 -14.09375 9.65234375 C-13.78115234 8.83757568 -13.46855469 8.02280762 -13.14648438 7.18334961 C-10.07412719 1.33239341 -6.42322981 -0.50378273 0 0 Z M-4 29 C-5.7132732 33.37659283 -7.42215493 37.75486459 -9.12695312 42.13476562 C-9.7077731 43.62514709 -10.28979968 45.11505891 -10.87304688 46.60449219 C-11.71019528 48.74292231 -12.54301894 50.88299257 -13.375 53.0234375 C-13.63748535 53.69120209 -13.8999707 54.35896667 -14.17041016 55.04696655 C-15.54380242 58.42411908 -15.54380242 58.42411908 -16 62 C-7.42 62 1.16 62 10 62 C6.15909774 50.92916406 2.31459008 39.89583116 -2 29 C-2.66 29 -3.32 29 -4 29 Z " fill="#fefefe" transform="translate(199,239)"/>
<path d="M0 0 C0.65254257 -0.00241196 1.30508514 -0.00482391 1.97740173 -0.00730896 C3.35665974 -0.00633271 4.735958 0.00700871 6.11499023 0.03198242 C8.1855032 0.06592526 10.25164746 0.05273026 12.32226562 0.03320312 C23.51778545 0.04453913 34.13903728 1.58062666 42.46484375 9.62890625 C49.95759017 18.50919831 51.01217915 27.27907892 50.15234375 38.62890625 C48.51569823 45.84592145 44.78532281 51.83714713 39.15234375 56.62890625 C33.02802908 60.42239546 27.39965851 62.77065817 20.16796875 62.7265625 C19.23339844 62.72333984 18.29882812 62.72011719 17.3359375 62.71679688 C16.36785156 62.70841797 15.39976562 62.70003906 14.40234375 62.69140625 C12.92701172 62.68463867 12.92701172 62.68463867 11.421875 62.67773438 C8.99863584 62.66597108 6.57552102 62.64953309 4.15234375 62.62890625 C4.1680542 63.54704102 4.18376465 64.46517578 4.19995117 65.41113281 C4.25115245 68.82541574 4.28872854 72.23928929 4.31713867 75.65380859 C4.33220298 77.13011116 4.35265857 78.60636913 4.37866211 80.08251953 C4.41515114 82.20746883 4.43209308 84.33182526 4.4453125 86.45703125 C4.46102295 87.73481445 4.4767334 89.01259766 4.49291992 90.32910156 C4.13071575 93.83845757 3.68478351 95.21956359 1.15234375 97.62890625 C-2.78921957 98.72378495 -4.94109304 99.02306417 -8.72265625 97.37890625 C-10.84765625 95.62890625 -10.84765625 95.62890625 -11.84765625 92.62890625 C-11.96454567 89.87188747 -12.02574724 87.13919901 -12.04052734 84.38134766 C-12.04870483 83.5403804 -12.05688232 82.69941315 -12.06530762 81.83296204 C-12.09012951 79.04880483 -12.10666754 76.26469843 -12.12109375 73.48046875 C-12.12641743 72.5296278 -12.1317411 71.57878685 -12.1372261 70.59913254 C-12.16394104 65.56837521 -12.18332308 60.53764258 -12.19775391 55.50683594 C-12.21441711 50.30903378 -12.25921357 45.11186377 -12.31012535 39.91430092 C-12.34375998 35.91829693 -12.35532702 31.92244392 -12.36098099 27.92631149 C-12.36770163 26.01012707 -12.38294478 24.09395286 -12.4068718 22.17790604 C-12.43845174 19.49649492 -12.43857146 16.81680176 -12.43115234 14.13525391 C-12.44755768 13.34442917 -12.46396301 12.55360443 -12.48086548 11.73881531 C-12.43528803 7.71406723 -12.01861048 5.8479733 -9.51261902 2.63670349 C-6.13504758 0.09202305 -4.20119579 -0.00254669 0 0 Z M4.15234375 16.62890625 C4.15234375 26.52890625 4.15234375 36.42890625 4.15234375 46.62890625 C7.14296875 46.71140625 10.13359375 46.79390625 13.21484375 46.87890625 C14.6071521 46.93353027 14.6071521 46.93353027 16.02758789 46.98925781 C21.95497712 47.06779144 25.30340673 46.07190148 30.15234375 42.62890625 C33.26295639 39.19925642 34.40855507 36.61373059 34.58984375 32.06640625 C34.34598433 27.37014574 33.15601398 24.55593335 29.72265625 21.25390625 C25.84406695 17.85772856 23.01588329 16.49512228 17.921875 16.53125 C16.83676636 16.53499634 16.83676636 16.53499634 15.72973633 16.53881836 C14.3611145 16.55247437 14.3611145 16.55247437 12.96484375 16.56640625 C10.05671875 16.58703125 7.14859375 16.60765625 4.15234375 16.62890625 Z " fill="#fefefe" transform="translate(268.84765625,238.37109375)"/>
<path d="M0 0 C1.69019318 1.31636906 1.69019318 1.31636906 3 3 C3.30666212 5.91617309 3.43029488 8.62047417 3.41992188 11.53881836 C3.42839142 12.41065262 3.43686096 13.28248688 3.44558716 14.18074036 C3.46901662 17.0672559 3.46997791 19.95324025 3.46875 22.83984375 C3.47584801 24.84379796 3.48354647 26.84775013 3.49182129 28.85169983 C3.50527979 33.05410408 3.50682872 37.25632044 3.50097656 41.45874023 C3.49507934 46.84727927 3.52566678 52.23491766 3.56609344 57.62328243 C3.59192802 61.76254647 3.59485171 65.90159243 3.59120178 70.04092598 C3.59289702 72.02768785 3.60257824 74.01445936 3.62034607 76.0011425 C3.64245206 78.77863919 3.63287696 81.55429737 3.61523438 84.33178711 C3.63512924 85.56549545 3.63512924 85.56549545 3.65542603 86.8241272 C3.5975026 90.74348228 3.36544171 92.59760457 0.68811035 95.54566956 C-2.98003711 97.53022295 -5.03873369 97.10035175 -9 96 C-11.58455285 94.10466125 -11.96275506 93.11173483 -13 90 C-13.10138534 87.33399239 -13.14683939 84.69405283 -13.14526367 82.02783203 C-13.14862228 81.21612549 -13.1519809 80.40441895 -13.15544128 79.56811523 C-13.16495011 76.88133214 -13.1668944 74.19461138 -13.16796875 71.5078125 C-13.17118149 69.64077733 -13.17454558 67.7737424 -13.17805481 65.90670776 C-13.18404599 61.9910219 -13.18589473 58.0753581 -13.18530273 54.15966797 C-13.18520114 49.14370037 -13.19885071 44.12787442 -13.21607494 39.11194038 C-13.22719727 35.25490673 -13.22922187 31.39790728 -13.22869301 27.54085922 C-13.22987287 25.69170519 -13.23429502 23.84255027 -13.24202538 21.99341202 C-13.25182943 19.40582635 -13.24894553 16.81854771 -13.24291992 14.23095703 C-13.24853943 13.46818451 -13.25415894 12.70541199 -13.25994873 11.91952515 C-13.23587368 7.84821099 -12.90955959 4.62809106 -11 1 C-7.5127355 -1.84147478 -4.16912951 -0.98543061 0 0 Z " fill="#fefefe" transform="translate(353,240)"/>
</svg>
