<?xml version="1.0" encoding="UTF-8"?>
<svg version="1.1" xmlns="http://www.w3.org/2000/svg" width="512" height="512">
<path d="M0 0 C1.65267883 0.00273422 1.65267883 0.00273422 3.33874512 0.00552368 C27.35949568 0.07243446 50.16716461 2.03954427 73.4375 8.3125 C74.15502441 8.50569824 74.87254883 8.69889648 75.61181641 8.89794922 C88.69089983 12.54551488 103.83080065 18.73023882 110.99652195 30.97698307 C112.63324163 34.76559469 112.81720424 37.40139004 112.82518005 41.51670837 C112.83325836 42.57054627 112.83325836 42.57054627 112.84149987 43.64567381 C112.85574914 45.98784033 112.84868352 48.32943925 112.84155273 50.67163086 C112.8472579 52.35572258 112.85422273 54.03981044 112.86235046 55.72389221 C112.88028075 60.29003285 112.87911375 64.8559813 112.87340808 69.42214656 C112.87031606 73.23678073 112.87640882 77.05137799 112.88244683 80.86600691 C112.89649 89.86635033 112.89493247 98.86659883 112.88354492 107.86694336 C112.87206343 117.14649452 112.88614036 126.42575668 112.9129414 135.70526975 C112.93510527 143.67827861 112.94173424 151.65119679 112.93586498 159.62423426 C112.93249591 164.38358739 112.93490725 169.14275527 112.95211601 173.90208244 C112.96759405 178.3780226 112.96362016 182.85353493 112.94481087 187.32945824 C112.94112737 188.96971811 112.94422651 190.61000974 112.95469666 192.25024033 C112.96792555 194.49442035 112.95634431 196.7371879 112.93870544 198.98130798 C112.93849616 200.23544967 112.93828688 201.48959135 112.93807125 202.78173733 C111.89970129 210.10584533 107.24727498 215.93642755 101.4375 220.3125 C87.90364459 228.59615288 73.13792435 232.95101744 57.6875 236 C56.66543457 236.20262451 55.64336914 236.40524902 54.59033203 236.61401367 C36.72003603 239.94748445 19.019537 240.68880752 0.875 240.625 C-0.77967285 240.62176727 -0.77967285 240.62176727 -2.46777344 240.61846924 C-18.66324392 240.56769698 -34.59764051 240.31045657 -50.5625 237.3125 C-51.63741699 237.11382324 -52.71233398 236.91514648 -53.81982422 236.71044922 C-72.66538873 233.09203578 -94.471464 228.48334479 -107.5 213.125 C-108.06589844 212.47144531 -108.63179688 211.81789063 -109.21484375 211.14453125 C-111.94804648 207.42896 -111.69450735 203.92762322 -111.70967102 199.46905518 C-111.71334771 198.76905986 -111.7170244 198.06906454 -111.7208125 197.34785724 C-111.73184702 194.99654587 -111.73569278 192.6452787 -111.73950195 190.29394531 C-111.74576677 188.61029927 -111.75241359 186.92665461 -111.75941467 185.24301147 C-111.78045492 179.70889244 -111.79081687 174.17477314 -111.80078125 168.640625 C-111.80482879 166.73546077 -111.80894571 164.83029668 -111.81313133 162.92513275 C-111.83218275 153.97476253 -111.84641401 145.02440055 -111.8547433 136.07401395 C-111.86451663 125.74250476 -111.89083884 115.41120976 -111.93124419 105.07977605 C-111.96140368 97.09410776 -111.97621201 89.10850088 -111.97952431 81.12277675 C-111.98187496 76.3532923 -111.99083732 71.5840367 -112.01598549 66.81461334 C-112.03926835 62.32643795 -112.04349862 57.83864204 -112.03322411 53.35042191 C-112.03272869 51.70531324 -112.03905091 50.06018588 -112.05278015 48.41513443 C-112.07051077 46.16426328 -112.06338863 43.91475238 -112.05024719 41.66387939 C-112.05263555 40.40584126 -112.0550239 39.14780312 -112.05748463 37.85164261 C-111.1726664 31.52518776 -107.5656157 26.492813 -102.984375 22.13671875 C-89.68726722 12.12099402 -72.84756567 7.78935552 -56.8125 4.625 C-55.79043457 4.42237549 -54.76836914 4.21975098 -53.71533203 4.01098633 C-35.84464554 0.67744271 -18.14482089 -0.0622941 0 0 Z M-91.9375 35.6875 C-92.80375 36.55375 -93.67 37.42 -94.5625 38.3125 C-94.5625 40.99579192 -94.06657927 42.74100587 -92.27734375 44.76953125 C-63.27823266 68.92483477 -6.47666621 66.03642499 28.36083984 63.06298828 C64.65768223 59.75248954 64.65768223 59.75248954 95.4375 42.3125 C95.4375 39.61034707 94.94687588 37.8746219 93.1171875 35.85546875 C56.13585696 5.51797032 -55.24609405 4.91872257 -91.9375 35.6875 Z M-95.5625 63.3125 C-95.67860551 70.64057436 -95.76732122 77.96844881 -95.82156086 85.29725838 C-95.84760024 88.70078256 -95.88289092 92.10367519 -95.93969727 95.50683594 C-96.0046664 99.42374989 -96.02872753 103.34041258 -96.05078125 107.2578125 C-96.07658768 108.47365021 -96.1023941 109.68948792 -96.12898254 110.94216919 C-96.2738134 117.96357734 -96.2738134 117.96357734 -93.19140625 124.02075195 C-66.73416518 147.08484203 -12.64105175 145.73757051 19.76953125 143.74609375 C60.66278608 141.20664053 60.66278608 141.20664053 95.4375 122.3125 C96.74510893 119.69728215 96.55747548 117.78136599 96.55102539 114.85302734 C96.55094986 113.71199554 96.55087433 112.57096375 96.55079651 111.39535522 C96.54563522 110.15887238 96.54047394 108.92238953 96.53515625 107.6484375 C96.5337413 106.38609283 96.53232635 105.12374817 96.53086853 103.82315063 C96.52621078 100.46611701 96.51722408 97.109151 96.50616455 93.75213623 C96.4959377 90.32695094 96.49136818 86.90175866 96.48632812 83.4765625 C96.47528238 76.75518957 96.45853194 70.03384869 96.4375 63.3125 C92.50198258 64.60556465 88.69660276 66.02876592 84.875 67.625 C62.82574312 76.11897509 37.86820322 79.40726001 14.33984375 79.515625 C13.31542679 79.52263931 12.29100983 79.52965363 11.23554993 79.53688049 C7.94865472 79.55428382 4.66193958 79.56073231 1.375 79.5625 C0.25323364 79.56317474 -0.86853271 79.56384949 -2.02429199 79.56454468 C-18.37417442 79.54889844 -34.43891786 79.31264107 -50.5625 76.3125 C-51.99650146 76.04711426 -51.99650146 76.04711426 -53.45947266 75.77636719 C-65.92213415 73.37547515 -77.70487713 69.78534226 -89.5625 65.3125 C-91.5606902 64.6404283 -93.56041702 63.97288489 -95.5625 63.3125 Z M-95.5625 143.3125 C-95.67860551 150.64057436 -95.76732122 157.96844881 -95.82156086 165.29725838 C-95.84760024 168.70078256 -95.88289092 172.10367519 -95.93969727 175.50683594 C-96.0046664 179.42374989 -96.02872753 183.34041258 -96.05078125 187.2578125 C-96.07658768 188.47365021 -96.1023941 189.68948792 -96.12898254 190.94216919 C-96.2738134 197.96357734 -96.2738134 197.96357734 -93.19140625 204.02075195 C-66.73416518 227.08484203 -12.64105175 225.73757051 19.76953125 223.74609375 C60.66278608 221.20664053 60.66278608 221.20664053 95.4375 202.3125 C96.74510893 199.69728215 96.55747548 197.78136599 96.55102539 194.85302734 C96.55094986 193.71199554 96.55087433 192.57096375 96.55079651 191.39535522 C96.54563522 190.15887238 96.54047394 188.92238953 96.53515625 187.6484375 C96.5337413 186.38609283 96.53232635 185.12374817 96.53086853 183.82315063 C96.52621078 180.46611701 96.51722408 177.109151 96.50616455 173.75213623 C96.4959377 170.32695094 96.49136818 166.90175866 96.48632812 163.4765625 C96.47528238 156.75518957 96.45853194 150.03384869 96.4375 143.3125 C92.50198258 144.60556465 88.69660276 146.02876592 84.875 147.625 C62.82574312 156.11897509 37.86820322 159.40726001 14.33984375 159.515625 C13.31542679 159.52263931 12.29100983 159.52965363 11.23554993 159.53688049 C7.94865472 159.55428382 4.66193958 159.56073231 1.375 159.5625 C0.25323364 159.56317474 -0.86853271 159.56384949 -2.02429199 159.56454468 C-18.37417442 159.54889844 -34.43891786 159.31264107 -50.5625 156.3125 C-51.99650146 156.04711426 -51.99650146 156.04711426 -53.45947266 155.77636719 C-65.92213415 153.37547515 -77.70487713 149.78534226 -89.5625 145.3125 C-91.5606902 144.6404283 -93.56041702 143.97288489 -95.5625 143.3125 Z " fill="#fefefe" transform="translate(383.5625,255.6875)"/>
<path d="M0 0 C1.77515991 -0.00717545 1.77515991 -0.00717545 3.58618164 -0.01449585 C6.08774139 -0.01789762 8.58934542 -0.00867608 11.09082031 0.01220703 C14.92353281 0.03896499 18.75331629 0.01246469 22.5859375 -0.01953125 C25.01563148 -0.01622721 27.44532363 -0.00982109 29.875 0 C31.59698608 -0.01518173 31.59698608 -0.01518173 33.35375977 -0.03067017 C41.22296505 0.08546814 41.22296505 0.08546814 44.66699219 2.87426758 C46.02348236 5.8528635 46.40428264 7.70910467 46.328125 10.96484375 C46.31523437 11.94130859 46.30234375 12.91777344 46.2890625 13.92382812 C46.23878906 15.43493164 46.23878906 15.43493164 46.1875 16.9765625 C46.16945312 18.00330078 46.15140625 19.03003906 46.1328125 20.08789062 C46.08581063 22.61424135 46.02012272 25.13866719 45.9375 27.6640625 C46.70118896 27.80303955 47.46487793 27.9420166 48.25170898 28.08520508 C52.471551 28.99469016 56.20172117 30.97809283 60.09765625 32.80078125 C62.79811544 33.89346991 62.79811544 33.89346991 64.9921875 33.12109375 C67.5819225 31.18139264 69.7550599 28.99365343 72 26.6640625 C78.54460461 19.89310315 78.54460461 19.89310315 83.58398438 19.06445312 C89.4769762 19.23981179 92.68167284 23.26083252 96.59375 27.2578125 C97.38148804 28.03789673 98.16922607 28.81798096 98.98083496 29.6217041 C100.63769902 31.27313447 102.28454393 32.93467022 103.921875 34.60546875 C106.42943053 37.1558552 108.97678311 39.66076367 111.53125 42.1640625 C113.13798794 43.77608708 114.74224236 45.39059164 116.34375 47.0078125 C117.10610962 47.75397827 117.86846924 48.50014404 118.65393066 49.2689209 C124.39401073 55.21729556 124.39401073 55.21729556 124.52416992 60.03051758 C123.8372496 64.28496417 122.76999492 65.83156758 119.75 68.8515625 C118.93273437 69.68816406 118.11546875 70.52476563 117.2734375 71.38671875 C116.50257813 72.13824219 115.73171875 72.88976562 114.9375 73.6640625 C114.37289062 74.24027344 113.80828125 74.81648438 113.2265625 75.41015625 C112.1470268 76.51153226 111.04573885 77.59157329 109.9375 78.6640625 C111.41954026 83.35718999 113.22531356 87.86248086 115.1328125 92.39453125 C115.9375 94.6640625 115.9375 94.6640625 115.9375 97.6640625 C116.89789185 97.6326416 116.89789185 97.6326416 117.87768555 97.60058594 C120.79329575 97.51716966 123.70865452 97.46532281 126.625 97.4140625 C127.63240234 97.38054687 128.63980469 97.34703125 129.67773438 97.3125 C130.65419922 97.29960938 131.63066406 97.28671875 132.63671875 97.2734375 C133.53221436 97.25249023 134.42770996 97.23154297 135.3503418 97.20996094 C139.1479252 97.87651799 140.4794032 98.6284365 142.9375 101.6640625 C143.70006903 105.67884962 143.63749967 109.65039293 143.6015625 113.7265625 C143.60634613 114.91000244 143.61112976 116.09344238 143.61605835 117.31274414 C143.61946012 119.81430389 143.61023858 122.31590792 143.58935547 124.81738281 C143.56259751 128.65009531 143.58909781 132.47987879 143.62109375 136.3125 C143.61778971 138.74219398 143.61138359 141.17188613 143.6015625 143.6015625 C143.61168365 144.74955322 143.62180481 145.89754395 143.63223267 147.08032227 C143.51609436 154.94952755 143.51609436 154.94952755 140.72729492 158.39355469 C137.748699 159.75004486 135.89245783 160.13084514 132.63671875 160.0546875 C131.66025391 160.04179687 130.68378906 160.02890625 129.67773438 160.015625 C128.16663086 159.96535156 128.16663086 159.96535156 126.625 159.9140625 C125.59826172 159.89601562 124.57152344 159.87796875 123.51367188 159.859375 C120.98732115 159.81237313 118.46289531 159.74668522 115.9375 159.6640625 C115.79852295 160.42775146 115.6595459 161.19144043 115.51635742 161.97827148 C114.60687234 166.1981135 112.62346967 169.92828367 110.80078125 173.82421875 C109.70809259 176.52467794 109.70809259 176.52467794 110.48046875 178.71875 C112.42016986 181.308485 114.60790907 183.4816224 116.9375 185.7265625 C123.70845935 192.27116711 123.70845935 192.27116711 124.53710938 197.31054688 C124.36175071 203.2035387 120.34072998 206.40823534 116.34375 210.3203125 C115.56366577 211.10805054 114.78358154 211.89578857 113.9798584 212.70739746 C112.32842803 214.36426152 110.66689228 216.01110643 108.99609375 217.6484375 C106.4457073 220.15599303 103.94079883 222.70334561 101.4375 225.2578125 C99.82547542 226.86455044 98.21097086 228.46880486 96.59375 230.0703125 C95.84758423 230.83267212 95.10141846 231.59503174 94.3326416 232.38049316 C88.38426694 238.12057323 88.38426694 238.12057323 83.57104492 238.25073242 C79.31659833 237.5638121 77.76999492 236.49655742 74.75 233.4765625 C73.49509766 232.25066406 73.49509766 232.25066406 72.21484375 231 C71.46332031 230.22914063 70.71179688 229.45828125 69.9375 228.6640625 C69.36128906 228.09945312 68.78507813 227.53484375 68.19140625 226.953125 C67.09003024 225.8735893 66.00998921 224.77230135 64.9375 223.6640625 C60.56630299 225.0616561 56.2517131 226.46776218 52.0625 228.3515625 C48.9375 229.6640625 48.9375 229.6640625 45.9375 229.6640625 C45.95844727 230.30432373 45.97939453 230.94458496 46.00097656 231.60424805 C46.08439284 234.51985825 46.13623969 237.43521702 46.1875 240.3515625 C46.22101563 241.35896484 46.25453125 242.36636719 46.2890625 243.40429688 C46.30195313 244.38076172 46.31484375 245.35722656 46.328125 246.36328125 C46.34907227 247.25877686 46.37001953 248.15427246 46.39160156 249.0769043 C45.72504451 252.8744877 44.973126 254.2059657 41.9375 256.6640625 C37.92271288 257.42663153 33.95116957 257.36406217 29.875 257.328125 C28.09984009 257.33530045 28.09984009 257.33530045 26.28881836 257.34262085 C23.78725861 257.34602262 21.28565458 257.33680108 18.78417969 257.31591797 C14.95146719 257.28916001 11.12168371 257.31566031 7.2890625 257.34765625 C4.85936852 257.34435221 2.42967637 257.33794609 0 257.328125 C-1.14799072 257.33824615 -2.29598145 257.34836731 -3.47875977 257.35879517 C-11.34796505 257.24265686 -11.34796505 257.24265686 -14.79199219 254.45385742 C-16.14848236 251.4752615 -16.52928264 249.61902033 -16.453125 246.36328125 C-16.44023438 245.38681641 -16.42734375 244.41035156 -16.4140625 243.40429688 C-16.38054687 242.39689453 -16.34703125 241.38949219 -16.3125 240.3515625 C-16.29445313 239.32482422 -16.27640625 238.29808594 -16.2578125 237.24023438 C-16.21081063 234.71388365 -16.14512272 232.18945781 -16.0625 229.6640625 C-16.82618896 229.52508545 -17.58987793 229.3861084 -18.37670898 229.24291992 C-22.596551 228.33343484 -26.32672117 226.35003217 -30.22265625 224.52734375 C-32.92311544 223.43465509 -32.92311544 223.43465509 -35.1171875 224.20703125 C-37.7069225 226.14673236 -39.8800599 228.33447157 -42.125 230.6640625 C-48.66960461 237.43502185 -48.66960461 237.43502185 -53.70898438 238.26367188 C-59.6019762 238.08831321 -62.80667284 234.06729248 -66.71875 230.0703125 C-67.50648804 229.29022827 -68.29422607 228.51014404 -69.10583496 227.7064209 C-70.76269902 226.05499053 -72.40954393 224.39345478 -74.046875 222.72265625 C-76.55443053 220.1722698 -79.10178311 217.66736133 -81.65625 215.1640625 C-83.26298794 213.55203792 -84.86724236 211.93753336 -86.46875 210.3203125 C-87.23110962 209.57414673 -87.99346924 208.82798096 -88.77893066 208.0592041 C-94.51901073 202.11082944 -94.51901073 202.11082944 -94.64916992 197.29760742 C-93.9622496 193.04316083 -92.89499492 191.49655742 -89.875 188.4765625 C-89.05773437 187.63996094 -88.24046875 186.80335938 -87.3984375 185.94140625 C-86.24214844 184.81412109 -86.24214844 184.81412109 -85.0625 183.6640625 C-84.49789062 183.08785156 -83.93328125 182.51164063 -83.3515625 181.91796875 C-82.2720268 180.81659274 -81.17073885 179.73655171 -80.0625 178.6640625 C-81.4600936 174.29286549 -82.86619968 169.9782756 -84.75 165.7890625 C-86.0625 162.6640625 -86.0625 162.6640625 -86.0625 159.6640625 C-86.70276123 159.68500977 -87.34302246 159.70595703 -88.00268555 159.72753906 C-90.91829575 159.81095534 -93.83365452 159.86280219 -96.75 159.9140625 C-97.75740234 159.94757813 -98.76480469 159.98109375 -99.80273438 160.015625 C-100.77919922 160.02851563 -101.75566406 160.04140625 -102.76171875 160.0546875 C-103.65721436 160.07563477 -104.55270996 160.09658203 -105.4753418 160.11816406 C-109.2729252 159.45160701 -110.6044032 158.6996885 -113.0625 155.6640625 C-113.82506903 151.64927538 -113.76249967 147.67773207 -113.7265625 143.6015625 C-113.73134613 142.41812256 -113.73612976 141.23468262 -113.74105835 140.01538086 C-113.74446012 137.51382111 -113.73523858 135.01221708 -113.71435547 132.51074219 C-113.68759751 128.67802969 -113.71409781 124.84824621 -113.74609375 121.015625 C-113.74278971 118.58593102 -113.73638359 116.15623887 -113.7265625 113.7265625 C-113.73668365 112.57857178 -113.74680481 111.43058105 -113.75723267 110.24780273 C-113.64109436 102.37859745 -113.64109436 102.37859745 -110.85229492 98.93457031 C-107.873699 97.57808014 -106.01745783 97.19727986 -102.76171875 97.2734375 C-101.78525391 97.28632812 -100.80878906 97.29921875 -99.80273438 97.3125 C-98.79533203 97.34601563 -97.78792969 97.37953125 -96.75 97.4140625 C-95.72326172 97.43210937 -94.69652344 97.45015625 -93.63867188 97.46875 C-91.11232115 97.51575187 -88.58789531 97.58143978 -86.0625 97.6640625 C-85.92352295 96.90037354 -85.7845459 96.13668457 -85.64135742 95.34985352 C-84.73187234 91.1300115 -82.74846967 87.39984133 -80.92578125 83.50390625 C-79.83309259 80.80344706 -79.83309259 80.80344706 -80.60546875 78.609375 C-82.54516986 76.01964 -84.73290907 73.8465026 -87.0625 71.6015625 C-93.83345935 65.05695789 -93.83345935 65.05695789 -94.66210938 60.01757812 C-94.48675071 54.1245863 -90.46572998 50.91988966 -86.46875 47.0078125 C-85.68866577 46.22007446 -84.90858154 45.43233643 -84.1048584 44.62072754 C-82.45342803 42.96386348 -80.79189228 41.31701857 -79.12109375 39.6796875 C-76.5707073 37.17213197 -74.06579883 34.62477939 -71.5625 32.0703125 C-69.95047542 30.46357456 -68.33597086 28.85932014 -66.71875 27.2578125 C-65.97258423 26.49545288 -65.22641846 25.73309326 -64.4576416 24.94763184 C-58.50926694 19.20755177 -58.50926694 19.20755177 -53.69604492 19.07739258 C-49.44159833 19.7643129 -47.89499492 20.83156758 -44.875 23.8515625 C-44.03839844 24.66882813 -43.20179687 25.48609375 -42.33984375 26.328125 C-41.21255859 27.48441406 -41.21255859 27.48441406 -40.0625 28.6640625 C-39.48628906 29.22867188 -38.91007812 29.79328125 -38.31640625 30.375 C-37.21503024 31.4545357 -36.13498921 32.55582365 -35.0625 33.6640625 C-30.36937251 32.18202224 -25.86408164 30.37624894 -21.33203125 28.46875 C-19.0625 27.6640625 -19.0625 27.6640625 -16.0625 27.6640625 C-16.0939209 26.70367065 -16.0939209 26.70367065 -16.12597656 25.72387695 C-16.20939284 22.80826675 -16.26123969 19.89290798 -16.3125 16.9765625 C-16.34601563 15.96916016 -16.37953125 14.96175781 -16.4140625 13.92382812 C-16.43339844 12.45913086 -16.43339844 12.45913086 -16.453125 10.96484375 C-16.4845459 9.62160034 -16.4845459 9.62160034 -16.51660156 8.2512207 C-14.88716635 -1.03217979 -7.75633337 -0.068383 0 0 Z M0.9375 17.6640625 C0.64873136 24.11075704 0.64873136 24.11075704 0.36938477 30.55786133 C0.33127686 31.36247803 0.29316895 32.16709473 0.25390625 32.99609375 C0.21724854 33.81827393 0.18059082 34.6404541 0.14282227 35.48754883 C-0.0625 37.6640625 -0.0625 37.6640625 -1.0625 40.6640625 C-3.14453125 41.4375 -3.14453125 41.4375 -5.875 42.0390625 C-14.23704314 44.11874162 -21.86889136 47.45405634 -29.4375 51.5390625 C-32.30646816 52.97354658 -33.95313238 53.65531309 -37.1875 53.9140625 C-41.56561692 52.0105334 -44.67123164 48.97176778 -48.0625 45.6640625 C-48.59746094 45.14457031 -49.13242188 44.62507813 -49.68359375 44.08984375 C-50.82417907 42.96218291 -51.94593897 41.81551606 -53.0625 40.6640625 C-56.3211636 42.0905203 -58.4649854 43.83110412 -60.953125 46.359375 C-61.66210938 47.07480469 -62.37109375 47.79023437 -63.1015625 48.52734375 C-63.83117187 49.27371094 -64.56078125 50.02007812 -65.3125 50.7890625 C-66.05757812 51.54316406 -66.80265625 52.29726562 -67.5703125 53.07421875 C-69.4056342 54.93307022 -71.2361191 56.79643255 -73.0625 58.6640625 C-70.82926053 63.51712509 -67.20750122 66.38686628 -63.27734375 69.93359375 C-60.4570588 73.41045298 -59.97854222 75.18631421 -60.0625 79.6640625 C-61.14228056 82.89898641 -62.6626427 85.83919472 -64.25 88.8515625 C-65.09107869 90.52868153 -65.92703879 92.2083775 -66.7578125 93.890625 C-67.1590332 94.70305664 -67.56025391 95.51548828 -67.97363281 96.35253906 C-71.68319681 104.22167473 -71.68319681 104.22167473 -73.0625 112.6640625 C-75.8527667 113.5941514 -77.82779542 113.85105019 -80.73046875 113.98046875 C-81.53508545 114.01857666 -82.33970215 114.05668457 -83.16870117 114.09594727 C-84.69394409 114.16060181 -84.69394409 114.16060181 -86.25 114.2265625 C-91.1071875 114.443125 -91.1071875 114.443125 -96.0625 114.6640625 C-96.0625 123.9040625 -96.0625 133.1440625 -96.0625 142.6640625 C-89.61580546 142.95283114 -89.61580546 142.95283114 -83.16870117 143.23217773 C-82.36408447 143.27028564 -81.55946777 143.30839355 -80.73046875 143.34765625 C-79.90828857 143.38431396 -79.0861084 143.42097168 -78.23901367 143.45874023 C-76.0625 143.6640625 -76.0625 143.6640625 -73.0625 144.6640625 C-72.359375 146.60546875 -72.359375 146.60546875 -71.8125 149.2265625 C-70.53718596 154.40922167 -68.72271662 159.11607511 -66.5625 163.9765625 C-66.11729004 164.98021851 -66.11729004 164.98021851 -65.66308594 166.00415039 C-64.31118496 169.00999667 -62.95010862 171.85606444 -61.28125 174.70703125 C-59.66672861 178.62431552 -59.8379641 180.61367452 -61.0625 184.6640625 C-62.83225079 187.10145655 -64.90319673 189.07781712 -67.125 191.1015625 C-67.69283203 191.64232422 -68.26066406 192.18308594 -68.84570312 192.74023438 C-70.23799838 194.06232987 -71.6484884 195.36521926 -73.0625 196.6640625 C-71.6360422 199.9227261 -69.89545838 202.0665479 -67.3671875 204.5546875 C-66.65175781 205.26367188 -65.93632813 205.97265625 -65.19921875 206.703125 C-64.45285156 207.43273437 -63.70648438 208.16234375 -62.9375 208.9140625 C-62.18339844 209.65914062 -61.42929688 210.40421875 -60.65234375 211.171875 C-58.79349228 213.0071967 -56.93012995 214.8376816 -55.0625 216.6640625 C-50.53873526 214.55916086 -47.89634697 211.43183581 -44.57421875 207.7578125 C-41.31721432 205.04279792 -39.29516381 204.17579849 -35.0625 203.6640625 C-31.62531106 204.63317079 -28.55259916 206.17730252 -25.375 207.7890625 C-23.60490875 208.63838807 -21.83277294 209.48346601 -20.05859375 210.32421875 C-18.77831299 210.93547607 -18.77831299 210.93547607 -17.47216797 211.55908203 C-9.54279236 215.25524836 -9.54279236 215.25524836 -1.0625 216.6640625 C-0.1324111 219.4543292 0.12448769 221.42935792 0.25390625 224.33203125 C0.29201416 225.13664795 0.33012207 225.94126465 0.36938477 226.77026367 C0.41248779 227.78709229 0.45559082 228.8039209 0.5 229.8515625 C0.7165625 234.70875 0.7165625 234.70875 0.9375 239.6640625 C10.1775 239.6640625 19.4175 239.6640625 28.9375 239.6640625 C29.06818593 233.63672073 29.06818593 233.63672073 29.14526367 227.60864258 C29.30105391 223.40319895 29.55612566 221.1981273 32.0546875 217.69921875 C35.29937822 215.40859021 38.05817317 214.37260139 41.875 213.2890625 C48.68059478 211.26591415 54.55639412 208.42854894 60.71875 204.921875 C64.78102864 203.33443116 66.77032865 203.38364672 70.9375 204.6640625 C73.37356847 206.43561972 75.35121546 208.50471623 77.375 210.7265625 C77.91576172 211.29439453 78.45652344 211.86222656 79.01367188 212.44726562 C80.33576737 213.83956088 81.63865676 215.2500509 82.9375 216.6640625 C86.1961636 215.2376047 88.3399854 213.49702088 90.828125 210.96875 C91.53710938 210.25332031 92.24609375 209.53789062 92.9765625 208.80078125 C93.70617187 208.05441406 94.43578125 207.30804688 95.1875 206.5390625 C95.93257812 205.78496094 96.67765625 205.03085938 97.4453125 204.25390625 C99.2806342 202.39505478 101.1111191 200.53169245 102.9375 198.6640625 C100.83259836 194.14029776 97.70527331 191.49790947 94.03125 188.17578125 C91.35917649 184.97029008 90.49229853 182.80976172 89.9375 178.6640625 C90.72651232 175.77483076 92.06850938 173.28399491 93.5 170.6640625 C97.0314201 163.78189255 99.6027571 157.06947244 101.734375 149.640625 C103.07921173 146.313464 103.92582159 145.48780845 106.9375 143.6640625 C109.22753906 143.23168945 109.22753906 143.23168945 111.703125 143.15234375 C112.50524414 143.11923096 113.30736328 143.08611816 114.13378906 143.05200195 C115.14151367 143.02710693 116.14923828 143.00221191 117.1875 142.9765625 C120.405 142.8734375 123.6225 142.7703125 126.9375 142.6640625 C126.9375 133.4240625 126.9375 124.1840625 126.9375 114.6640625 C120.58103779 114.53336169 120.58103779 114.53336169 114.22387695 114.45629883 C109.90301449 114.3043612 107.54140741 114.0916006 103.94140625 111.54296875 C101.69640918 108.31770006 100.64227958 105.5642317 99.5625 101.7890625 C97.67318599 95.43503025 95.21011134 89.65516866 91.99658203 83.85205078 C90.32427766 80.59555367 89.92553362 78.75744116 90.39453125 75.09765625 C92.20896262 71.05997227 94.3427176 68.68075372 97.5625 65.7265625 C98.078125 65.23349609 98.59375 64.74042969 99.125 64.23242188 C100.38462865 63.03110936 101.6595398 61.84585513 102.9375 60.6640625 C101.5110422 57.4053989 99.77045838 55.2615771 97.2421875 52.7734375 C96.52675781 52.06445312 95.81132812 51.35546875 95.07421875 50.625 C94.32785156 49.89539063 93.58148438 49.16578125 92.8125 48.4140625 C92.05839844 47.66898438 91.30429688 46.92390625 90.52734375 46.15625 C88.66849228 44.3209283 86.80512995 42.4904434 84.9375 40.6640625 C80.07289036 42.9052714 77.15440905 46.53367754 73.5703125 50.44921875 C70.39629562 53.11934868 69.08725934 53.75298591 64.9375 53.6640625 C61.58694338 52.55163522 58.47558338 51.0353257 55.3125 49.4765625 C48.66095166 46.31606114 42.2714414 43.54371089 35.15234375 41.61328125 C32.20785757 40.3513586 31.36698883 39.56375344 29.9375 36.6640625 C29.44073079 33.41717295 29.33546623 30.19441696 29.25 26.9140625 C29.146875 23.8615625 29.04375 20.8090625 28.9375 17.6640625 C19.6975 17.6640625 10.4575 17.6640625 0.9375 17.6640625 Z " fill="#fefefe" transform="translate(129.0625,15.3359375)"/>
<path d="M0 0 C2.44225447 1.66159248 4.74768159 3.38773224 7.0390625 5.25 C7.87179688 5.87648438 8.70453125 6.50296875 9.5625 7.1484375 C18.76036546 14.95356624 26.15845232 28.59050337 27.26025391 40.67626953 C27.73579386 51.65011278 27.93683722 62.18235196 23.0390625 72.25 C22.58015625 73.21164063 22.12125 74.17328125 21.6484375 75.1640625 C13.91897924 90.25684678 1.74462952 98.78970206 -14.12109375 104.359375 C-26.20509403 107.16217466 -40.75813646 106.70001132 -51.9609375 101.25 C-52.92257813 100.79109375 -53.88421875 100.3321875 -54.875 99.859375 C-69.95673947 92.13557311 -78.53387692 79.95237876 -84.06640625 64.078125 C-87.48632329 49.44267215 -85.88294958 33.26983294 -78.2109375 20.2890625 C-76.54934502 17.84680803 -74.82320526 15.54138091 -72.9609375 13.25 C-72.33445312 12.41726562 -71.70796875 11.58453125 -71.0625 10.7265625 C-54.23488249 -9.10375256 -21.90682862 -12.94757154 0 0 Z M-61.421875 26.09765625 C-68.14505217 35.49986595 -68.94584911 46.05282056 -67.9609375 57.25 C-65.7647162 68.01942251 -59.1843623 76.38422662 -50.38671875 82.7421875 C-40.41077851 88.94301348 -29.1889132 89.97308289 -17.80859375 87.58984375 C-6.62384645 83.96617387 1.84161302 76.06122995 7.359375 65.79296875 C11.41050101 56.34506299 11.6392523 45.07439536 8.4765625 35.3125 C3.89997856 24.63913815 -4.35007565 16.38908394 -15.0234375 11.8125 C-32.85669213 6.03482564 -49.64786292 12.09249576 -61.421875 26.09765625 Z " fill="#fefefe" transform="translate(172.9609375,94.75)"/>
<path d="M0 0 C0.81196838 -0.00700928 1.62393677 -0.01401855 2.46051025 -0.02124023 C5.14581505 -0.03884703 7.83006521 -0.02718065 10.51538086 -0.01367188 C12.38903505 -0.01636786 14.26268787 -0.02025116 16.13633728 -0.02526855 C20.06807747 -0.03116876 23.99945439 -0.02259067 27.93115234 -0.00390625 C32.94561842 0.01877356 37.95922289 0.00583359 42.97365665 -0.01819611 C46.84728843 -0.03273433 50.72072024 -0.02800966 54.59435844 -0.01768494 C56.44134055 -0.01503401 58.28834137 -0.01822929 60.13530159 -0.02760315 C75.24032134 -0.08739286 86.37643723 1.6336237 97.78881836 12.25976562 C108.5001616 23.36270636 109.04365859 36.78020775 109.23413086 51.32617188 C109.25473446 52.66138807 109.27573175 53.99659825 109.29710388 55.33180237 C109.35197324 58.82513514 109.40153555 62.3185233 109.44995117 65.81195068 C109.50042484 69.38509986 109.5559751 72.95816984 109.61108398 76.53125 C109.71823492 83.5266239 109.81977323 90.52206953 109.91772461 97.51757812 C110.38823242 97.03546875 110.85874023 96.55335938 111.34350586 96.05664062 C111.96612305 95.425 112.58874023 94.79335937 113.23022461 94.14257812 C113.84510742 93.51609375 114.45999023 92.88960938 115.09350586 92.24414062 C118.10692542 89.39203903 119.65099367 88.54298107 123.85522461 88.14257812 C126.88925511 88.22623705 127.77061145 88.41573055 130.35522461 90.20507812 C132.14622275 92.85575537 132.8413872 94.31140674 132.91772461 97.51757812 C130.93128667 102.33974343 128.13117808 105.72269185 124.44506836 109.31835938 C123.92135147 109.84020309 123.39763458 110.36204681 122.85804749 110.89970398 C121.7579946 111.99307379 120.6543693 113.08286004 119.54736328 114.16918945 C117.84974685 115.83545472 116.16321768 117.51233863 114.47827148 119.19140625 C113.40532756 120.25518681 112.33178088 121.31835986 111.25756836 122.38085938 C110.75233139 122.88184647 110.24709442 123.38283356 109.72654724 123.89900208 C106.44548885 127.11308504 104.91158903 128.38049338 100.29272461 129.01757812 C96.60039699 128.95612869 94.9612676 128.08626096 92.26538086 125.59960938 C91.57379883 124.9642627 90.8822168 124.32891602 90.16967773 123.67431641 C86.05552323 119.73411249 81.99900506 115.7424784 77.98022461 111.70507812 C77.11848633 110.84720703 76.25674805 109.98933594 75.36889648 109.10546875 C74.55098633 108.28626953 73.73307617 107.46707031 72.89038086 106.62304688 C72.15053955 105.88207764 71.41069824 105.1411084 70.6484375 104.37768555 C67.73947824 101.25124168 67.56305844 98.75088679 67.64819336 94.49414062 C67.91772461 92.51757812 67.91772461 92.51757812 69.41772461 90.01757812 C72.22232026 88.33482073 74.47544232 87.77659256 77.75756836 87.92382812 C82.0474653 89.10296797 84.90153188 92.39438078 87.91772461 95.51757812 C88.91651231 96.51878896 89.91631839 97.51898633 90.91772461 98.51757812 C90.96427603 91.11078208 90.99970881 83.70401811 91.02134895 76.29710484 C91.03174052 72.85695248 91.04581396 69.41690098 91.06860352 65.97680664 C91.09469809 62.01254527 91.10423565 58.04832326 91.11303711 54.08398438 C91.12335968 52.86175674 91.13368225 51.63952911 91.14431763 50.38026428 C91.14551722 41.16450377 90.96415372 32.90765815 84.91772461 25.51757812 C77.72774373 18.38701858 70.11852539 17.36814777 60.32348633 17.37573242 C59.58776398 17.372258 58.85204163 17.36878357 58.09402466 17.36520386 C56.50626241 17.35788665 54.91849019 17.35251993 53.33071518 17.34891319 C50.81708344 17.34170996 48.30364265 17.32601801 45.79006958 17.30757141 C38.64693698 17.25526004 31.50391611 17.20707942 24.3605957 17.19165039 C19.98331336 17.18157821 15.60652302 17.15228502 11.22943497 17.11033058 C9.56370892 17.09801634 7.89791347 17.09290011 6.2321434 17.09512901 C3.90528323 17.09747812 1.5798423 17.07535195 -0.74682617 17.04760742 C-1.43367493 17.05420883 -2.12052368 17.06081024 -2.82818604 17.06761169 C-6.18369082 17.00186434 -7.83622642 16.71116239 -10.50753784 14.60945129 C-12.21753739 12.33789679 -12.62611057 11.32302942 -12.58227539 8.51757812 C-12.59774414 7.52757813 -12.59774414 7.52757813 -12.61352539 6.51757812 C-10.90641282 0.0908014 -5.71075765 -0.06059039 0 0 Z " fill="#fefefe" transform="translate(316.082275390625,95.482421875)"/>
<path d="M0 0 C1.83007812 1.24389648 1.83007812 1.24389648 3.65625 2.93359375 C4.34799316 3.56958496 5.03973633 4.20557617 5.75244141 4.86083984 C6.49413574 5.5667627 7.23583008 6.27268555 8 7 C9.18408447 8.11882568 9.18408447 8.11882568 10.39208984 9.26025391 C12.91074327 11.67058884 15.39553558 14.11191133 17.875 16.5625 C18.72835937 17.38685547 19.58171875 18.21121094 20.4609375 19.06054688 C21.275625 19.86685547 22.0903125 20.67316406 22.9296875 21.50390625 C23.66429199 22.22392822 24.39889648 22.9439502 25.15576172 23.68579102 C27.29262628 26.36719678 28.16231058 28.69064469 29 32 C28.48089544 34.76682731 27.38416921 36.47883465 26 39 C22.69683596 40.65158202 19.54103265 40.77518228 16 40 C12.97846689 37.99816723 10.5114729 35.60057172 8 33 C7.0012123 31.99878916 6.00140622 30.9985918 5 30 C4.95344858 37.40679605 4.91801579 44.81356001 4.89637566 52.22047329 C4.88598409 55.66062564 4.87191065 59.10067715 4.84912109 62.54077148 C4.82302652 66.50503286 4.81348896 70.46925486 4.8046875 74.43359375 C4.79436493 75.65582138 4.78404236 76.87804901 4.77340698 78.13731384 C4.77220739 87.35307436 4.95357089 95.60991997 11 103 C18.18998088 110.13055955 25.79919922 111.14943036 35.59423828 111.1418457 C36.69782181 111.14705734 36.69782181 111.14705734 37.82369995 111.15237427 C39.4114622 111.15969148 40.99923441 111.1650582 42.58700943 111.16866493 C45.10064117 111.17586816 47.61408196 111.19156011 50.12765503 111.21000671 C57.27078763 111.26231809 64.4138085 111.3104987 71.55712891 111.32592773 C75.93441125 111.33599992 80.31120159 111.3652931 84.68828964 111.40724754 C86.35401569 111.41956178 88.01981114 111.42467802 89.68558121 111.42244911 C92.01244137 111.4201 94.33788231 111.44222617 96.66455078 111.4699707 C97.35139954 111.46336929 98.03824829 111.45676788 98.74591064 111.44996643 C102.10141543 111.51571378 103.75395103 111.80641574 106.42526245 113.90812683 C108.135262 116.17968134 108.54383518 117.1945487 108.5 120 C108.51546875 120.99 108.51546875 120.99 108.53125 122 C107.73036322 125.01510317 106.46877897 126.09508971 104 128 C101.17553269 128.39479187 98.74085336 128.54753115 95.91772461 128.51757812 C95.10575623 128.5245874 94.29378784 128.53159668 93.45721436 128.53881836 C90.77190956 128.55642515 88.0876594 128.54475878 85.40234375 128.53125 C83.52868956 128.53394598 81.65503674 128.53782929 79.78138733 128.54284668 C75.84964714 128.54874688 71.91827022 128.5401688 67.98657227 128.52148438 C62.97210619 128.49880456 57.95850172 128.51174453 52.94406796 128.53577423 C49.07043618 128.55031246 45.19700437 128.54558778 41.32336617 128.53526306 C39.47638406 128.53261213 37.62938324 128.53580741 35.78242302 128.54518127 C21.38221606 128.60218114 9.90346841 127.4087931 -1 117 C-11.00230006 106.52234311 -12.60122465 95.24986545 -12.609375 81.26953125 C-12.62438904 79.78307829 -12.64112284 78.29664181 -12.65948486 76.81022644 C-12.70280988 72.93548737 -12.72307904 69.06097314 -12.73822021 65.18603516 C-12.75791847 61.21698906 -12.79987323 57.24818142 -12.83984375 53.27929688 C-12.91476723 45.51959592 -12.96528631 37.75999623 -13 30 C-13.62648438 30.63808594 -14.25296875 31.27617187 -14.8984375 31.93359375 C-15.71570313 32.75988281 -16.53296875 33.58617187 -17.375 34.4375 C-18.18710938 35.26121094 -18.99921875 36.08492188 -19.8359375 36.93359375 C-23.13621789 40.08494452 -25.44527073 40.36109459 -30.0234375 40.26953125 C-32 40 -32 40 -34.5 38.5 C-36.19418171 35.67636382 -36.75216215 33.42129708 -36.56982422 30.1184082 C-35.87704229 27.54288599 -34.86870269 26.31756326 -33.0703125 24.35546875 C-32.11983032 23.31640381 -32.11983032 23.31640381 -31.15014648 22.25634766 C-27.22043867 18.13254164 -23.22464632 14.08102766 -19.1875 10.0625 C-18.32962891 9.20076172 -17.47175781 8.33902344 -16.58789062 7.45117188 C-15.76869141 6.63326172 -14.94949219 5.81535156 -14.10546875 4.97265625 C-13.36449951 4.23281494 -12.62353027 3.49297363 -11.86010742 2.73071289 C-8.35959626 -0.52629244 -4.60451182 -0.97707248 0 0 Z " fill="#fefefe" transform="translate(132,304)"/>
<path d="M0 0 C2.5 1.5 2.5 1.5 4 4 C4.791013 8.02098277 4.62153384 10.96411027 2.5 14.5 C-1.03588973 16.62153384 -3.97901723 16.791013 -8 16 C-10.5 14.5 -10.5 14.5 -12 12 C-12.791013 7.97901723 -12.62153384 5.03588973 -10.5 1.5 C-6.96411027 -0.62153384 -4.02098277 -0.791013 0 0 Z " fill="#fefefe" transform="translate(388,440)"/>
<path d="M0 0 C2.5 1.5 2.5 1.5 4 4 C4.791013 8.02098277 4.62153384 10.96411027 2.5 14.5 C-1.03588973 16.62153384 -3.97901723 16.791013 -8 16 C-10.5 14.5 -10.5 14.5 -12 12 C-12.791013 7.97901723 -12.62153384 5.03588973 -10.5 1.5 C-6.96411027 -0.62153384 -4.02098277 -0.791013 0 0 Z " fill="#fefefe" transform="translate(388,360)"/>
</svg>
