<?xml version="1.0" encoding="UTF-8"?>
<svg version="1.1" xmlns="http://www.w3.org/2000/svg" width="512" height="512">
<path d="M0 0 C5.946453 4.42589881 9.70343278 9.73196936 11.56640625 16.91015625 C11.63342131 19.3468239 11.65168646 21.78517367 11.62890625 24.22265625 C11.75989517 28.05756577 12.01720237 31.10747366 14.2421875 34.359375 C15.77047559 35.78451043 17.33208771 37.17440028 18.91796875 38.53515625 C43.03388558 60.16122916 52.73348094 98.04933039 61.56640625 127.91015625 C62.53989014 127.70334229 63.51337402 127.49652832 64.51635742 127.28344727 C68.14113151 126.51345569 71.76598805 125.74385289 75.39086914 124.97436523 C76.95729779 124.64178843 78.52370431 124.30910735 80.09008789 123.97631836 C82.34645822 123.4969561 84.60290888 123.01797358 86.859375 122.5390625 C87.55540329 122.39110733 88.25143158 122.24315216 88.96855164 122.0907135 C92.49706404 121.34221671 96.02757815 120.60833317 99.56640625 119.91015625 C99.71335937 119.13671875 99.8603125 118.36328125 100.01171875 117.56640625 C102.18360154 107.48088159 106.16619587 100.91030652 114.56640625 94.91015625 C122.67760123 90.84466706 131.82930283 90.238073 140.58203125 92.7890625 C148.79776557 96.60711081 154.2850837 102.21976979 157.83984375 110.50390625 C158.7763062 113.60530879 159.16903193 116.69999504 159.56640625 119.91015625 C160.52160156 120.20148438 161.47679687 120.4928125 162.4609375 120.79296875 C174.90409106 124.69195274 187.42343146 129.03531766 194.2890625 140.8828125 C201.31726025 154.55706013 201.53697563 169.31300401 197.015625 184.03515625 C192.09056818 197.72973858 185.13317322 210.18948828 176.56640625 221.91015625 C176.16309082 222.46364746 175.75977539 223.01713867 175.34423828 223.58740234 C164.90129317 237.78492506 153.18454275 250.62800564 140.56640625 262.91015625 C141.68367064 266.26194943 142.52090592 266.9272303 145.19140625 269.09765625 C148.69543801 272.07359812 151.69798747 275.19117397 154.6640625 278.6953125 C156.837835 281.22617288 159.10648486 283.65506914 161.37890625 286.09765625 C182.73395118 309.58820567 201.02794689 337.88987738 199.74560547 370.59277344 C198.88548637 381.71573051 193.16519659 389.63115997 185.37890625 397.09765625 C167.66765016 412.13162944 140.44959736 412.16077873 118.51416016 410.70800781 C98.71004041 409.01206607 78.32661935 405.58752024 59.56640625 398.91015625 C59.4698877 399.55122314 59.37336914 400.19229004 59.27392578 400.8527832 C58.01160324 408.52471633 55.88540225 415.72680614 53.44140625 423.09765625 C53.06886719 424.24041016 52.69632812 425.38316406 52.3125 426.56054688 C51.40347343 429.34589752 50.48802983 432.12895376 49.56640625 434.91015625 C50.94892578 435.98910156 50.94892578 435.98910156 52.359375 437.08984375 C55.19257792 439.45265006 57.04595261 441.80401964 58.87890625 445.03515625 C59.37003906 445.88335937 59.86117188 446.7315625 60.3671875 447.60546875 C64.00003187 454.58715663 63.78072506 464.36682684 61.765625 471.90625 C58.28974253 479.56274712 52.09265726 485.86576742 44.19140625 488.91015625 C36.19284149 491.07381687 28.39699879 490.27410871 20.56640625 487.91015625 C19.98246094 488.65458984 19.98246094 488.65458984 19.38671875 489.4140625 C11.9295858 498.46915251 1.40564307 506.56573539 -10.53125 508.19677734 C-23.90838241 509.35128203 -34.75177401 506.67510321 -45.21484375 497.91796875 C-73.54854274 472.27796649 -85.85094338 434.85059734 -95.43359375 398.91015625 C-100.89913845 399.55501188 -106.17119229 400.72966477 -111.52832031 401.97998047 C-139.78740874 408.54140497 -169.82060286 413.11003531 -198.43359375 405.91015625 C-202.61702658 404.95795699 -204.8705348 404.61417403 -208.62109375 406.78515625 C-215.44369516 410.6338032 -222.52007473 411.07702915 -230.1640625 409.26171875 C-237.81319933 406.48668306 -244.1096803 401.99423839 -247.87109375 394.66015625 C-251.54824637 386.41541943 -251.95871259 376.92100535 -248.74609375 368.41015625 C-246.07486348 362.72332107 -243.32777939 358.76356969 -237.49609375 356.09765625 C-232.39974573 353.1255804 -231.39508008 348.12632187 -229.71411133 342.83129883 C-222.67990086 320.70338152 -208.09965545 301.09714531 -192.515625 284.17578125 C-190.60918935 282.10123589 -188.76593765 279.98749694 -186.93359375 277.84765625 C-182.99191748 273.3124099 -178.72398789 269.11299133 -174.43359375 264.91015625 C-175.78590562 261.88038196 -177.28839918 259.82543012 -179.6640625 257.51953125 C-180.61720337 256.58403442 -180.61720337 256.58403442 -181.58959961 255.62963867 C-182.25999268 254.97970947 -182.93038574 254.32978027 -183.62109375 253.66015625 C-195.72102023 241.74153441 -195.72102023 241.74153441 -198.43359375 237.91015625 C-198.43359375 237.25015625 -198.43359375 236.59015625 -198.43359375 235.91015625 C-199.48546875 236.38453125 -200.53734375 236.85890625 -201.62109375 237.34765625 C-209.51197103 240.70009309 -216.82995623 240.60977968 -224.9453125 237.9375 C-233.14865324 234.5505634 -237.66505273 228.81235646 -241.43359375 220.91015625 C-243.93285165 213.48904691 -243.61059629 204.33832095 -240.18359375 197.34765625 C-235.22400511 188.80536193 -235.22400511 188.80536193 -231.43359375 186.91015625 C-231.56636719 186.27851563 -231.69914062 185.646875 -231.8359375 184.99609375 C-235.15415541 168.18701907 -235.85179941 153.69240105 -226.16015625 138.9765625 C-216.44538996 126.36982821 -199.86159226 122.47432872 -184.90478516 120.30053711 C-179.11973289 119.64993234 -173.37546782 119.56997756 -167.55859375 119.59765625 C-165.66185913 119.60611572 -165.66185913 119.60611572 -163.72680664 119.61474609 C-140.40565172 119.91153141 -116.74505729 124.13240061 -94.43359375 130.91015625 C-94.32474854 130.24153564 -94.21590332 129.57291504 -94.10375977 128.8840332 C-88.99947774 99.05222477 -76.11728007 61.01491062 -53.91015625 39.4609375 C-47.84037239 33.51561293 -46.68437014 29.77189229 -46.57421875 21.30859375 C-46.27720698 14.13080939 -43.57185064 8.76466172 -38.74609375 3.53515625 C-27.80035677 -6.35002486 -12.72049783 -7.3207763 0 0 Z M-33.21875 10.8515625 C-37.8238208 16.76303636 -39.11735034 21.46342544 -38.43359375 28.91015625 C-36.52913873 34.82399025 -33.74195849 39.86694055 -28.390625 43.171875 C-21.89426134 46.35855941 -16.39729126 46.97747975 -9.37109375 44.91015625 C-3.65459241 42.54237463 -0.06578514 37.67778512 3.00390625 32.47265625 C4.44226453 25.9201352 4.10132848 20.58253653 0.765625 14.6953125 C-2.40847015 9.97035653 -6.05447325 6.76839788 -11.43359375 4.91015625 C-19.83376531 3.93862724 -27.26455181 4.37620911 -33.21875 10.8515625 Z M-46.7109375 44.015625 C-67.87476259 67.79231756 -81.64374116 102.69412594 -86.43359375 133.91015625 C-85.5199707 134.21083008 -84.60634766 134.51150391 -83.66503906 134.82128906 C-64.09494576 141.28608679 -45.01342725 148.22769589 -26.24316406 156.77197266 C-19.9758912 159.48546296 -19.9758912 159.48546296 -13.36108398 159.1184082 C-11.81723022 158.39077271 -11.81723022 158.39077271 -10.2421875 157.6484375 C-9.06414551 157.11138184 -7.88610352 156.57432617 -6.67236328 156.02099609 C-6.05315002 155.7277948 -5.43393677 155.43459351 -4.79595947 155.13250732 C-1.49480509 153.57210816 1.83872741 152.08428319 5.171875 150.59375 C6.20166473 150.13104706 6.20166473 150.13104706 7.2522583 149.65899658 C14.68708716 146.35114157 22.28557541 143.53398927 29.94140625 140.78515625 C30.57225128 140.5580899 31.20309631 140.33102356 31.85305786 140.09707642 C34.75914734 139.05238009 37.66732205 138.01373353 40.57714844 136.97949219 C44.25622066 135.66339154 47.9134914 134.29699489 51.56640625 132.91015625 C44.57011063 102.2004548 33.99363498 65.56255445 10.56640625 42.91015625 C8.42767232 42.07766663 8.42767232 42.07766663 6.56640625 41.91015625 C6.07140625 42.63203125 5.57640625 43.35390625 5.06640625 44.09765625 C-0.21035133 50.03400853 -6.79478514 53.2803924 -14.70703125 54.1640625 C-22.68512593 54.55415861 -29.80042935 52.33226585 -36.43359375 47.91015625 C-38.43359375 45.91015625 -38.43359375 45.91015625 -40.05859375 43.66015625 C-40.73921875 42.79390625 -40.73921875 42.79390625 -41.43359375 41.91015625 C-44.58337414 41.5707286 -44.58337414 41.5707286 -46.7109375 44.015625 Z M111.56640625 109.91015625 C108.4768254 115.10328151 107.53865188 120.97854529 108.56640625 126.91015625 C110.54599069 132.8049188 113.21689753 137.71609562 118.6171875 141.0078125 C124.37180038 143.67177157 129.60283639 144.58081822 135.71875 142.671875 C141.6107416 140.24282984 145.3624274 136.50654051 148.6484375 131.14453125 C150.83422962 125.82422022 150.64265531 118.8109477 148.65625 113.45703125 C145.3321656 107.85632313 141.17141584 103.86989663 135.00390625 101.59765625 C125.74752388 99.74637978 117.7599911 102.66792211 111.56640625 109.91015625 Z M-219.43359375 145.91015625 C-224.84669857 154.41646382 -226.68881731 162.41510412 -224.76171875 172.38671875 C-224.02588078 175.57303599 -223.25545232 178.74502235 -222.43359375 181.91015625 C-221.55058594 181.86375 -220.66757813 181.81734375 -219.7578125 181.76953125 C-209.88189764 181.47251125 -202.59605052 182.79320122 -194.12109375 187.91015625 C-188.00168708 193.77979122 -185.06289186 201.70689321 -184.80859375 210.03515625 C-185.19268618 218.513294 -188.06322617 224.78482917 -192.43359375 231.91015625 C-184.53862253 241.39834688 -176.28923671 250.3116126 -167.43359375 258.91015625 C-162.5274501 255.35079713 -157.84823792 251.60279243 -153.24609375 247.66015625 C-146.81800966 242.1732414 -140.1827348 236.99439862 -133.43359375 231.91015625 C-132.6334082 231.30526367 -131.83322266 230.70037109 -131.00878906 230.07714844 C-128.33994886 228.0604051 -125.66856516 226.04708484 -122.99609375 224.03515625 C-122.14329834 223.39223633 -121.29050293 222.74931641 -120.41186523 222.08691406 C-119.59532471 221.47428711 -118.77878418 220.86166016 -117.9375 220.23046875 C-116.85190796 219.41473389 -116.85190796 219.41473389 -115.74438477 218.58251953 C-113.43359375 216.91015625 -113.43359375 216.91015625 -110.27563477 215.35083008 C-106.01816864 211.69462452 -106.05754303 207.93757124 -105.45703125 202.5390625 C-105.31963531 201.50692123 -105.18223938 200.47477997 -105.04067993 199.41136169 C-104.60473791 196.10114385 -104.20528009 192.78778616 -103.80859375 189.47265625 C-103.2639236 185.16014642 -102.70478646 180.84957155 -102.14453125 176.5390625 C-102.01012634 175.48272614 -101.87572144 174.42638977 -101.73724365 173.33804321 C-100.68652888 165.27396614 -99.29751992 157.30965596 -97.68417358 149.33998108 C-97.43952866 148.13129616 -97.43952866 148.13129616 -97.18994141 146.89819336 C-97.0438443 146.19681747 -96.89774719 145.49544159 -96.7472229 144.77281189 C-96.35057366 142.73190928 -96.35057366 142.73190928 -96.43359375 139.91015625 C-120.01065266 133.53550861 -143.15577562 128.59759838 -167.68359375 128.47265625 C-168.93180908 128.46242432 -170.18002441 128.45219238 -171.46606445 128.44165039 C-189.11219595 128.60948523 -207.40384194 131.94154334 -219.43359375 145.91015625 Z M157.56640625 129.91015625 C157.03853516 130.99683594 157.03853516 130.99683594 156.5 132.10546875 C151.86905818 141.17389268 147.23185376 146.50935065 137.56640625 149.91015625 C129.19600198 152.21201742 120.84868365 150.86418246 113.32421875 146.65625 C107.52361663 142.63960664 103.79620452 137.59955106 101.56640625 130.91015625 C88.59374589 132.23482931 76.15021177 135.61299449 63.56640625 138.91015625 C64.19137056 144.16802403 64.95165636 149.36557807 65.87109375 154.58203125 C66.12628221 156.05320878 66.38089778 157.52448576 66.63500977 158.99584961 C66.76674591 159.75735321 66.89848206 160.51885681 67.03421021 161.30343628 C67.1685849 162.08115387 67.30295959 162.85887146 67.44140625 163.66015625 C67.5777951 164.44907257 67.71418396 165.23798889 67.85470581 166.05081177 C69.92547367 178.11949378 71.53932984 190.11508968 72.36474609 202.34082031 C72.82998776 208.48214548 72.82998776 208.48214548 75.66015625 213.8125 C76.61921875 214.50472656 77.57828125 215.19695312 78.56640625 215.91015625 C79.44510376 216.5602063 79.44510376 216.5602063 80.34155273 217.22338867 C82.36983312 218.70126345 84.43133048 220.12016627 86.50390625 221.53515625 C94.43574676 227.04266671 102.05229832 232.8494135 109.56640625 238.91015625 C111.01466797 240.06644531 111.01466797 240.06644531 112.4921875 241.24609375 C119.08400872 246.56057479 125.35743086 252.15754655 131.56640625 257.91015625 C134.63860577 256.53849537 136.7618528 254.97127148 139.140625 252.6015625 C139.80368652 251.94260986 140.46674805 251.28365723 141.14990234 250.60473633 C141.84422363 249.9011499 142.53854492 249.19756348 143.25390625 248.47265625 C143.97143066 247.74908936 144.68895508 247.02552246 145.42822266 246.2800293 C150.86126547 240.74555493 155.83380507 235.05895248 160.56640625 228.91015625 C161.35015625 227.94335938 162.13390625 226.9765625 162.94140625 225.98046875 C178.91165739 206.12836305 192.60777786 183.13393007 190.56640625 156.91015625 C188.96325358 149.1784959 184.86375298 143.58238124 178.56640625 138.91015625 C171.85052197 134.98287444 165.10094344 131.88737238 157.56640625 129.91015625 Z M-88.43359375 141.91015625 C-91.53541676 155.33032753 -93.99387823 168.75391309 -95.74609375 182.41015625 C-95.83290405 183.07491974 -95.91971436 183.73968323 -96.00915527 184.42459106 C-96.89699524 191.28456529 -97.66952927 197.98938093 -97.43359375 204.91015625 C-96.76932373 204.4817041 -96.10505371 204.05325195 -95.4206543 203.61181641 C-88.77895111 199.35307652 -82.06422954 195.25466597 -75.24609375 191.28515625 C-74.22306152 190.68904541 -73.2000293 190.09293457 -72.14599609 189.47875977 C-57.81873994 181.18075397 -43.28716929 173.22793436 -28.43359375 165.91015625 C-28.43359375 165.25015625 -28.43359375 164.59015625 -28.43359375 163.91015625 C-48.12076098 155.49879131 -68.06008295 148.45270581 -88.43359375 141.91015625 Z M45.40625 143.9296875 C44.79210236 144.14426605 44.17795471 144.3588446 43.54519653 144.57992554 C41.52914322 145.28786253 39.51632024 146.00444385 37.50390625 146.72265625 C36.81932343 146.96537262 36.1347406 147.20808899 35.42941284 147.4581604 C21.56355055 152.38691087 8.03307579 157.97413299 -5.43359375 163.91015625 C-5.43359375 164.57015625 -5.43359375 165.23015625 -5.43359375 165.91015625 C-4.41523438 166.37164062 -3.396875 166.833125 -2.34765625 167.30859375 C20.72202686 177.88610691 42.21971562 191.24135072 63.56640625 204.91015625 C65.11141391 201.82014093 64.19908501 198.78387455 63.74609375 195.46484375 C63.6471431 194.71036453 63.54819244 193.95588531 63.44624329 193.17854309 C63.11918602 190.71294835 62.78118799 188.24902763 62.44140625 185.78515625 C62.32858307 184.95279449 62.21575989 184.12043274 62.09951782 183.2628479 C60.20266445 169.33236346 57.78341818 155.60366232 54.56640625 141.91015625 C51.07342259 141.91015625 48.70648955 142.77551966 45.40625 143.9296875 Z M-25.42578125 173.04296875 C-26.83585449 173.74679688 -26.83585449 173.74679688 -28.27441406 174.46484375 C-29.27569336 174.98304688 -30.27697266 175.50125 -31.30859375 176.03515625 C-32.88785645 176.83953125 -32.88785645 176.83953125 -34.49902344 177.66015625 C-45.08094255 183.11935731 -55.3529794 189.08049087 -65.56591797 195.19628906 C-68.36968435 196.87196078 -71.18325044 198.52986013 -74 200.18359375 C-78.14280898 202.62181143 -82.25164428 205.10920157 -86.34082031 207.63623047 C-88.23503195 208.7892865 -90.15110954 209.88670053 -92.08203125 210.9765625 C-95.02193549 212.78660637 -97.14941769 214.33159281 -99.43359375 216.91015625 C-100.16852157 219.62475783 -100.16852157 219.62475783 -100.19482422 222.65625 C-100.24725281 223.81294189 -100.2996814 224.96963379 -100.35369873 226.16137695 C-100.49491912 232.78762305 -100.57697427 239.40774454 -100.56640625 246.03515625 C-100.56708239 247.55485042 -100.56805498 249.07454448 -100.56930542 250.59423828 C-100.57076783 253.7574976 -100.56867524 256.92072841 -100.56396484 260.08398438 C-100.55826847 264.10114818 -100.56155536 268.11824513 -100.56753731 272.13540649 C-100.57118259 275.26701342 -100.56998628 278.39860497 -100.56740952 281.5302124 C-100.56675117 283.00990812 -100.56752956 284.48960533 -100.56988907 285.96929932 C-101.77358376 301.87158783 -101.77358376 301.87158783 -96.93359375 315.83984375 C-95.27650837 316.87996518 -95.27650837 316.87996518 -93.43359375 317.78515625 C-92.78205322 318.16551025 -92.1305127 318.54586426 -91.45922852 318.93774414 C-89.97536127 319.80160362 -88.48041059 320.64660181 -86.97705078 321.47607422 C-84.15124268 323.06935477 -81.402445 324.76224585 -78.6484375 326.4765625 C-66.94843357 333.72280803 -55.08245916 340.32993741 -42.6953125 346.3203125 C-39.08156364 348.07245351 -35.53734349 349.91326524 -32.015625 351.84375 C-31.14921387 352.31643311 -30.28280273 352.78911621 -29.39013672 353.27612305 C-27.75651086 354.17368314 -26.12877952 355.08208956 -24.50830078 356.00317383 C-23.7811084 356.40044678 -23.05391602 356.79771973 -22.3046875 357.20703125 C-21.6748999 357.56120117 -21.0451123 357.91537109 -20.39624023 358.28027344 C-15.98519379 359.69593457 -12.03041236 357.40432558 -8.1015625 355.4609375 C-6.55094116 354.69414673 -6.55094116 354.69414673 -4.96899414 353.91186523 C-3.86418701 353.35442627 -2.75937988 352.7969873 -1.62109375 352.22265625 C-0.4705249 351.64394775 0.68004395 351.06523926 1.86547852 350.46899414 C19.60404858 341.47286464 36.9054205 331.32335287 53.43310547 320.25 C55.56640625 318.91015625 55.56640625 318.91015625 58.06298828 317.7265625 C60.75104758 316.33137968 62.51300638 315.14536286 64.56640625 312.91015625 C65.27183585 309.99918721 65.27183585 309.99918721 65.30981445 306.68969727 C65.39231697 304.81056137 65.39231697 304.81056137 65.47648621 302.89346313 C65.62692218 296.22940203 65.71005377 289.57159895 65.69921875 282.90625 C65.69989514 281.41040532 65.70086793 279.91456074 65.70211792 278.41871643 C65.7035787 275.30851173 65.70149284 272.19833605 65.69677734 269.08813477 C65.69107605 265.13938051 65.69437202 261.1906942 65.70034981 257.24194241 C65.7039953 254.16094976 65.70279878 251.07997273 65.70022202 247.99897957 C65.69956399 246.54440363 65.70034089 245.08982617 65.70270157 243.635252 C65.71156933 236.6406225 65.64072364 229.64779695 65.30297852 222.66040039 C65.256819 221.64200577 65.21065948 220.62361115 65.1631012 219.57435608 C64.42535698 216.28038143 63.24017545 215.13473983 60.6484375 213.03515625 C58.92015865 211.94729114 57.16090113 210.90759924 55.37890625 209.91015625 C54.43635986 209.33531494 53.49381348 208.76047363 52.52270508 208.16821289 C49.55987896 206.37412931 46.56517182 204.64331113 43.56640625 202.91015625 C41.74831933 201.80959992 39.93312255 200.70425255 38.12109375 199.59375 C24.88249952 191.54307433 11.27938704 184.11754175 -2.43359375 176.91015625 C-3.47870117 176.34538574 -4.52380859 175.78061523 -5.60058594 175.19873047 C-6.64633789 174.64846191 -7.69208984 174.09819336 -8.76953125 173.53125 C-9.71103027 173.02907959 -10.6525293 172.52690918 -11.62255859 172.00952148 C-16.7763056 169.99394716 -20.57586621 170.60040805 -25.42578125 173.04296875 Z M-231.28125 199.12890625 C-234.63759858 204.31702474 -235.24207898 209.88233601 -234.43359375 215.91015625 C-232.24690292 223.09873868 -227.43975425 227.52811487 -221.12109375 231.28515625 C-214.44413643 232.83793702 -208.2810296 232.68667833 -202.25390625 229.24609375 C-197.73733167 225.93135447 -193.74929002 221.43608059 -192.43359375 215.91015625 C-191.64257977 208.31642209 -193.29267933 203.12152788 -197.55859375 196.72265625 C-201.59999767 192.1957984 -207.41596534 189.77049328 -213.43359375 189.41015625 C-220.86256891 189.86891766 -226.80414823 193.2751887 -231.28125 199.12890625 Z M74.56640625 223.91015625 C74.56640625 250.64015625 74.56640625 277.37015625 74.56640625 304.91015625 C78.37170838 303.3880354 80.39579871 302.49986542 83.4296875 300.109375 C84.14366699 299.55096924 84.85764648 298.99256348 85.59326172 298.41723633 C86.72465576 297.51654419 86.72465576 297.51654419 87.87890625 296.59765625 C89.06444092 295.66312622 89.06444092 295.66312622 90.27392578 294.7097168 C92.71060926 292.78377814 95.13926577 290.84810178 97.56640625 288.91015625 C98.2948877 288.33168945 99.02336914 287.75322266 99.77392578 287.15722656 C108.69135022 280.06705858 117.28587674 272.73588395 125.56640625 264.91015625 C112.76542281 251.99343155 98.84328999 241.02571177 84.25390625 230.22265625 C82.98921509 229.28522583 82.98921509 229.28522583 81.69897461 228.32885742 C80.91659424 227.75369385 80.13421387 227.17853027 79.328125 226.5859375 C78.62647217 226.06942627 77.92481934 225.55291504 77.2019043 225.02075195 C75.75801407 223.81652688 75.75801407 223.81652688 74.56640625 223.91015625 Z M-118.18359375 230.22265625 C-119.04597656 230.85840576 -119.90835938 231.49415527 -120.796875 232.14916992 C-126.89557785 236.68286473 -132.76413708 241.40259108 -138.50390625 246.37890625 C-141.39865449 248.87996873 -144.34037683 251.30947176 -147.30859375 253.72265625 C-151.40577681 257.05799122 -155.44127292 260.45014486 -159.43359375 263.91015625 C-147.98229295 278.14690859 -132.698998 288.8062916 -118.12109375 299.59765625 C-117.27804688 300.2225293 -116.435 300.84740234 -115.56640625 301.49121094 C-114.78394531 302.06645508 -114.00148437 302.64169922 -113.1953125 303.234375 C-112.14283325 304.00914185 -112.14283325 304.00914185 -111.0690918 304.79956055 C-109.62520157 306.00378562 -109.62520157 306.00378562 -108.43359375 305.91015625 C-108.43359375 278.85015625 -108.43359375 251.79015625 -108.43359375 223.91015625 C-111.55250662 223.91015625 -115.76071656 228.43523116 -118.18359375 230.22265625 Z M130.0078125 272.34375 C129.38777344 273.00503906 128.76773438 273.66632813 128.12890625 274.34765625 C123.76314413 278.81494773 119.07283733 282.7033171 114.19580078 286.59716797 C112.4296048 288.02039272 110.68275761 289.46524708 108.9375 290.9140625 C101.04199733 297.44309323 92.99093893 303.63480212 84.59350586 309.50878906 C83.8794458 310.01249023 83.16538574 310.51619141 82.4296875 311.03515625 C81.80360596 311.47085938 81.17752441 311.9065625 80.5324707 312.35546875 C75.81246687 316.08786468 73.11557222 318.51492748 72.36532593 324.73303223 C72.29761993 325.47468628 72.22991394 326.21634033 72.16015625 326.98046875 C72.06964996 327.76675659 71.97914368 328.55304443 71.88589478 329.36315918 C71.69374714 331.04668734 71.51104348 332.73131569 71.3369751 334.41680908 C70.88136245 338.825861 70.35958982 343.2270269 69.83984375 347.62890625 C69.73775604 348.5060025 69.63566833 349.38309875 69.53048706 350.28677368 C68.46235021 359.23412673 66.83779461 368.02648413 65.00195312 376.84814453 C64.79892578 377.85087402 64.59589844 378.85360352 64.38671875 379.88671875 C64.20383301 380.74346191 64.02094727 381.60020508 63.83251953 382.48291016 C63.53668054 385.18128745 63.90578796 387.2905034 64.56640625 389.91015625 C76.7536898 393.16924226 88.92562662 396.16423027 101.37890625 398.22265625 C102.81556641 398.46097168 102.81556641 398.46097168 104.28125 398.70410156 C127.12220732 402.32270727 158.04909195 405.2798075 178.06640625 391.09765625 C179.26376028 390.06986216 180.43129545 389.00630443 181.56640625 387.91015625 C182.20191406 387.32492187 182.83742188 386.7396875 183.4921875 386.13671875 C189.4407758 380.10191902 191.49350084 373.08054484 192.00390625 364.72265625 C191.51345082 352.80245689 186.96808692 341.36064399 181.56640625 330.91015625 C181.11523438 330.00007813 180.6640625 329.09 180.19921875 328.15234375 C172.39107406 313.0213063 161.10738542 299.76385913 149.69140625 287.2578125 C147.73110141 285.09210807 145.83321287 282.8855627 143.94140625 280.66015625 C140.81322523 277.072592 137.48613448 273.64052103 133.56640625 270.91015625 C131.45880085 270.68449738 131.45880085 270.68449738 130.0078125 272.34375 Z M-168.91650391 273.02075195 C-169.43003418 273.53726318 -169.94356445 274.05377441 -170.47265625 274.5859375 C-171.04854492 275.16102051 -171.62443359 275.73610352 -172.21777344 276.32861328 C-172.82524414 276.95364746 -173.43271484 277.57868164 -174.05859375 278.22265625 C-174.68668945 278.86058105 -175.31478516 279.49850586 -175.96191406 280.15576172 C-180.33210419 284.64603668 -184.41517057 289.29275644 -188.296875 294.21484375 C-190.58208588 297.09746808 -192.97265525 299.87127428 -195.37109375 302.66015625 C-207.50693454 317.26079571 -217.15965712 333.59016586 -222.43359375 351.91015625 C-221.16515625 352.14798828 -221.16515625 352.14798828 -219.87109375 352.390625 C-209.30285528 354.5643195 -201.58983117 357.7429242 -195.43359375 366.91015625 C-191.86241369 373.13613809 -191.59908289 379.8914807 -192.43359375 386.91015625 C-193.49945481 390.70757466 -194.84309354 394.30312898 -196.43359375 397.91015625 C-194.76905587 398.3966664 -193.10181646 398.8739354 -191.43359375 399.34765625 C-190.50546875 399.61449219 -189.57734375 399.88132812 -188.62109375 400.15625 C-159.29972727 407.0913281 -123.23462303 399.73260193 -95.43359375 389.91015625 C-95.58916748 389.15549072 -95.74474121 388.4008252 -95.9050293 387.62329102 C-96.51784958 384.60956455 -97.11741975 381.59353612 -97.70785522 378.5753479 C-97.98388167 377.17083583 -98.26337669 375.76700109 -98.54629517 374.36386108 C-100.36395544 365.28944382 -101.66033672 356.35142046 -102.27734375 347.11328125 C-102.53592499 328.15353437 -102.53592499 328.15353437 -110.375 311.875 C-114.24543131 308.94025063 -118.43732192 306.96522502 -122.90136719 305.09277344 C-127.1606547 303.10357283 -130.66043792 300.21464714 -134.30859375 297.28515625 C-135.0056543 296.74511963 -135.70271484 296.20508301 -136.42089844 295.64868164 C-145.5113917 288.60537434 -154.25553053 281.15704973 -162.62890625 273.2734375 C-164.95252064 271.51815303 -166.50675371 271.21601806 -168.91650391 273.02075195 Z M-98.43359375 323.91015625 C-97.040753 338.2496512 -95.32618734 352.46559777 -92.87109375 366.66015625 C-92.66137939 367.87791748 -92.45166504 369.09567871 -92.2355957 370.3503418 C-91.2364592 375.97556314 -90.16207887 381.46184371 -88.43359375 386.91015625 C-80.72257578 384.92602915 -73.22960859 382.56244683 -65.74609375 379.84765625 C-64.68334229 379.46424072 -63.62059082 379.0808252 -62.52563477 378.68579102 C-51.00460954 374.47421341 -39.70408456 369.74645958 -28.43359375 364.91015625 C-28.43359375 364.25015625 -28.43359375 363.59015625 -28.43359375 362.91015625 C-29.50951782 362.39183228 -29.50951782 362.39183228 -30.60717773 361.86303711 C-48.12432967 353.37936281 -64.9077309 344.22564435 -81.43359375 333.91015625 C-82.29662109 333.37213379 -83.15964844 332.83411133 -84.04882812 332.27978516 C-90.18208683 328.45075429 -90.18208683 328.45075429 -92.93066406 326.70214844 C-95.49497293 324.76078398 -95.49497293 324.76078398 -98.43359375 323.91015625 Z M54.75390625 328.66015625 C53.0861814 329.68268957 51.41820421 330.70481142 49.75 331.7265625 C47.24378729 333.26413639 44.73878623 334.80344483 42.23876953 336.35107422 C26.73613627 345.93774469 10.69923426 354.44607935 -5.43359375 362.91015625 C-5.43359375 363.57015625 -5.43359375 364.23015625 -5.43359375 364.91015625 C17.82344209 374.29885933 17.82344209 374.29885933 41.44140625 382.72265625 C42.92640625 383.21862305 42.92640625 383.21862305 44.44140625 383.72460938 C49.40332011 385.391181 49.40332011 385.391181 54.56640625 385.91015625 C57.74505772 372.2851218 60.17070385 358.66360591 61.87890625 344.78515625 C62.0091217 343.73932373 62.0091217 343.73932373 62.14196777 342.67236328 C62.91665784 336.39341333 63.6737657 330.24496342 63.56640625 323.91015625 C60.80100692 323.91015625 57.15164584 327.17692313 54.75390625 328.66015625 Z M-238.43359375 368.91015625 C-242.0998533 374.36774782 -243.50040788 379.3759197 -242.43359375 385.91015625 C-240.75169866 392.2593102 -237.90065346 396.13192606 -232.4375 399.75390625 C-226.60360989 403.12004947 -221.89610689 403.32818971 -215.43359375 401.91015625 C-209.18551604 399.3868941 -204.48158706 396.00614286 -201.43359375 389.91015625 C-199.70161466 384.04807319 -199.48998838 378.26186445 -202.12109375 372.66015625 C-205.28769498 367.07138285 -209.30310121 363.02796276 -215.43359375 360.91015625 C-225.22363629 359.92711209 -231.87772649 361.14662924 -238.43359375 368.91015625 Z M-23.01953125 371.82421875 C-23.93202637 372.24912598 -24.84452148 372.6740332 -25.78466797 373.11181641 C-27.28151123 373.81636963 -27.28151123 373.81636963 -28.80859375 374.53515625 C-40.42349599 379.84243987 -52.27821474 384.26686451 -64.30859375 388.53515625 C-65.18473328 388.84624329 -66.0608728 389.15733032 -66.96356201 389.47784424 C-80.03140625 394.10942708 -80.03140625 394.10942708 -85.43359375 395.91015625 C-84.00925722 404.69008025 -81.35953974 413.05390724 -78.55859375 421.47265625 C-78.31982513 422.19270844 -78.08105652 422.91276062 -77.83505249 423.65463257 C-71.72051089 441.94469862 -64.34812806 460.56143264 -52.43359375 475.91015625 C-51.63179687 476.95300781 -50.83 477.99585938 -50.00390625 479.0703125 C-42.66839262 488.36168268 -34.75902392 495.13501286 -23.43359375 498.91015625 C-11.80889186 500.1329944 -3.6813512 497.86120932 5.46484375 490.61328125 C8.94242339 487.56417131 11.99478013 484.76759543 14.56640625 480.91015625 C13.45265625 479.98203125 13.45265625 479.98203125 12.31640625 479.03515625 C7.17649824 473.80738656 5.33455631 467.09472851 5.06640625 459.91015625 C5.38679276 451.59078659 8.17377806 444.50455664 13.8515625 438.37890625 C19.9624519 433.1449782 26.93140946 431.76440062 34.75390625 431.34765625 C35.50349609 431.30447266 36.25308594 431.26128906 37.02539062 431.21679688 C38.87219 431.1109294 40.71927459 431.01005865 42.56640625 430.91015625 C43.86314314 427.07851951 45.15286909 423.24455747 46.44140625 419.41015625 C46.98861328 417.79367187 46.98861328 417.79367187 47.546875 416.14453125 C51.22585219 405.75085314 51.22585219 405.75085314 52.56640625 394.91015625 C51.71860596 394.63977539 50.87080566 394.36939453 49.99731445 394.09082031 C34.2007998 389.02114731 18.56100476 383.76552578 3.25390625 377.34765625 C2.63585114 377.08867554 2.01779602 376.82969482 1.38101196 376.56286621 C-8.72295718 372.31230207 -8.72295718 372.31230207 -11.46948242 370.75805664 C-15.70104338 368.93130572 -19.02381538 369.90257679 -23.01953125 371.82421875 Z M17.19140625 446.28515625 C13.47167322 451.04601021 12.05947247 455.66375239 12.2578125 461.765625 C13.23129287 468.53069743 16.39883852 473.63819237 21.78515625 477.7578125 C26.97327474 481.11416108 32.53858601 481.71864148 38.56640625 480.91015625 C45.75498868 478.72346542 50.18436487 473.91631675 53.94140625 467.59765625 C55.49418702 460.92069893 55.34292833 454.7575921 51.90234375 448.73046875 C48.59607574 444.2254369 44.08497466 440.19354425 38.56640625 438.91015625 C29.73743527 437.92915947 23.27158553 439.66157931 17.19140625 446.28515625 Z " fill="#fefefe" transform="translate(281.43359375,4.08984375)"/>
<path d="M0 0 C8.23466022 6.47009017 14.62965662 14.58694724 16.625 25.0625 C17.52890516 36.69472214 15.97682521 46.70563155 8.625 56.0625 C1.48748046 63.74905951 -6.75305349 69.47022135 -17.44140625 70.30078125 C-29.52422131 70.55728794 -38.99668165 67.98522418 -48 59.625 C-56.70103064 50.23704589 -59.77092249 41.43547541 -59.65234375 28.734375 C-58.93366729 19.21950356 -54.478702 9.89645031 -47.52734375 3.3125 C-33.20938433 -8.07355123 -15.82215121 -9.0830868 0 0 Z M-44.375 15.0625 C-49.95049729 22.25195704 -51.33552602 29.12596045 -50.375 38.0625 C-48.37365489 46.19970555 -44.02004916 52.8595673 -37.09765625 57.6328125 C-30.16608449 61.66950154 -23.03977048 63.3682776 -15.0703125 61.53125 C-6.58914101 58.90408577 -0.48747601 54.31808464 4.625 47.0625 C8.2761477 40.04303998 8.9397072 31.9679129 6.8984375 24.3515625 C3.36756598 14.79237374 -2.36532778 9.56001117 -11.375 5.0625 C-24.2495985 0.7881333 -35.47148039 5.79557143 -44.375 15.0625 Z " fill="#fefefe" transform="translate(285.375,235.9375)"/>
</svg>
