<?xml version="1.0" encoding="UTF-8"?>
<svg version="1.1" xmlns="http://www.w3.org/2000/svg" width="512" height="512">
<path d="M0 0 C0.63389145 0.31555847 1.2677829 0.63111694 1.92088318 0.95623779 C4.00172425 1.99689446 6.07026788 3.0598225 8.1394043 4.12353516 C9.60635011 4.86321764 11.0739902 5.60152466 12.5422821 6.33853149 C16.4072364 8.28341504 20.26205875 10.24760853 24.11517334 12.21582031 C27.97051893 14.18051653 31.83578287 16.12548616 35.69995117 18.07275391 C48.26010656 24.41128276 60.78900286 30.80075346 73.20881653 37.4107666 C79.98105999 40.99326689 86.84465854 44.38746675 93.71362305 47.77978516 C95.47968147 48.65339188 95.47968147 48.65339188 97.28141785 49.54464722 C102.15038765 51.952324 107.01972223 54.35913969 111.8972168 56.74951172 C114.34456374 57.94924588 116.78918115 59.15423239 119.23095703 60.36526489 C121.50513821 61.49300926 123.7831562 62.61305837 126.06542969 63.72433472 C127.08499756 64.23231598 128.10456543 64.74029724 129.1550293 65.26367188 C130.05036377 65.70427948 130.94569824 66.14488708 131.86816406 66.59884644 C134.33343785 68.15249488 135.61905244 69.57634747 137.15112305 72.03759766 C137.5847168 74.03759766 137.5847168 74.03759766 137.58862305 76.03759766 C137.61762695 77.02759766 137.61762695 77.02759766 137.6472168 78.03759766 C136.91222863 81.00069957 135.49057421 82.09886814 133.15112305 84.03759766 C130.9383765 85.35241807 128.68473706 86.60011837 126.40112305 87.78759766 C125.79913086 88.10341797 125.19713867 88.41923828 124.5769043 88.74462891 C123.10509505 89.51557661 121.62857563 90.27752089 120.15112305 91.03759766 C123.29999459 94.65087112 127.50946917 96.768927 131.58862305 99.16455078 C136.04925788 101.83386733 136.04925788 101.83386733 137.15112305 104.03759766 C137.49567239 107.04009907 137.71242045 109.1356901 137.15112305 112.03759766 C132.63641837 117.16239756 126.15426448 119.92920948 120.15112305 123.03759766 C123.29999459 126.65087112 127.50946917 128.768927 131.58862305 131.16455078 C136.04925788 133.83386733 136.04925788 133.83386733 137.15112305 136.03759766 C137.50862737 139.82714347 137.66812454 142.19573892 135.64746094 145.48608398 C132.41972454 148.78516204 129.00800652 150.52645078 124.8972168 152.54931641 C124.08229263 152.96244583 123.26736847 153.37557526 122.42774963 153.80122375 C119.82015367 155.12033206 117.20482782 156.42316043 114.58862305 157.72509766 C112.03962649 159.00676354 109.49233776 160.29177993 106.94509888 161.57693481 C105.24173796 162.43592947 103.53769258 163.29356813 101.83297729 164.14987183 C93.55796759 168.31310113 85.36622961 172.6287064 77.18069458 176.96450806 C72.68182441 179.34318292 68.1652125 181.68798212 63.65112305 184.03759766 C55.87709582 188.08863127 48.11298121 192.15776169 40.35864258 196.24633789 C36.06236216 198.50998406 31.76169754 200.76492799 27.45581055 203.01025391 C26.4800708 203.51911133 25.50433105 204.02796875 24.49902344 204.55224609 C22.53055391 205.57713702 20.56100288 206.59995366 18.59033203 207.62060547 C14.09043747 209.95594082 9.6149831 212.31720837 5.1940918 214.79931641 C4.43241699 215.22140381 3.67074219 215.64349121 2.88598633 216.07836914 C1.49230461 216.85415084 0.10575604 217.64297181 -1.27124023 218.44799805 C-5.72410452 220.90958016 -9.73912822 222.01554 -14.84887695 221.03759766 C-18.11520074 219.8628958 -21.10923302 218.30724495 -24.16137695 216.66259766 C-25.03528076 216.20852539 -25.90918457 215.75445312 -26.80957031 215.28662109 C-29.49769368 213.88555328 -32.17365695 212.46311631 -34.84887695 211.03759766 C-36.37420945 210.23676629 -37.90021825 209.43722133 -39.42700195 208.63916016 C-42.48993131 207.03526247 -45.54766268 205.42194101 -48.6027832 203.80322266 C-54.83171021 200.50990637 -61.09115378 197.27575971 -67.34887695 194.03759766 C-75.81792541 189.6532125 -84.27487851 185.24799544 -92.70825195 180.79541016 C-99.24123997 177.3493151 -105.79389142 173.94163169 -112.34887695 170.53759766 C-116.51595273 168.37171711 -120.68254468 166.20490803 -124.84887695 164.03759766 C-125.75299316 163.56757324 -126.65710938 163.09754883 -127.58862305 162.61328125 C-133.02448274 159.78392295 -138.44664514 156.93067104 -143.84887695 154.03759766 C-144.55238281 153.66231934 -145.25588867 153.28704102 -145.98071289 152.90039062 C-147.96526332 151.83447545 -149.93974147 150.75217892 -151.91137695 149.66259766 C-153.01610352 149.05673828 -154.12083008 148.45087891 -155.2590332 147.82666016 C-157.90383165 145.99963499 -158.89878302 145.06602208 -159.84887695 142.03759766 C-159.78637695 138.53759766 -159.78637695 138.53759766 -158.84887695 135.03759766 C-155.28940195 131.72585168 -151.32345335 129.53939536 -147.03637695 127.28759766 C-145.87493164 126.67400391 -144.71348633 126.06041016 -143.5168457 125.42822266 C-142.63641602 124.96931641 -141.75598633 124.51041016 -140.84887695 124.03759766 C-141.35338379 123.75561523 -141.85789062 123.47363281 -142.37768555 123.18310547 C-144.66620812 121.89571267 -146.9449673 120.59192537 -149.22387695 119.28759766 C-150.4149707 118.62244141 -150.4149707 118.62244141 -151.63012695 117.94384766 C-152.77094727 117.28642578 -152.77094727 117.28642578 -153.93481445 116.61572266 C-154.98741455 116.01872559 -154.98741455 116.01872559 -156.0612793 115.40966797 C-158.17443381 113.78771654 -158.93915817 112.52853655 -159.84887695 110.03759766 C-159.78637695 106.53759766 -159.78637695 106.53759766 -158.84887695 103.03759766 C-155.28940195 99.72585168 -151.32345335 97.53939536 -147.03637695 95.28759766 C-145.87493164 94.67400391 -144.71348633 94.06041016 -143.5168457 93.42822266 C-142.63641602 92.96931641 -141.75598633 92.51041016 -140.84887695 92.03759766 C-144.71852087 88.96383795 -148.92118387 86.81403476 -153.2902832 84.53759766 C-155.60318887 83.18163464 -157.22627665 82.15495806 -158.84887695 80.03759766 C-159.55421338 74.57124035 -159.55421338 74.57124035 -158.84887695 72.03759766 C-155.35727867 68.05920823 -151.68346451 65.60540693 -146.97338867 63.32397461 C-145.96468719 62.82028099 -145.96468719 62.82028099 -144.93560791 62.30641174 C-142.72114435 61.20345219 -140.49997824 60.11476283 -138.27856445 59.02587891 C-136.71650171 58.25079517 -135.15491512 57.47475115 -133.59378052 56.69779968 C-129.47899555 54.6527662 -125.35854406 52.61942912 -121.23657227 50.58892822 C-114.70284489 47.36761398 -108.17821628 44.12785617 -101.6523571 40.89064026 C-100.06783441 40.10481032 -98.48312341 39.31935998 -96.89822578 38.5342865 C-86.97414832 33.61788065 -77.10508896 28.62448726 -67.33129883 23.41430664 C-58.73141937 18.83430311 -50.04152953 14.42652246 -41.34716797 10.02929688 C-39.20041221 8.93987879 -37.05690729 7.84403386 -34.91650391 6.7421875 C-31.77262483 5.12473788 -28.61882021 3.52836255 -25.4621582 1.93603516 C-24.51311111 1.442435 -23.56406403 0.94883484 -22.58625793 0.4402771 C-21.68719223 -0.00794403 -20.78812653 -0.45616516 -19.86181641 -0.91796875 C-19.08417435 -1.31416412 -18.30653229 -1.7103595 -17.50532532 -2.11856079 C-10.89257117 -4.21915375 -6.03997689 -3.05930286 0 0 Z M-18.71606445 17.88525391 C-19.31846954 18.20038437 -19.92087463 18.51551483 -20.54153442 18.8401947 C-21.88494915 19.54328272 -23.22656389 20.24981746 -24.56665039 20.95922852 C-28.41849916 22.99631422 -32.28593964 25.00332334 -36.15356445 27.01025391 C-37.03002625 27.46542389 -37.90648804 27.92059387 -38.80950928 28.38955688 C-46.93464533 32.59425711 -55.10908388 36.69742306 -63.29418945 40.78369141 C-63.97072445 41.12147173 -64.64725945 41.45925205 -65.3442955 41.80726814 C-71.53074786 44.89512136 -77.71953062 47.97828935 -83.90985107 51.05838013 C-87.82792513 53.00798508 -91.74517513 54.95923451 -95.66137695 56.91259766 C-96.59560675 57.37855504 -96.59560675 57.37855504 -97.54870987 57.8539257 C-108.06125487 63.10186099 -118.48112454 68.50976758 -128.84887695 74.03759766 C-129.83887695 74.53259766 -129.83887695 74.53259766 -130.84887695 75.03759766 C-130.84887695 75.69759766 -130.84887695 76.35759766 -130.84887695 77.03759766 C-129.9487085 77.50020996 -129.04854004 77.96282227 -128.12109375 78.43945312 C-97.95876683 93.94365399 -97.95876683 93.94365399 -85.97070312 100.2890625 C-78.7875001 104.08513539 -71.56792882 107.81034855 -64.34887695 111.53759766 C-56.12721642 115.78322219 -47.91032372 120.0368085 -39.72387695 124.35009766 C-38.98967529 124.73528564 -38.25547363 125.12047363 -37.49902344 125.51733398 C-33.51624383 127.6113636 -29.55593298 129.74095665 -25.6105957 131.90478516 C-24.74128418 132.3761792 -23.87197266 132.84757324 -22.97631836 133.33325195 C-21.30772434 134.23870165 -19.644293 135.15375313 -17.98706055 136.07983398 C-17.24149902 136.48226318 -16.4959375 136.88469238 -15.7277832 137.29931641 C-15.07366455 137.65985107 -14.4195459 138.02038574 -13.74560547 138.3918457 C-10.62561624 139.45406369 -8.59012948 138.36677476 -5.67675781 137.07299805 C-4.89695557 136.68104248 -4.11715332 136.28908691 -3.3137207 135.88525391 C-2.43208252 135.44383057 -1.55044434 135.00240723 -0.64208984 134.54760742 C0.30029541 134.0699292 1.24268066 133.59225098 2.21362305 133.10009766 C3.68810913 132.35747681 3.68810913 132.35747681 5.19238281 131.59985352 C12.91938361 127.69431455 20.59159647 123.69025552 28.2409668 119.63525391 C33.69727599 116.74295377 39.17395567 113.89014739 44.65112305 111.03759766 C52.42070938 106.98867639 60.18092997 102.92269092 67.93041992 98.83544922 C72.30039197 96.53245551 76.67595971 94.24063431 81.05737305 91.95947266 C82.06993164 91.43224609 83.08249023 90.90501953 84.12573242 90.36181641 C86.07444888 89.34782966 88.02363172 88.33473848 89.97338867 87.32275391 C96.41019581 83.97359553 102.7928241 80.53343223 109.15112305 77.03759766 C109.15112305 76.37759766 109.15112305 75.71759766 109.15112305 75.03759766 C90.37714493 65.34412129 71.56814386 55.72262943 52.66674805 46.27978516 C52.005532 45.94943142 51.34431595 45.61907768 50.66306305 45.27871323 C44.04940554 41.97517836 37.43350787 38.67616735 30.81453323 35.38329887 C28.31328054 34.13864683 25.81262792 32.89279372 23.31223297 31.64641953 C21.51932561 30.7529088 19.72594407 29.86034975 17.93255615 28.96780396 C10.57493978 25.29226902 3.26964071 21.53446219 -3.90515137 17.51153564 C-9.82614819 14.26724818 -12.90075315 14.80370074 -18.71606445 17.88525391 Z M-123.84106445 102.05712891 C-124.79239258 102.64880859 -125.7437207 103.24048828 -126.72387695 103.85009766 C-127.69067383 104.43404297 -128.6574707 105.01798828 -129.65356445 105.61962891 C-130.74024414 106.32152344 -130.74024414 106.32152344 -131.84887695 107.03759766 C-129.19713982 110.13619724 -126.04843993 111.64534901 -122.44262695 113.47900391 C-121.81038208 113.80273483 -121.17813721 114.12646576 -120.5267334 114.46000671 C-118.47003755 115.5118661 -116.40945857 116.55587434 -114.34887695 117.60009766 C-112.92404903 118.32760513 -111.4995713 119.05579885 -110.07543945 119.78466797 C-107.95098088 120.87194983 -105.82637153 121.95891598 -103.70068359 123.04379272 C-98.395455 125.75184676 -93.11314128 128.50066855 -87.84887695 131.28759766 C-81.1090868 134.84901486 -74.35820956 138.38839501 -67.59887695 141.91259766 C-66.63691406 142.4142041 -65.67495117 142.91581055 -64.68383789 143.43261719 C-61.7389932 144.96788384 -58.79396835 146.50280432 -55.84887695 148.03759766 C-52.90155721 149.57355226 -49.95430424 151.10963392 -47.00732422 152.64624023 C-45.08360246 153.649198 -43.15961573 154.65164773 -41.23535156 155.65356445 C-36.58701935 158.07625129 -31.9468198 160.51256921 -27.3215332 162.97900391 C-26.45044922 163.44226074 -25.57936523 163.90551758 -24.68188477 164.3828125 C-23.04771794 165.25308073 -21.41543049 166.12689085 -19.78540039 167.00488281 C-18.69727051 167.58375244 -18.69727051 167.58375244 -17.5871582 168.17431641 C-16.95849854 168.51164795 -16.32983887 168.84897949 -15.68212891 169.1965332 C-11.88243792 170.94192914 -11.88243792 170.94192914 -7.86035156 170.3918457 C-7.16433838 170.03131104 -6.4683252 169.67077637 -5.7512207 169.29931641 C-4.56459839 168.69543091 -4.56459839 168.69543091 -3.35400391 168.0793457 C-2.50668701 167.63244385 -1.65937012 167.18554199 -0.78637695 166.72509766 C0.10412354 166.26723877 0.99462402 165.80937988 1.91210938 165.33764648 C4.66544149 163.91730185 7.40917794 162.47978309 10.15112305 161.03759766 C11.70577912 160.22503752 13.26046497 159.41253436 14.81518555 158.60009766 C17.8934742 156.9866154 20.96674786 155.36394638 24.0378418 153.73681641 C29.89251101 150.6387833 35.77199264 147.58888188 41.65112305 144.53759766 C49.7460446 140.33433632 57.829389 136.11056648 65.89575195 131.8527832 C72.59085014 128.32286072 79.30797788 124.83591366 86.02612305 121.35009766 C94.44037085 116.98322564 102.83300155 112.58527839 111.15112305 108.03759766 C108.10213874 104.81253219 105.13958903 102.99684411 101.15112305 101.03759766 C98.17813717 101.44543743 95.71866506 102.63072533 93.0534668 103.97119141 C92.26222412 104.36741699 91.47098145 104.76364258 90.65576172 105.171875 C89.80860596 105.60193848 88.9614502 106.03200195 88.08862305 106.47509766 C87.19957275 106.92320801 86.31052246 107.37131836 85.39453125 107.83300781 C77.93067898 111.60951496 70.52325048 115.48932272 63.1315918 119.40478516 C57.65107796 122.30733394 52.15144811 125.17281654 46.65112305 128.03759766 C40.40985053 131.29009905 34.17080869 134.54648421 27.9453125 137.82910156 C26.42414182 138.6303993 24.90185293 139.42957805 23.37841797 140.2265625 C18.94103462 142.55057108 14.53216355 144.9192306 10.1394043 147.32666016 C8.08084201 148.43869757 6.0222487 149.55067756 3.96362305 150.66259766 C3.00713867 151.19626953 2.0506543 151.72994141 1.06518555 152.27978516 C-0.30573242 153.01455078 -0.30573242 153.01455078 -1.7043457 153.76416016 C-2.50509521 154.20324707 -3.30584473 154.64233398 -4.13085938 155.09472656 C-9.26624525 156.87617453 -13.77191033 156.7508052 -18.66845703 154.54394531 C-19.99380992 153.8631999 -21.31022608 153.16484606 -22.6184082 152.45166016 C-23.68933968 151.89310837 -23.68933968 151.89310837 -24.78190613 151.32327271 C-27.08345951 150.11827797 -29.37216384 148.89084808 -31.66137695 147.66259766 C-33.25499153 146.82288724 -34.84939751 145.98467712 -36.44458008 145.14794922 C-40.27051322 143.1370723 -44.0872356 141.10948446 -47.9006958 139.07507324 C-51.16472895 137.33685978 -54.44111486 135.62236569 -57.71679688 133.90625 C-59.85726968 132.78319419 -61.99387323 131.65302998 -64.13012695 130.52197266 C-70.18435489 127.32461678 -76.26848868 124.18482171 -82.34887695 121.03759766 C-91.23020063 116.4405504 -100.09942002 111.82241964 -108.9387207 107.14501953 C-110.29909574 106.4259283 -111.6627883 105.71305953 -113.03051758 105.00805664 C-114.72321277 104.10466467 -116.36171891 103.10170288 -117.9934082 102.09228516 C-120.86286902 100.69142704 -120.86286902 100.69142704 -123.84106445 102.05712891 Z M-123.84106445 134.05712891 C-124.79239258 134.64880859 -125.7437207 135.24048828 -126.72387695 135.85009766 C-127.69067383 136.43404297 -128.6574707 137.01798828 -129.65356445 137.61962891 C-130.74024414 138.32152344 -130.74024414 138.32152344 -131.84887695 139.03759766 C-129.19713982 142.13619724 -126.04843993 143.64534901 -122.44262695 145.47900391 C-121.81038208 145.80273483 -121.17813721 146.12646576 -120.5267334 146.46000671 C-118.47003755 147.5118661 -116.40945857 148.55587434 -114.34887695 149.60009766 C-112.92404903 150.32760513 -111.4995713 151.05579885 -110.07543945 151.78466797 C-107.95098088 152.87194983 -105.82637153 153.95891598 -103.70068359 155.04379272 C-98.395455 157.75184676 -93.11314128 160.50066855 -87.84887695 163.28759766 C-81.1090868 166.84901486 -74.35820956 170.38839501 -67.59887695 173.91259766 C-66.63691406 174.4142041 -65.67495117 174.91581055 -64.68383789 175.43261719 C-61.7389932 176.96788384 -58.79396835 178.50280432 -55.84887695 180.03759766 C-52.90155721 181.57355226 -49.95430424 183.10963392 -47.00732422 184.64624023 C-45.08360246 185.649198 -43.15961573 186.65164773 -41.23535156 187.65356445 C-36.58701935 190.07625129 -31.9468198 192.51256921 -27.3215332 194.97900391 C-26.45044922 195.44226074 -25.57936523 195.90551758 -24.68188477 196.3828125 C-23.04771794 197.25308073 -21.41543049 198.12689085 -19.78540039 199.00488281 C-18.69727051 199.58375244 -18.69727051 199.58375244 -17.5871582 200.17431641 C-16.95849854 200.51164795 -16.32983887 200.84897949 -15.68212891 201.1965332 C-11.88243792 202.94192914 -11.88243792 202.94192914 -7.86035156 202.3918457 C-7.16433838 202.03131104 -6.4683252 201.67077637 -5.7512207 201.29931641 C-4.56459839 200.69543091 -4.56459839 200.69543091 -3.35400391 200.0793457 C-2.50668701 199.63244385 -1.65937012 199.18554199 -0.78637695 198.72509766 C0.10412354 198.26723877 0.99462402 197.80937988 1.91210938 197.33764648 C4.66544149 195.91730185 7.40917794 194.47978309 10.15112305 193.03759766 C11.70577912 192.22503752 13.26046497 191.41253436 14.81518555 190.60009766 C17.8934742 188.9866154 20.96674786 187.36394638 24.0378418 185.73681641 C29.89251101 182.6387833 35.77199264 179.58888188 41.65112305 176.53759766 C49.7460446 172.33433632 57.829389 168.11056648 65.89575195 163.8527832 C72.59085014 160.32286072 79.30797788 156.83591366 86.02612305 153.35009766 C94.44037085 148.98322564 102.83300155 144.58527839 111.15112305 140.03759766 C108.10213874 136.81253219 105.13958903 134.99684411 101.15112305 133.03759766 C98.17813717 133.44543743 95.71866506 134.63072533 93.0534668 135.97119141 C92.26222412 136.36741699 91.47098145 136.76364258 90.65576172 137.171875 C89.80860596 137.60193848 88.9614502 138.03200195 88.08862305 138.47509766 C87.19957275 138.92320801 86.31052246 139.37131836 85.39453125 139.83300781 C77.92649508 143.6116319 70.51477566 147.49323868 63.11987305 151.41259766 C59.62814308 153.26214965 56.12739109 155.09316389 52.61987305 156.91259766 C43.01105818 161.89760962 33.44805427 166.94435384 23.96362305 172.16259766 C16.76653132 176.09837609 9.55904546 180.01257656 2.27612305 183.78759766 C1.07306519 184.43365967 1.07306519 184.43365967 -0.15429688 185.09277344 C-1.29862183 185.67647705 -1.29862183 185.67647705 -2.46606445 186.27197266 C-3.12203613 186.61454102 -3.77800781 186.95710938 -4.45385742 187.31005859 C-10.46142884 189.13498854 -15.18138901 188.33501964 -20.60639954 185.54855347 C-21.2703624 185.18657867 -21.93432526 184.82460388 -22.6184082 184.45166016 C-23.68933968 183.89310837 -23.68933968 183.89310837 -24.78190613 183.32327271 C-27.08345951 182.11827797 -29.37216384 180.89084808 -31.66137695 179.66259766 C-33.25499153 178.82288724 -34.84939751 177.98467712 -36.44458008 177.14794922 C-40.27051322 175.1370723 -44.0872356 173.10948446 -47.9006958 171.07507324 C-51.16472895 169.33685978 -54.44111486 167.62236569 -57.71679688 165.90625 C-59.85726968 164.78319419 -61.99387323 163.65302998 -64.13012695 162.52197266 C-70.18435489 159.32461678 -76.26848868 156.18482171 -82.34887695 153.03759766 C-91.23020063 148.4405504 -100.09942002 143.82241964 -108.9387207 139.14501953 C-110.29909574 138.4259283 -111.6627883 137.71305953 -113.03051758 137.00805664 C-114.72321277 136.10466467 -116.36171891 135.10170288 -117.9934082 134.09228516 C-120.86286902 132.69142704 -120.86286902 132.69142704 -123.84106445 134.05712891 Z " fill="#fefefe" transform="translate(266.848876953125,198.96240234375)"/>
<path d="M0 0 C0.09156742 35.1519654 0.16204475 70.30390666 0.20426132 105.45596623 C0.20926411 109.6065493 0.2144414 113.75713213 0.21972656 117.90771484 C0.22130043 119.14716756 0.22130043 119.14716756 0.22290608 120.41165972 C0.24030848 133.78876823 0.27184526 147.16580794 0.30861118 160.54287565 C0.34602521 174.27030063 0.36823683 187.99768959 0.37635398 201.72516346 C0.3818408 210.19489555 0.39916667 218.66443316 0.43166587 227.13410538 C0.45281947 232.94309889 0.45919814 238.75199193 0.45400551 244.56102115 C0.45144496 247.91201214 0.45754374 251.26238977 0.4768219 254.61336708 C0.49671764 258.24984009 0.49193956 261.88548046 0.48101807 265.52197266 C0.49266943 266.5764626 0.5043208 267.63095255 0.51632524 268.71739674 C0.45579597 276.1718683 -1.00142481 281.57816668 -5.96484375 287.2421875 C-6.61582031 287.78101563 -7.26679688 288.31984375 -7.9375 288.875 C-8.58589844 289.42929687 -9.23429687 289.98359375 -9.90234375 290.5546875 C-14.90502336 294.00159896 -19.52165651 294.28425079 -25.45979309 294.24050903 C-26.73414429 294.24307231 -26.73414429 294.24307231 -28.03423995 294.24568737 C-30.87943928 294.24898019 -33.72440249 294.23798193 -36.56958008 294.22705078 C-38.60970046 294.22648662 -40.64982126 294.22680332 -42.68994141 294.22793579 C-48.22876039 294.22851012 -53.76749294 294.21674272 -59.30629182 294.20278788 C-65.09454553 294.19029397 -70.88280117 294.18911107 -76.67106628 294.18673706 C-87.63216078 294.18051836 -98.59321544 294.16410223 -109.55429238 294.14403808 C-122.03300453 294.12169125 -134.51171856 294.11068871 -146.99044573 294.10064721 C-172.66032 294.07973636 -198.33015609 294.04415038 -224 294 C-224 299.28 -224 304.56 -224 310 C-222.80922852 309.97905273 -221.61845703 309.95810547 -220.39160156 309.93652344 C-215.97115111 309.86409038 -211.55075304 309.81818828 -207.12988281 309.78027344 C-205.21703265 309.76016548 -203.30424389 309.73287493 -201.39160156 309.69824219 C-198.64112189 309.64968751 -195.89145523 309.62702342 -193.140625 309.609375 C-192.28631897 309.58872986 -191.43201294 309.56808472 -190.55181885 309.54681396 C-184.60856561 309.54457095 -184.60856561 309.54457095 -181.46191406 311.89941406 C-179.88302412 314.16807957 -179.45726221 315.26478144 -179.5 318 C-179.4896875 318.66 -179.479375 319.32 -179.46875 320 C-180.24777865 322.93281375 -181.66558353 324.09524219 -184 326 C-186.72991943 326.50336456 -186.72991943 326.50336456 -189.92089844 326.50793457 C-191.73793274 326.52485352 -191.73793274 326.52485352 -193.5916748 326.54211426 C-194.9309106 326.53433734 -196.27014403 326.52614468 -197.609375 326.51757812 C-199.02218345 326.52299928 -200.43498624 326.53012191 -201.84777832 326.53881836 C-205.68253943 326.55705583 -209.51687015 326.54998271 -213.35163879 326.53730202 C-217.36432049 326.52717643 -221.37696529 326.53656646 -225.38964844 326.54284668 C-232.12832253 326.55012439 -238.86682128 326.54053222 -245.60546875 326.52148438 C-253.39681424 326.49971527 -261.18774105 326.50676657 -268.97907639 326.52879 C-275.66794799 326.54694055 -282.35669354 326.54950405 -289.04558182 326.53903532 C-293.04083367 326.53279845 -297.03588871 326.53196994 -301.03112793 326.54518127 C-304.78726301 326.55673429 -308.5428582 326.54872481 -312.29893494 326.52560425 C-313.6775981 326.52031411 -315.05630668 326.52183624 -316.43495178 326.53065491 C-318.31631856 326.54157998 -320.19778461 326.52545207 -322.07910156 326.50793457 C-323.65863617 326.50567242 -323.65863617 326.50567242 -325.27008057 326.50336456 C-328.68543879 325.87361327 -329.8674593 324.68403792 -332 322 C-332.53125 320 -332.53125 320 -332.5 318 C-332.5103125 317.34 -332.520625 316.68 -332.53125 316 C-331.71779837 312.93759386 -330.54617313 311.90546623 -328 310 C-324.95030761 309.44105881 -321.95080334 309.53466761 -318.859375 309.609375 C-317.97719299 309.61503479 -317.09501099 309.62069458 -316.18609619 309.62652588 C-313.37350787 309.64888409 -310.56220205 309.69907868 -307.75 309.75 C-305.84116426 309.77006575 -303.93230851 309.78831639 -302.0234375 309.8046875 C-297.34846555 309.848747 -292.67445008 309.91777016 -288 310 C-288 304.72 -288 299.44 -288 294 C-290.57554687 294.00888245 -293.15109375 294.01776489 -295.8046875 294.0269165 C-320.05437821 294.10863641 -344.30405077 294.16817443 -368.55384827 294.20724869 C-381.02146847 294.2278721 -393.48898762 294.25598865 -405.95654297 294.30175781 C-416.82351944 294.34163212 -427.69042272 294.36743442 -438.55747032 294.37635398 C-444.31127355 294.38156767 -450.0648674 294.39381749 -455.81860352 294.42292023 C-461.23582681 294.4500985 -466.65275475 294.45844001 -472.07003975 294.45243073 C-474.05659147 294.45352987 -476.04315322 294.46146924 -478.02964592 294.4768219 C-480.74660557 294.4967875 -483.4624569 294.49191527 -486.17944336 294.48101807 C-486.96156693 294.49266943 -487.74369049 294.5043208 -488.54951477 294.51632524 C-495.12834906 294.44523198 -500.28138991 292.38233602 -505.2421875 288.03515625 C-505.78101563 287.38417969 -506.31984375 286.73320312 -506.875 286.0625 C-507.42929687 285.41410156 -507.98359375 284.76570313 -508.5546875 284.09765625 C-511.21785805 280.23246008 -512.25033586 276.7449535 -512.24609566 272.07436657 C-512.25007775 271.10299415 -512.25405985 270.13162173 -512.25816262 269.13081378 C-512.25233693 268.07147626 -512.24651125 267.01213873 -512.24050903 265.92070007 C-512.24221788 264.7893675 -512.24392673 263.65803492 -512.24568737 262.49241954 C-512.24898703 258.6936942 -512.23797052 254.89514468 -512.22705078 251.09643555 C-512.22537358 248.37651965 -512.22671492 245.65660722 -512.22793579 242.93669128 C-512.22898432 237.07686727 -512.22271108 231.21708781 -512.21146011 225.35727501 C-512.19520372 216.88498365 -512.18999696 208.41271383 -512.18748413 199.94040857 C-512.18310725 186.19455379 -512.16979832 172.44872275 -512.15087891 158.70288086 C-512.13251994 145.35034301 -512.11836351 131.9978116 -512.10986328 118.64526367 C-512.10933783 117.82216651 -512.10881239 116.99906935 -512.10827102 116.15102985 C-512.10566094 112.02177939 -512.10313352 107.89252889 -512.10064721 103.76327837 C-512.07991492 69.50883499 -512.04454086 35.25442045 -512 1 C-508.7 1.99 -505.4 2.98 -502 4 C-503 9 -503 9 -504.0390625 11.859375 C-506.6247305 20.31009479 -505.85179185 29.70018424 -502.36328125 37.75390625 C-500.99585337 40.20417171 -500.99585337 40.20417171 -498.45390606 42.56589413 C-495.15058841 46.52277004 -495.30368475 50.20696504 -495.3742218 55.19178772 C-495.36380498 56.56625939 -495.36380498 56.56625939 -495.35317773 57.96849817 C-495.33593543 61.03419156 -495.35421396 64.09863353 -495.37231445 67.16430664 C-495.36713578 69.36395372 -495.3597359 71.56359652 -495.35028076 73.76322937 C-495.33471381 78.49741495 -495.33489172 83.23124648 -495.34728432 87.96544075 C-495.36680744 95.44870477 -495.35163971 102.93165331 -495.33183289 110.41490173 C-495.30776289 120.9036561 -495.29965018 131.39232782 -495.30541992 141.88110352 C-495.31128366 152.67050194 -495.31235224 163.45987019 -495.3034668 174.24926758 C-495.30292423 174.91395123 -495.30238165 175.57863488 -495.30182264 176.26346046 C-495.29240524 187.34571743 -495.27483849 198.4279568 -495.25385827 209.51019758 C-495.24076834 216.95181946 -495.23953942 224.39332391 -495.2479912 231.83495152 C-495.2516109 236.46007848 -495.247322 241.08517533 -495.2411499 245.71029854 C-495.24006262 247.85774343 -495.24243645 250.00519323 -495.2484951 252.15262985 C-495.25635945 255.08023959 -495.25207487 258.00759039 -495.24482727 260.93519592 C-495.2501726 261.78811142 -495.25551794 262.64102691 -495.26102525 263.51978832 C-495.26292572 269.52863123 -495.26292572 269.52863123 -493 275 C-488.80787689 277.23166977 -484.79119982 277.28144314 -480.15226746 277.25168228 C-479.36459083 277.25458916 -478.5769142 277.25749604 -477.76536858 277.26049101 C-475.11588141 277.26781203 -472.4666243 277.26083786 -469.81713867 277.25396729 C-467.90247828 277.25627088 -465.98781877 277.25944673 -464.07316113 277.26342177 C-458.80375675 277.27179226 -453.53442457 277.26763428 -448.26501989 277.26144934 C-442.58533577 277.25693506 -436.9056643 277.26390351 -431.22598267 277.26940918 C-420.09629603 277.27831579 -408.96663633 277.27637553 -397.83694863 277.2705839 C-388.79391524 277.2660724 -379.75088942 277.26545229 -370.70785522 277.26763153 C-369.42220867 277.267938 -368.13656212 277.26824446 -366.81195658 277.26856022 C-364.20042491 277.26919965 -361.58889323 277.26984807 -358.97736156 277.2705054 C-335.17146852 277.27604962 -311.36559181 277.27029402 -287.55970137 277.2598202 C-265.82136855 277.25032879 -244.08305917 277.25117803 -222.34472656 277.26074219 C-197.9292739 277.27144825 -173.51383719 277.27566305 -149.098382 277.26951766 C-146.49630292 277.26888054 -143.89422385 277.2682518 -141.29214478 277.26763153 C-139.37159178 277.2671687 -139.37159178 277.2671687 -137.41223973 277.26669653 C-128.37706735 277.2649676 -119.34190327 277.26788894 -110.30673218 277.27259064 C-99.30019677 277.27819212 -88.2936899 277.27669847 -77.28715777 277.26602915 C-71.66839829 277.26076257 -66.04968644 277.25873246 -60.43092728 277.26532745 C-55.2915905 277.27126862 -50.15234568 277.26804218 -45.0130173 277.25737235 C-43.14969939 277.25513052 -41.28637377 277.25629203 -39.42306077 277.26112393 C-36.89783961 277.26717205 -34.37293686 277.26100142 -31.84773254 277.25168228 C-31.11788056 277.25636461 -30.38802859 277.26104695 -29.63605988 277.26587117 C-25.66629115 277.23642675 -22.52847458 276.87844268 -19 275 C-16.29527671 270.7076672 -16.72717446 265.85489905 -16.76190186 260.94865417 C-16.75956334 259.57863919 -16.75956334 259.57863919 -16.75717759 258.18094712 C-16.75422135 255.1194958 -16.76539774 252.05825687 -16.77636719 248.99682617 C-16.7768914 246.80220034 -16.77645583 244.6075741 -16.77513123 242.41294861 C-16.77379715 237.68594091 -16.77821098 232.95898511 -16.78673553 228.23198509 C-16.79910912 220.75645587 -16.7921728 213.28102331 -16.78131104 205.80549622 C-16.76726904 195.32337545 -16.75588157 184.84126026 -16.75146484 174.35913086 C-16.75117909 173.69415914 -16.75089335 173.02918742 -16.75059894 172.34406505 C-16.74649524 161.57006525 -16.75771908 150.79612084 -16.77284035 140.02213343 C-16.78781967 128.95226922 -16.7794308 117.88257821 -16.75222325 106.81273824 C-16.73792278 100.60064013 -16.73492432 94.38898023 -16.75844574 88.17690086 C-16.78056784 82.33347129 -16.77506898 76.49072253 -16.74846077 70.64731789 C-16.74368918 68.50435781 -16.74915806 66.36134643 -16.76569176 64.21844482 C-16.78680171 61.28890251 -16.77091964 58.36175811 -16.74603271 55.43229675 C-16.76845822 54.16500812 -16.76845822 54.16500812 -16.79133677 52.8721177 C-16.68943498 47.17901621 -15.18520165 44.10581512 -11.46327424 39.8029173 C-7.26802262 34.63389873 -5.97851244 27.52147498 -6 21 C-6.5088897 16.78614508 -7.13301672 12.69928722 -9.07421875 8.89453125 C-10 7 -10 7 -10 4 C-8.52184338 3.3310968 -7.04244528 2.66493641 -5.5625 2 C-4.73878906 1.62875 -3.91507812 1.2575 -3.06640625 0.875 C-1 0 -1 0 0 0 Z M-272 294 C-272 299.28 -272 304.56 -272 310 C-261.44 310 -250.88 310 -240 310 C-240 304.72 -240 299.44 -240 294 C-250.56 294 -261.12 294 -272 294 Z " fill="#fefefe" transform="translate(512,162)"/>
<path d="M0 0 C1.0725 -0.02900391 2.145 -0.05800781 3.25 -0.08789062 C9.84818783 -0.14070863 13.90697708 0.34505208 19.25 4.3125 C23.48353808 8.88026477 24.35300973 12.39534356 24.8125 18.5 C24.89628906 19.58667969 24.98007812 20.67335938 25.06640625 21.79296875 C25.12699219 22.62441406 25.18757812 23.45585938 25.25 24.3125 C27.16040052 25.1805908 29.07860737 26.03151783 31 26.875 C32.06734375 27.35066406 33.1346875 27.82632813 34.234375 28.31640625 C37.30619537 29.33106194 38.36651705 29.63154007 41.25 28.3125 C43.14001425 26.95816679 43.14001425 26.95816679 44.875 25.3125 C49.72115001 20.91075676 53.33749782 20.83899887 59.86328125 20.91796875 C68.34990147 21.90660617 74.03900349 28.50935786 79.35546875 34.73828125 C83.29602958 40.09256906 84.75496739 44.74995814 83.875 51.375 C82.70129927 56.25153723 80.24839574 59.0674891 76.61328125 62.42578125 C74.98886012 64.2502171 74.98886012 64.2502171 75.4140625 66.7109375 C76.27920165 69.40337992 77.23214906 72.01124771 78.3125 74.625 C78.67472656 75.50800781 79.03695312 76.39101562 79.41015625 77.30078125 C79.68730469 77.96464844 79.96445312 78.62851563 80.25 79.3125 C81.03503906 79.33828125 81.82007813 79.3640625 82.62890625 79.390625 C90.80464959 79.83201482 95.88755491 80.68459872 101.625 86.875 C105.17784838 92.20427256 104.50754427 97.87814896 104.5625 104.0625 C104.59150391 105.135 104.62050781 106.2075 104.65039062 107.3125 C104.70320863 113.91068783 104.21744792 117.96947708 100.25 123.3125 C95.68223523 127.54603808 92.16715644 128.41550973 86.0625 128.875 C84.97582031 128.95878906 83.88914062 129.04257813 82.76953125 129.12890625 C81.93808594 129.18949219 81.10664063 129.25007812 80.25 129.3125 C79.3819092 131.22290052 78.53098217 133.14110737 77.6875 135.0625 C77.21183594 136.12984375 76.73617187 137.1971875 76.24609375 138.296875 C75.23143806 141.36869537 74.93095993 142.42901705 76.25 145.3125 C77.60433321 147.20251425 77.60433321 147.20251425 79.25 148.9375 C83.65099555 153.78282683 83.71377815 157.39571483 83.65625 163.91796875 C83.02153153 169.22152982 80.7334966 172.3916481 77.25 176.3125 C76.68539062 176.96089844 76.12078125 177.60929688 75.5390625 178.27734375 C69.79862632 184.4203897 65.18064764 187.51364917 56.6875 187.8125 C51.40232045 187.6427924 48.24544939 187.00060713 44.25 183.3125 C43.569375 182.549375 42.88875 181.78625 42.1875 181 C41.548125 180.443125 40.90875 179.88625 40.25 179.3125 C36.5679506 179.73976853 33.34768327 180.96545758 29.9375 182.375 C29.05449219 182.73722656 28.17148437 183.09945312 27.26171875 183.47265625 C26.59785156 183.74980469 25.93398438 184.02695313 25.25 184.3125 C25.22421875 185.09753906 25.1984375 185.88257813 25.171875 186.69140625 C24.73048518 194.86714959 23.87790128 199.95005491 17.6875 205.6875 C12.35822744 209.24034838 6.68435104 208.57004427 0.5 208.625 C-0.5725 208.65400391 -1.645 208.68300781 -2.75 208.71289062 C-9.34818783 208.76570863 -13.40697708 208.27994792 -18.75 204.3125 C-22.98353808 199.74473523 -23.85300973 196.22965644 -24.3125 190.125 C-24.43818359 188.49498047 -24.43818359 188.49498047 -24.56640625 186.83203125 C-24.62699219 186.00058594 -24.68757813 185.16914063 -24.75 184.3125 C-26.66040052 183.4444092 -28.57860737 182.59348217 -30.5 181.75 C-31.56734375 181.27433594 -32.6346875 180.79867187 -33.734375 180.30859375 C-36.80619537 179.29393806 -37.86651705 178.99345993 -40.75 180.3125 C-42.64001425 181.66683321 -42.64001425 181.66683321 -44.375 183.3125 C-49.22032683 187.71349555 -52.83321483 187.77627815 -59.35546875 187.71875 C-64.65902982 187.08403153 -67.8291481 184.7959966 -71.75 181.3125 C-72.72259766 180.46558594 -72.72259766 180.46558594 -73.71484375 179.6015625 C-79.13860755 174.53326737 -83.24752798 169.11313903 -83.84375 161.421875 C-83.63254668 156.66980028 -82.42268625 152.14705911 -79.17578125 148.5859375 C-78.62277344 148.08320313 -78.06976563 147.58046875 -77.5 147.0625 C-76.5925 146.155 -75.685 145.2475 -74.75 144.3125 C-75.06387219 140.62604033 -76.40726264 137.39976782 -77.8125 134 C-78.17472656 133.11699219 -78.53695313 132.23398438 -78.91015625 131.32421875 C-79.18730469 130.66035156 -79.46445312 129.99648437 -79.75 129.3125 C-80.53503906 129.28671875 -81.32007813 129.2609375 -82.12890625 129.234375 C-90.30464959 128.79298518 -95.38755491 127.94040128 -101.125 121.75 C-104.67784838 116.42072744 -104.00754427 110.74685104 -104.0625 104.5625 C-104.09150391 103.49 -104.12050781 102.4175 -104.15039062 101.3125 C-104.20320863 94.71431217 -103.71744792 90.65552292 -99.75 85.3125 C-95.18223523 81.07896192 -91.66715644 80.20949027 -85.5625 79.75 C-84.47582031 79.66621094 -83.38914062 79.58242187 -82.26953125 79.49609375 C-81.43808594 79.43550781 -80.60664063 79.37492187 -79.75 79.3125 C-78.85604671 77.40459968 -77.98540666 75.48576194 -77.125 73.5625 C-76.63773437 72.49515625 -76.15046875 71.4278125 -75.6484375 70.328125 C-74.48981703 67.45575882 -74.48981703 67.45575882 -75.40625 65.16796875 C-76.83988143 63.18839047 -78.35448522 61.28849807 -79.875 59.375 C-83.66980543 53.7571998 -84.02132105 47.89199922 -82.75 41.3125 C-80.10783928 36.54296574 -76.60068571 32.85599731 -72.75 29.0625 C-72.22921875 28.53398438 -71.7084375 28.00546875 -71.171875 27.4609375 C-66.32473588 22.63827888 -63.3947831 21.00840776 -56.5625 20.8125 C-49.88311491 20.8878031 -45.60772607 22.76132946 -40.75 27.3125 C-40.255 28.3025 -40.255 28.3025 -39.75 29.3125 C-36.08827525 28.68571829 -32.8681005 27.66798154 -29.4375 26.25 C-28.55449219 25.88777344 -27.67148437 25.52554688 -26.76171875 25.15234375 C-25.76591797 24.73662109 -25.76591797 24.73662109 -24.75 24.3125 C-24.72421875 23.52746094 -24.6984375 22.74242188 -24.671875 21.93359375 C-24.23048518 13.75785041 -23.37790128 8.67494509 -17.1875 2.9375 C-11.85822744 -0.61534838 -6.18435104 0.05495573 0 0 Z M-7.75 18.3125 C-7.90655027 19.79888992 -8.00066943 21.29199127 -8.06640625 22.78515625 C-8.10830078 23.68427734 -8.15019531 24.58339844 -8.19335938 25.50976562 C-8.23267578 26.45529297 -8.27199219 27.40082031 -8.3125 28.375 C-8.37727539 29.7990918 -8.37727539 29.7990918 -8.44335938 31.25195312 C-8.54979276 33.60531353 -8.65181008 35.95878354 -8.75 38.3125 C-9.65878906 38.5084375 -10.56757813 38.704375 -11.50390625 38.90625 C-19.66671712 40.84858038 -26.57309395 43.41423427 -33.82446289 47.66992188 C-37.19812605 49.62706273 -38.72865908 50.3125 -42.75 50.3125 C-45.44697561 47.81706469 -47.87886318 45.2214038 -50.328125 42.49023438 C-52.02814433 40.62326376 -52.02814433 40.62326376 -54.75 38.3125 C-58.27957737 38.73971834 -60.05546283 40.16018661 -62.5625 42.625 C-63.50029297 43.51638672 -63.50029297 43.51638672 -64.45703125 44.42578125 C-65.98208796 46.20189161 -65.98208796 46.20189161 -65.50097656 48.24194336 C-64.66573128 50.54484169 -63.77688902 51.63382853 -62.02734375 53.328125 C-61.48916016 53.85664062 -60.95097656 54.38515625 -60.39648438 54.9296875 C-59.83251953 55.46851563 -59.26855469 56.00734375 -58.6875 56.5625 C-58.11966797 57.11679688 -57.55183594 57.67109375 -56.96679688 58.2421875 C-55.56787531 59.60584214 -54.15980886 60.96010417 -52.75 62.3125 C-53.98353982 65.55478585 -55.3654721 68.51328544 -57.125 71.5 C-61.60414164 79.48053555 -64.22930807 87.3051568 -65.75 96.3125 C-66.65093384 96.30464478 -66.65093384 96.30464478 -67.57006836 96.29663086 C-70.27586838 96.27591986 -72.98165177 96.26285875 -75.6875 96.25 C-77.10579102 96.23743164 -77.10579102 96.23743164 -78.55273438 96.22460938 C-79.45185547 96.22138672 -80.35097656 96.21816406 -81.27734375 96.21484375 C-82.10999756 96.20960693 -82.94265137 96.20437012 -83.80053711 96.19897461 C-85.75516798 96.09606708 -85.75516798 96.09606708 -86.75 97.3125 C-86.84909302 99.64410055 -86.87970504 101.97879942 -86.875 104.3125 C-86.87757813 105.59125 -86.88015625 106.87 -86.8828125 108.1875 C-87.10860893 111.17937244 -87.10860893 111.17937244 -85.75 112.3125 C-84.2612814 112.39919432 -82.768555 112.41953494 -81.27734375 112.41015625 C-79.92866211 112.40532227 -79.92866211 112.40532227 -78.55273438 112.40039062 C-77.60720703 112.39201172 -76.66167969 112.38363281 -75.6875 112.375 C-74.2634082 112.36823242 -74.2634082 112.36823242 -72.81054688 112.36132812 C-70.45696935 112.3495011 -68.10351523 112.33302025 -65.75 112.3125 C-65.5540625 113.29347656 -65.358125 114.27445312 -65.15625 115.28515625 C-63.32533446 123.7547263 -60.8112322 130.95545095 -56.39257812 138.43774414 C-54.42442336 141.80062862 -53.75 143.28983003 -53.75 147.3125 C-56.24543531 150.00947561 -58.8410962 152.44136318 -61.57226562 154.890625 C-63.43923624 156.59064433 -63.43923624 156.59064433 -65.75 159.3125 C-65.32278166 162.84207737 -63.90231339 164.61796283 -61.4375 167.125 C-60.84324219 167.75019531 -60.24898438 168.37539062 -59.63671875 169.01953125 C-57.86060839 170.54458796 -57.86060839 170.54458796 -55.82055664 170.06347656 C-53.51765831 169.22823128 -52.42867147 168.33938902 -50.734375 166.58984375 C-50.20585937 166.05166016 -49.67734375 165.51347656 -49.1328125 164.95898438 C-48.59398437 164.39501953 -48.05515625 163.83105469 -47.5 163.25 C-46.94570313 162.68216797 -46.39140625 162.11433594 -45.8203125 161.52929688 C-44.45665786 160.13037531 -43.10239583 158.72230886 -41.75 157.3125 C-38.11028547 158.66080116 -34.74961406 160.35210211 -31.33007812 162.18164062 C-23.13850209 166.51929028 -15.96056691 168.77740552 -6.75 170.3125 C-6.75 177.2425 -6.75 184.1725 -6.75 191.3125 C-4.460625 191.333125 -2.17125 191.35375 0.1875 191.375 C1.47527344 191.38660156 2.76304687 191.39820313 4.08984375 191.41015625 C7.11298403 191.67782549 7.11298403 191.67782549 8.25 190.3125 C8.40655027 188.82611008 8.50066943 187.33300873 8.56640625 185.83984375 C8.60830078 184.94072266 8.65019531 184.04160156 8.69335938 183.11523438 C8.73267578 182.16970703 8.77199219 181.22417969 8.8125 180.25 C8.87727539 178.8259082 8.87727539 178.8259082 8.94335938 177.37304688 C9.04979276 175.01968647 9.15181008 172.66621646 9.25 170.3125 C10.15878906 170.1165625 11.06757813 169.920625 12.00390625 169.71875 C20.16671712 167.77641962 27.07309395 165.21076573 34.32446289 160.95507812 C37.69812605 158.99793727 39.22865908 158.3125 43.25 158.3125 C45.94697561 160.80793531 48.37886318 163.4035962 50.828125 166.13476562 C52.52814433 168.00173624 52.52814433 168.00173624 55.25 170.3125 C58.77957737 169.88528166 60.55546283 168.46481339 63.0625 166 C63.68769531 165.40574219 64.31289063 164.81148437 64.95703125 164.19921875 C66.48208796 162.42310839 66.48208796 162.42310839 66.00097656 160.38305664 C65.16573128 158.08015831 64.27688902 156.99117147 62.52734375 155.296875 C61.98916016 154.76835937 61.45097656 154.23984375 60.89648438 153.6953125 C60.33251953 153.15648437 59.76855469 152.61765625 59.1875 152.0625 C58.61966797 151.50820312 58.05183594 150.95390625 57.46679688 150.3828125 C56.06787531 149.01915786 54.65980886 147.66489583 53.25 146.3125 C54.60469549 142.66254324 56.2954025 139.2781763 58.11914062 135.84179688 C62.19904875 128.09220905 64.82030958 121.00978336 66.25 112.3125 C67.15093384 112.32035522 67.15093384 112.32035522 68.07006836 112.32836914 C70.77586838 112.34908014 73.48165177 112.36214125 76.1875 112.375 C77.60579102 112.38756836 77.60579102 112.38756836 79.05273438 112.40039062 C79.95185547 112.40361328 80.85097656 112.40683594 81.77734375 112.41015625 C82.60999756 112.41539307 83.44265137 112.42062988 84.30053711 112.42602539 C86.25516798 112.52893292 86.25516798 112.52893292 87.25 111.3125 C87.34909302 108.98089945 87.37970504 106.64620058 87.375 104.3125 C87.37757813 103.03375 87.38015625 101.755 87.3828125 100.4375 C87.60860893 97.44562756 87.60860893 97.44562756 86.25 96.3125 C84.76361008 96.15594973 83.27050873 96.06183057 81.77734375 95.99609375 C80.87822266 95.95419922 79.97910156 95.91230469 79.05273438 95.86914062 C78.10720703 95.82982422 77.16167969 95.79050781 76.1875 95.75 C74.7634082 95.68522461 74.7634082 95.68522461 73.31054688 95.61914062 C70.95718647 95.51270724 68.60371646 95.41068992 66.25 95.3125 C66.0540625 94.40371094 65.858125 93.49492188 65.65625 92.55859375 C63.71391962 84.39578288 61.14826573 77.48940605 56.89257812 70.23803711 C54.93543727 66.86437395 54.25 65.33384092 54.25 61.3125 C56.74543531 58.61552439 59.3410962 56.18363682 62.07226562 53.734375 C63.93923624 52.03435567 63.93923624 52.03435567 66.25 49.3125 C65.82278166 45.78292263 64.40231339 44.00703717 61.9375 41.5 C61.34324219 40.87480469 60.74898437 40.24960937 60.13671875 39.60546875 C58.36060839 38.08041204 58.36060839 38.08041204 56.32055664 38.56152344 C54.01765831 39.39676872 52.92867147 40.28561098 51.234375 42.03515625 C50.70585937 42.57333984 50.17734375 43.11152344 49.6328125 43.66601562 C49.09398437 44.22998047 48.55515625 44.79394531 48 45.375 C47.16855469 46.22674805 47.16855469 46.22674805 46.3203125 47.09570312 C44.95665786 48.49462469 43.60239583 49.90269114 42.25 51.3125 C38.61028547 49.96419884 35.24961406 48.27289789 31.83007812 46.44335938 C23.63850209 42.10570972 16.46056691 39.84759448 7.25 38.3125 C7.25 31.3825 7.25 24.4525 7.25 17.3125 C4.960625 17.291875 2.67125 17.27125 0.3125 17.25 C-0.97527344 17.23839844 -2.26304687 17.22679688 -3.58984375 17.21484375 C-6.61298403 16.94717451 -6.61298403 16.94717451 -7.75 18.3125 Z " fill="#fefefe" transform="translate(407.75,23.6875)"/>
<path d="M0 0 C1.0725 -0.02900391 2.145 -0.05800781 3.25 -0.08789062 C9.84818783 -0.14070863 13.90697708 0.34505208 19.25 4.3125 C23.48353808 8.88026477 24.35300973 12.39534356 24.8125 18.5 C24.89628906 19.58667969 24.98007813 20.67335938 25.06640625 21.79296875 C25.12699219 22.62441406 25.18757812 23.45585938 25.25 24.3125 C27.16040052 25.1805908 29.07860737 26.03151783 31 26.875 C32.06734375 27.35066406 33.1346875 27.82632813 34.234375 28.31640625 C37.30619537 29.33106194 38.36651705 29.63154007 41.25 28.3125 C43.14001425 26.95816679 43.14001425 26.95816679 44.875 25.3125 C49.72115001 20.91075676 53.33749782 20.83899887 59.86328125 20.91796875 C68.34990147 21.90660617 74.03900349 28.50935786 79.35546875 34.73828125 C83.29602958 40.09256906 84.75496739 44.74995814 83.875 51.375 C82.70129927 56.25153723 80.24839574 59.0674891 76.61328125 62.42578125 C74.98886012 64.2502171 74.98886012 64.2502171 75.4140625 66.7109375 C76.27920165 69.40337992 77.23214906 72.01124771 78.3125 74.625 C78.67472656 75.50800781 79.03695312 76.39101562 79.41015625 77.30078125 C79.68730469 77.96464844 79.96445313 78.62851563 80.25 79.3125 C81.03503906 79.33828125 81.82007813 79.3640625 82.62890625 79.390625 C90.80464959 79.83201482 95.88755491 80.68459872 101.625 86.875 C105.17784838 92.20427256 104.50754427 97.87814896 104.5625 104.0625 C104.59150391 105.135 104.62050781 106.2075 104.65039062 107.3125 C104.70320863 113.91068783 104.21744792 117.96947708 100.25 123.3125 C95.68223523 127.54603808 92.16715644 128.41550973 86.0625 128.875 C84.97582031 128.95878906 83.88914063 129.04257813 82.76953125 129.12890625 C81.93808594 129.18949219 81.10664063 129.25007812 80.25 129.3125 C79.3819092 131.22290052 78.53098217 133.14110737 77.6875 135.0625 C77.21183594 136.12984375 76.73617187 137.1971875 76.24609375 138.296875 C75.23143806 141.36869537 74.93095993 142.42901705 76.25 145.3125 C77.60433321 147.20251425 77.60433321 147.20251425 79.25 148.9375 C83.65099555 153.78282683 83.71377815 157.39571483 83.65625 163.91796875 C83.02153153 169.22152982 80.7334966 172.3916481 77.25 176.3125 C76.68539062 176.96089844 76.12078125 177.60929688 75.5390625 178.27734375 C69.79862632 184.4203897 65.18064764 187.51364917 56.6875 187.8125 C51.40232045 187.6427924 48.24544939 187.00060713 44.25 183.3125 C43.569375 182.549375 42.88875 181.78625 42.1875 181 C41.548125 180.443125 40.90875 179.88625 40.25 179.3125 C36.5679506 179.73976853 33.34768327 180.96545758 29.9375 182.375 C29.05449219 182.73722656 28.17148438 183.09945312 27.26171875 183.47265625 C26.59785156 183.74980469 25.93398437 184.02695313 25.25 184.3125 C25.22421875 185.09753906 25.1984375 185.88257813 25.171875 186.69140625 C24.73048518 194.86714959 23.87790128 199.95005491 17.6875 205.6875 C12.35822744 209.24034838 6.68435104 208.57004427 0.5 208.625 C-0.5725 208.65400391 -1.645 208.68300781 -2.75 208.71289062 C-9.34818783 208.76570863 -13.40697708 208.27994792 -18.75 204.3125 C-22.98353808 199.74473523 -23.85300973 196.22965644 -24.3125 190.125 C-24.43818359 188.49498047 -24.43818359 188.49498047 -24.56640625 186.83203125 C-24.62699219 186.00058594 -24.68757813 185.16914063 -24.75 184.3125 C-26.66040052 183.4444092 -28.57860737 182.59348217 -30.5 181.75 C-31.56734375 181.27433594 -32.6346875 180.79867187 -33.734375 180.30859375 C-36.80619537 179.29393806 -37.86651705 178.99345993 -40.75 180.3125 C-42.64001425 181.66683321 -42.64001425 181.66683321 -44.375 183.3125 C-49.22115001 187.71424324 -52.83749782 187.78600113 -59.36328125 187.70703125 C-68.07886126 186.69172147 -73.37193807 179.94162833 -78.90234375 173.6796875 C-83.62985853 167.62287153 -83.51803854 161.83365791 -82.75 154.3125 C-80.99754953 150.74501155 -79.37026246 148.86570706 -76.4375 146.25 C-75.6021875 145.2909375 -75.6021875 145.2909375 -74.75 144.3125 C-75.17726853 140.6304506 -76.40295758 137.41018327 -77.8125 134 C-78.17472656 133.11699219 -78.53695312 132.23398438 -78.91015625 131.32421875 C-79.18730469 130.66035156 -79.46445313 129.99648437 -79.75 129.3125 C-80.53503906 129.28671875 -81.32007812 129.2609375 -82.12890625 129.234375 C-90.30464959 128.79298518 -95.38755491 127.94040128 -101.125 121.75 C-104.67784838 116.42072744 -104.00754427 110.74685104 -104.0625 104.5625 C-104.09150391 103.49 -104.12050781 102.4175 -104.15039062 101.3125 C-104.20320863 94.71431217 -103.71744792 90.65552292 -99.75 85.3125 C-95.18223523 81.07896192 -91.66715644 80.20949027 -85.5625 79.75 C-84.47582031 79.66621094 -83.38914062 79.58242187 -82.26953125 79.49609375 C-81.43808594 79.43550781 -80.60664062 79.37492187 -79.75 79.3125 C-78.85604671 77.40459968 -77.98540666 75.48576194 -77.125 73.5625 C-76.63773438 72.49515625 -76.15046875 71.4278125 -75.6484375 70.328125 C-74.4886049 67.45738485 -74.4886049 67.45738485 -75.41015625 65.18359375 C-76.86400925 63.15328591 -78.32530053 61.13107496 -79.8125 59.125 C-82.85881521 54.5704601 -84.1697791 50.80867754 -83.75 45.3125 C-82.55915356 39.56537151 -80.13303777 36.21912062 -75.75 32.3125 C-74.22601517 30.75307366 -72.70544662 29.19030456 -71.1875 27.625 C-66.44447214 22.7340094 -63.44371342 21.00981078 -56.5625 20.8125 C-49.88311491 20.8878031 -45.60772607 22.76132946 -40.75 27.3125 C-40.255 28.3025 -40.255 28.3025 -39.75 29.3125 C-36.08827525 28.68571829 -32.8681005 27.66798154 -29.4375 26.25 C-28.55449219 25.88777344 -27.67148438 25.52554688 -26.76171875 25.15234375 C-25.76591797 24.73662109 -25.76591797 24.73662109 -24.75 24.3125 C-24.72421875 23.52746094 -24.6984375 22.74242188 -24.671875 21.93359375 C-24.23048518 13.75785041 -23.37790128 8.67494509 -17.1875 2.9375 C-11.85822744 -0.61534838 -6.18435104 0.05495573 0 0 Z M-7.75 18.3125 C-7.83669432 19.8012186 -7.85703494 21.293945 -7.84765625 22.78515625 C-7.84443359 23.68427734 -7.84121094 24.58339844 -7.83789062 25.50976562 C-7.82951172 26.45529297 -7.82113281 27.40082031 -7.8125 28.375 C-7.80798828 29.32439453 -7.80347656 30.27378906 -7.79882812 31.25195312 C-7.7870011 33.60553065 -7.77052025 35.95898477 -7.75 38.3125 C-8.73097656 38.5084375 -9.71195312 38.704375 -10.72265625 38.90625 C-19.1922263 40.73716554 -26.39295095 43.2512678 -33.87524414 47.66992188 C-37.23812862 49.63807664 -38.72733003 50.3125 -42.75 50.3125 C-45.44697561 47.81706469 -47.87886318 45.2214038 -50.328125 42.49023438 C-52.02814433 40.62326376 -52.02814433 40.62326376 -54.75 38.3125 C-58.27957737 38.73971834 -60.05546283 40.16018661 -62.5625 42.625 C-63.50029297 43.51638672 -63.50029297 43.51638672 -64.45703125 44.42578125 C-65.98208796 46.20189161 -65.98208796 46.20189161 -65.50097656 48.24194336 C-64.66573128 50.54484169 -63.77688902 51.63382853 -62.02734375 53.328125 C-61.48916016 53.85664062 -60.95097656 54.38515625 -60.39648438 54.9296875 C-59.83251953 55.46851563 -59.26855469 56.00734375 -58.6875 56.5625 C-58.11966797 57.11679688 -57.55183594 57.67109375 -56.96679688 58.2421875 C-55.56787531 59.60584214 -54.15980886 60.96010417 -52.75 62.3125 C-53.96221597 65.50079405 -55.31016142 68.39003305 -57.0625 71.3125 C-61.55872423 79.29096317 -64.45523801 87.2491661 -65.75 96.3125 C-72.35 96.3125 -78.95 96.3125 -85.75 96.3125 C-87.82730865 100.4671173 -87.92526651 101.59834801 -87.4375 106 C-87.33824219 106.97324219 -87.23898438 107.94648438 -87.13671875 108.94921875 C-86.9941564 111.26288895 -86.9941564 111.26288895 -85.75 112.3125 C-84.2612814 112.39919432 -82.768555 112.41953494 -81.27734375 112.41015625 C-79.92866211 112.40532227 -79.92866211 112.40532227 -78.55273438 112.40039062 C-77.60720703 112.39201172 -76.66167969 112.38363281 -75.6875 112.375 C-74.2634082 112.36823242 -74.2634082 112.36823242 -72.81054688 112.36132812 C-70.45696935 112.3495011 -68.10351523 112.33302025 -65.75 112.3125 C-65.5540625 113.29347656 -65.358125 114.27445312 -65.15625 115.28515625 C-63.32533446 123.7547263 -60.8112322 130.95545095 -56.39257812 138.43774414 C-54.42442336 141.80062862 -53.75 143.28983003 -53.75 147.3125 C-56.24543531 150.00947561 -58.8410962 152.44136318 -61.57226562 154.890625 C-63.43923624 156.59064433 -63.43923624 156.59064433 -65.75 159.3125 C-65.32278166 162.84207737 -63.90231339 164.61796283 -61.4375 167.125 C-60.84324219 167.75019531 -60.24898437 168.37539062 -59.63671875 169.01953125 C-57.86060839 170.54458796 -57.86060839 170.54458796 -55.82055664 170.06347656 C-53.51765831 169.22823128 -52.42867147 168.33938902 -50.734375 166.58984375 C-50.20585938 166.05166016 -49.67734375 165.51347656 -49.1328125 164.95898438 C-48.59398437 164.39501953 -48.05515625 163.83105469 -47.5 163.25 C-46.94570313 162.68216797 -46.39140625 162.11433594 -45.8203125 161.52929688 C-44.45665786 160.13037531 -43.10239583 158.72230886 -41.75 157.3125 C-38.10004324 158.66719549 -34.7156763 160.3579025 -31.27929688 162.18164062 C-23.52970905 166.26154875 -16.44728336 168.88280958 -7.75 170.3125 C-7.75785522 171.21343384 -7.75785522 171.21343384 -7.76586914 172.13256836 C-7.78658014 174.83836838 -7.79964125 177.54415177 -7.8125 180.25 C-7.82506836 181.66829102 -7.82506836 181.66829102 -7.83789062 183.11523438 C-7.84272461 184.46391602 -7.84272461 184.46391602 -7.84765625 185.83984375 C-7.85551147 187.08882446 -7.85551147 187.08882446 -7.86352539 188.36303711 C-7.96643292 190.31766798 -7.96643292 190.31766798 -6.75 191.3125 C-4.41839945 191.41159302 -2.08370058 191.44220504 0.25 191.4375 C1.52875 191.44007813 2.8075 191.44265625 4.125 191.4453125 C7.11687244 191.67110893 7.11687244 191.67110893 8.25 190.3125 C8.33669432 188.8237814 8.35703494 187.331055 8.34765625 185.83984375 C8.34443359 184.94072266 8.34121094 184.04160156 8.33789062 183.11523438 C8.32951172 182.16970703 8.32113281 181.22417969 8.3125 180.25 C8.30798828 179.30060547 8.30347656 178.35121094 8.29882812 177.37304688 C8.2870011 175.01946935 8.27052025 172.66601523 8.25 170.3125 C9.23097656 170.1165625 10.21195312 169.920625 11.22265625 169.71875 C19.6922263 167.88783446 26.89295095 165.3737322 34.37524414 160.95507812 C37.73812862 158.98692336 39.22733003 158.3125 43.25 158.3125 C45.94697561 160.80793531 48.37886318 163.4035962 50.828125 166.13476562 C52.52814433 168.00173624 52.52814433 168.00173624 55.25 170.3125 C58.77957737 169.88528166 60.55546283 168.46481339 63.0625 166 C63.68769531 165.40574219 64.31289062 164.81148437 64.95703125 164.19921875 C66.48208796 162.42310839 66.48208796 162.42310839 66.00097656 160.38305664 C65.16573128 158.08015831 64.27688902 156.99117147 62.52734375 155.296875 C61.98916016 154.76835937 61.45097656 154.23984375 60.89648438 153.6953125 C60.33251953 153.15648437 59.76855469 152.61765625 59.1875 152.0625 C58.61966797 151.50820312 58.05183594 150.95390625 57.46679688 150.3828125 C56.06787531 149.01915786 54.65980886 147.66489583 53.25 146.3125 C54.60469549 142.66254324 56.2954025 139.2781763 58.11914062 135.84179688 C62.19904875 128.09220905 64.82030958 121.00978336 66.25 112.3125 C67.15093384 112.32035522 67.15093384 112.32035522 68.07006836 112.32836914 C70.77586838 112.34908014 73.48165177 112.36214125 76.1875 112.375 C77.60579102 112.38756836 77.60579102 112.38756836 79.05273438 112.40039062 C79.95185547 112.40361328 80.85097656 112.40683594 81.77734375 112.41015625 C82.60999756 112.41539307 83.44265137 112.42062988 84.30053711 112.42602539 C86.25516798 112.52893292 86.25516798 112.52893292 87.25 111.3125 C87.34909302 108.98089945 87.37970504 106.64620058 87.375 104.3125 C87.37757813 103.03375 87.38015625 101.755 87.3828125 100.4375 C87.60860893 97.44562756 87.60860893 97.44562756 86.25 96.3125 C84.7612814 96.22580568 83.268555 96.20546506 81.77734375 96.21484375 C80.42866211 96.21967773 80.42866211 96.21967773 79.05273438 96.22460938 C78.10720703 96.23298828 77.16167969 96.24136719 76.1875 96.25 C75.23810547 96.25451172 74.28871094 96.25902344 73.31054688 96.26367188 C70.95696935 96.2754989 68.60351523 96.29197975 66.25 96.3125 C66.0540625 95.33152344 65.858125 94.35054688 65.65625 93.33984375 C63.82533446 84.8702737 61.3112322 77.66954905 56.89257812 70.18725586 C54.92442336 66.82437138 54.25 65.33516997 54.25 61.3125 C56.74543531 58.61552439 59.3410962 56.18363682 62.07226562 53.734375 C63.93923624 52.03435567 63.93923624 52.03435567 66.25 49.3125 C65.82278166 45.78292263 64.40231339 44.00703717 61.9375 41.5 C61.34324219 40.87480469 60.74898437 40.24960937 60.13671875 39.60546875 C58.36060839 38.08041204 58.36060839 38.08041204 56.32055664 38.56152344 C54.01765831 39.39676872 52.92867147 40.28561098 51.234375 42.03515625 C50.70585937 42.57333984 50.17734375 43.11152344 49.6328125 43.66601562 C49.09398437 44.22998047 48.55515625 44.79394531 48 45.375 C47.16855469 46.22674805 47.16855469 46.22674805 46.3203125 47.09570312 C44.95665786 48.49462469 43.60239583 49.90269114 42.25 51.3125 C38.60004324 49.95780451 35.2156763 48.2670975 31.77929688 46.44335938 C24.02970905 42.36345125 16.94728336 39.74219042 8.25 38.3125 C8.25785522 37.41156616 8.25785522 37.41156616 8.26586914 36.49243164 C8.28658014 33.78663162 8.29964125 31.08084823 8.3125 28.375 C8.32506836 26.95670898 8.32506836 26.95670898 8.33789062 25.50976562 C8.34272461 24.16108398 8.34272461 24.16108398 8.34765625 22.78515625 C8.35551147 21.53617554 8.35551147 21.53617554 8.36352539 20.26196289 C8.46643292 18.30733202 8.46643292 18.30733202 7.25 17.3125 C4.91839945 17.21340698 2.58370058 17.18279496 0.25 17.1875 C-1.02875 17.18492188 -2.3075 17.18234375 -3.625 17.1796875 C-6.61687244 16.95389107 -6.61687244 16.95389107 -7.75 18.3125 Z " fill="#fefefe" transform="translate(103.75,23.6875)"/>
<path d="M0 0 C0.65613281 0.53238281 1.31226563 1.06476563 1.98828125 1.61328125 C2.92607422 2.36544922 2.92607422 2.36544922 3.8828125 3.1328125 C11.81471547 10.23523542 16.26835774 20.84035709 17.23828125 31.3125 C17.72692219 42.99407255 14.35490456 53.53431935 6.98828125 62.61328125 C6.48683594 63.23847656 5.98539062 63.86367187 5.46875 64.5078125 C-1.61129801 72.41472743 -12.29936654 77.01500287 -22.78125 77.828125 C-36.23432377 78.25986678 -47.37127962 74.08429035 -57.26171875 64.92578125 C-66.25202163 55.38950856 -69.53503685 44.51032022 -69.2578125 31.66015625 C-68.29218157 19.70472563 -62.96643956 9.62522224 -54.27734375 1.43359375 C-38.42004993 -11.30692163 -16.57770503 -12.21355599 0 0 Z M-47.01171875 18.61328125 C-51.4229791 25.55866988 -53.20712597 32.71728969 -51.55078125 40.88671875 C-49.31278849 48.60121145 -45.33191018 53.49022697 -38.38671875 57.48828125 C-31.61595353 61.07559896 -24.8875367 61.6272205 -17.51171875 59.55078125 C-10.86680935 57.09480437 -5.83676418 52.71615662 -2.57421875 46.42578125 C0.82186788 38.94829903 0.92596998 31.52500682 -1.91015625 23.8515625 C-5.36301483 16.83564772 -10.72389346 12.27296182 -18.01171875 9.61328125 C-29.01318991 6.39545965 -39.49190901 10.05827692 -47.01171875 18.61328125 Z " fill="#fefefe" transform="translate(434.01171875,93.38671875)"/>
<path d="M0 0 C8.68351087 7.05825483 14.80998629 16.75065168 16 28 C17.13996081 40.6286284 14.02471481 52.10997618 6 62 C5.49855469 62.62519531 4.99710937 63.25039062 4.48046875 63.89453125 C-2.62195417 71.82643422 -13.22707584 76.28007649 -23.69921875 77.25 C-35.3807913 77.73864094 -45.9210381 74.36662331 -55 67 C-55.62519531 66.49855469 -56.25039062 65.99710937 -56.89453125 65.48046875 C-64.80144618 58.40042074 -69.40172162 47.71235221 -70.21484375 37.23046875 C-70.64658553 23.77739498 -66.4710091 12.64043913 -57.3125 2.75 C-41.15160965 -12.48564853 -17.66173527 -12.93038855 0 0 Z M-48 18 C-52.46164576 24.91168244 -54.12568596 32.08240319 -52.57421875 40.23828125 C-50.65641718 47.05059481 -46.8983338 52.48353826 -40.90625 56.3515625 C-34.18471347 59.83773257 -27.10343772 61.49098765 -19.66015625 59.31640625 C-11.81014702 56.08247082 -6.30876789 51.68594092 -2.7265625 43.9296875 C-0.07139201 36.87778309 -0.36645815 30.16765191 -2.96875 23.16796875 C-6.34698058 16.06600675 -11.92263495 12.11404062 -19 9 C-30.13871116 5.63495915 -40.49577181 9.44314251 -48 18 Z " fill="#fefefe" transform="translate(131,94)"/>
<path d="M0 0 C5.82485779 3.51996782 10.54466582 8.98962934 12.5625 15.5 C13.36764105 23.33608208 13.68710392 31.11922577 8.5625 37.5 C3.75801361 42.54521222 -0.59927055 46.10562995 -7.70703125 46.8359375 C-16.22326573 46.92983204 -22.11345494 46.6177288 -28.40234375 40.62890625 C-34.7841668 33.72505269 -35.91792252 28.29832071 -35.7421875 18.9453125 C-35.04689797 11.08319245 -31.38995981 6.95041296 -25.53515625 1.9453125 C-18.47077988 -2.92213491 -7.84396301 -3.47595223 0 0 Z M-16.8125 17.125 C-18.92456506 20.21186432 -19.04945145 21.8282913 -18.4375 25.5 C-16.9375 28 -16.9375 28 -14.4375 29.5 C-10.7657913 30.11195145 -9.14936432 29.98706506 -6.0625 27.875 C-3.95043494 24.78813568 -3.82554855 23.1717087 -4.4375 19.5 C-5.9375 17 -5.9375 17 -8.4375 15.5 C-12.1092087 14.88804855 -13.72563568 15.01293494 -16.8125 17.125 Z " fill="#fefefe" transform="translate(443.4375,357.5)"/>
<path d="M0 0 C5.82485779 3.51996782 10.54466582 8.98962934 12.5625 15.5 C13.36764105 23.33608208 13.68710392 31.11922577 8.5625 37.5 C3.75801361 42.54521222 -0.59927055 46.10562995 -7.70703125 46.8359375 C-16.22326573 46.92983204 -22.11345494 46.6177288 -28.40234375 40.62890625 C-34.7841668 33.72505269 -35.91792252 28.29832071 -35.7421875 18.9453125 C-35.04689797 11.08319245 -31.38995981 6.95041296 -25.53515625 1.9453125 C-18.47077988 -2.92213491 -7.84396301 -3.47595223 0 0 Z M-16.8125 17.125 C-18.92456506 20.21186432 -19.04945145 21.8282913 -18.4375 25.5 C-16.9375 28 -16.9375 28 -14.4375 29.5 C-10.7657913 30.11195145 -9.14936432 29.98706506 -6.0625 27.875 C-3.95043494 24.78813568 -3.82554855 23.1717087 -4.4375 19.5 C-5.9375 17 -5.9375 17 -8.4375 15.5 C-12.1092087 14.88804855 -13.72563568 15.01293494 -16.8125 17.125 Z " fill="#fefefe" transform="translate(91.4375,357.5)"/>
<path d="M0 0 C21.78 0 43.56 0 66 0 C66.99 3.63 67.98 7.26 69 11 C69.99 13.475 69.99 13.475 71 16 C45.92 16 20.84 16 -5 16 C-3.68 12.7 -2.36 9.4 -1 6 C-0.67 4.02 -0.34 2.04 0 0 Z " fill="#fefefe" transform="translate(223,136)"/>
<path d="M0 0 C2.5 1.5 2.5 1.5 4 4 C4.791013 8.02098277 4.62153384 10.96411027 2.5 14.5 C-1.03588973 16.62153384 -3.97901723 16.791013 -8 16 C-10.5 14.5 -10.5 14.5 -12 12 C-12.791013 7.97901723 -12.62153384 5.03588973 -10.5 1.5 C-6.96411027 -0.62153384 -4.02098277 -0.791013 0 0 Z " fill="#fefefe" transform="translate(476,404)"/>
<path d="M0 0 C2.5 1.5 2.5 1.5 4 4 C4.791013 8.02098277 4.62153384 10.96411027 2.5 14.5 C-1.03588973 16.62153384 -3.97901723 16.791013 -8 16 C-10.5 14.5 -10.5 14.5 -12 12 C-12.791013 7.97901723 -12.62153384 5.03588973 -10.5 1.5 C-6.96411027 -0.62153384 -4.02098277 -0.791013 0 0 Z " fill="#fefefe" transform="translate(44,404)"/>
</svg>
