<?xml version="1.0" encoding="UTF-8"?>
<svg version="1.1" xmlns="http://www.w3.org/2000/svg" width="512" height="512">
<path d="M0 0 C2.96448714 0.01623164 5.92764143 0.00000687 8.89208984 -0.01904297 C10.78401992 -0.01706304 12.67594918 -0.01322457 14.56787109 -0.00732422 C15.89129517 -0.01643326 15.89129517 -0.01643326 17.24145508 -0.02572632 C23.27462548 0.0436927 23.27462548 0.0436927 26.47021484 1.70507812 C28.85798878 4.43882594 28.88163092 6.83918341 28.94287109 10.39111328 C27.5972471 13.3386706 26.85732565 14.933886 23.94287109 16.39111328 C20.91471717 16.51233702 17.90571231 16.57692129 14.87646484 16.60205078 C13.00991995 16.63014185 11.14338362 16.65880643 9.27685547 16.68798828 C6.33667445 16.72907891 3.39664935 16.7659665 0.45629883 16.79248047 C-2.38314923 16.82030174 -5.22187198 16.866196 -8.06103516 16.91455078 C-9.35999474 16.91943008 -9.35999474 16.91943008 -10.68519592 16.92440796 C-20.12973542 17.11207237 -28.21252966 19.71943023 -35.05712891 26.39111328 C-43.01598173 36.39703246 -44.13726976 45.95589457 -44.37353516 58.35986328 C-44.39431625 59.28077759 -44.41509735 60.20169189 -44.43650818 61.1505127 C-44.50138008 64.06397753 -44.56059573 66.97752489 -44.61962891 69.89111328 C-44.66287358 71.87810065 -44.70648967 73.86507997 -44.75048828 75.85205078 C-44.85699663 80.69832248 -44.95843575 85.54467638 -45.05712891 90.39111328 C-43.99987601 90.38826538 -43.99987601 90.38826538 -42.92126447 90.38535994 C-1.16873615 90.27352651 40.58377481 90.18770934 82.33642272 90.13578663 C87.3470848 90.12953292 92.35774658 90.12306133 97.3684082 90.11645508 C98.86473888 90.11448775 98.86473888 90.11448775 100.39129845 90.11248068 C116.55428389 90.09071021 132.71718062 90.05127965 148.88011339 90.0053493 C165.45854392 89.95863032 182.03692793 89.93082754 198.61542159 89.92067081 C208.84944568 89.91380218 219.08321907 89.89209022 229.31716601 89.85153095 C236.3301635 89.82514884 243.34303094 89.81710198 250.35607447 89.82360639 C254.40537381 89.82681638 258.45423434 89.82181532 262.50345612 89.79508591 C266.20911506 89.77080247 269.91403904 89.76949291 273.6197314 89.78661881 C275.59841354 89.78974089 277.57708669 89.76813152 279.55564421 89.74570674 C289.12793872 89.82691839 289.12793872 89.82691839 292.23388386 92.74119282 C294.35807164 96.03491471 294.74361479 97.54754352 293.94287109 101.39111328 C292.29100402 103.9524644 291.54086402 104.96066871 288.94287109 106.39111328 C284.52324772 107.14891727 280.13576668 107.04309488 275.66166687 106.99238586 C274.27966325 106.99456647 272.89766165 106.99894481 271.51567107 107.0053317 C267.71857741 107.01651707 263.9221883 106.99650588 260.12518442 106.97144139 C256.03048307 106.94986241 251.93582192 106.95715499 247.84107971 106.96095276 C240.74688479 106.96357537 233.65291969 106.94787911 226.55878258 106.91976357 C216.3018734 106.87913973 206.04507541 106.8661075 195.7880945 106.85982361 C179.1471595 106.84887867 162.506347 106.81559905 145.86547852 106.76831055 C129.69979465 106.72242013 113.53414405 106.68702568 97.3684082 106.66577148 C95.87389384 106.66380106 95.87389384 106.66380106 94.34918728 106.66179083 C89.35086086 106.65526567 84.35253421 106.64894712 79.3542074 106.64273131 C37.88367674 106.59089208 -3.58671908 106.50282135 -45.05712891 106.39111328 C-44.97529801 139.32637626 -44.88310357 172.26159143 -44.77707729 205.19678493 C-44.76455894 209.08813959 -44.75212609 212.97949451 -44.73974609 216.87084961 C-44.7372801 217.64552404 -44.73481411 218.42019846 -44.73227338 219.21834787 C-44.69258713 231.74949977 -44.65982153 244.28066064 -44.62962909 256.8118386 C-44.59847705 269.67710979 -44.55985169 282.54234302 -44.51433885 295.40757149 C-44.48650594 303.34132727 -44.46445046 311.27505539 -44.4498664 319.20884677 C-44.43804369 325.30012404 -44.41580585 331.39131865 -44.38974571 337.48255348 C-44.38069398 339.97577418 -44.37498533 342.46900967 -44.37291527 344.96224594 C-44.36957577 348.37417026 -44.35405248 351.78583673 -44.33560181 355.19770813 C-44.33753654 356.17731343 -44.33947128 357.15691873 -44.34146464 358.16620904 C-44.24571906 370.0625577 -42.70518894 380.7555496 -33.97900391 389.46533203 C-24.33396358 397.50848629 -14.46307283 397.82727934 -2.35443115 397.76292419 C-0.75805158 397.76550133 0.8383263 397.76940465 2.43469977 397.77451378 C6.80579087 397.7847599 11.17667924 397.77650316 15.54776049 397.76521695 C20.26758809 397.75634787 24.98738747 397.76487121 29.70721436 397.77142334 C37.88057536 397.78057134 46.05388018 397.77925777 54.22724152 397.77123833 C66.04993292 397.76000287 77.87254434 397.76905072 89.69522879 397.78380013 C108.8848712 397.80756132 128.07450374 397.82093623 147.26416016 397.82495117 C148.98612451 397.82531847 148.98612451 397.82531847 150.74287602 397.8256932 C163.55832053 397.82824058 176.37376429 397.82880506 189.18920898 397.82775879 C193.84049479 397.82742574 198.49178059 397.82714035 203.14306641 397.8269043 C204.29085517 397.82684151 205.43864394 397.82677872 206.62121418 397.82671403 C225.74474466 397.82610969 244.86822949 397.84096843 263.99174094 397.86773735 C275.78864592 397.88356102 287.58540377 397.88578109 299.38231036 397.87060333 C307.45908083 397.86115734 315.5357624 397.86586402 323.61252239 397.88181715 C328.27545051 397.89053474 332.93814263 397.89259604 337.60105896 397.87729073 C341.86695365 397.86339977 346.13242018 397.8677598 350.39829132 397.88681174 C351.94386093 397.89043391 353.48946415 397.88724321 355.03500178 397.87666207 C357.13201366 397.86326918 359.22751627 397.87437513 361.32446671 397.89168453 C362.49026583 397.8915772 363.65606495 397.89146986 364.85719132 397.89135927 C368.59584319 398.49686807 370.26854637 399.75960575 372.94287109 402.39111328 C373.60693359 404.39111328 373.60693359 404.39111328 373.56787109 406.39111328 C373.58720703 407.38111328 373.58720703 407.38111328 373.60693359 408.39111328 C372.56643871 411.52483904 370.65397422 412.59199769 367.94287109 414.39111328 C364.8542313 414.89135927 364.8542313 414.89135927 361.31722927 414.89168453 C360.33386725 414.89995578 360.33386725 414.89995578 359.33063933 414.90839413 C357.13015442 414.92200797 354.93079552 414.90708325 352.73033142 414.89231873 C351.13826566 414.896211 349.54620337 414.90185084 347.95414931 414.90908962 C343.57608104 414.92387413 339.19837136 414.9136452 334.82031453 414.89935291 C330.09959255 414.88826334 325.37892171 414.90017932 320.65820312 414.90919495 C311.40708961 414.92314544 302.15611238 414.9155568 292.90500533 414.90051936 C282.12951287 414.88367053 271.35405447 414.88686835 260.57855291 414.89061344 C241.34587947 414.89649585 222.11327144 414.8823082 202.88061523 414.85766602 C184.22629339 414.83376755 165.57205901 414.82665218 146.91772461 414.8371582 C126.60658108 414.84857684 106.29547805 414.85048396 85.98433501 414.83606011 C83.81660402 414.83453429 81.64887303 414.83301393 79.48114204 414.8314991 C78.41459485 414.83074129 77.34804767 414.82998347 76.24918086 414.82920269 C68.74265698 414.82446534 61.23615121 414.82630758 53.72962761 414.8305645 C44.57292206 414.83550007 35.41629911 414.8294678 26.25961243 414.8096702 C21.58981197 414.79982156 16.92013707 414.79466665 12.25032997 414.80256271 C7.96977808 414.80965221 3.6894788 414.80273888 -0.59103995 414.78495909 C-2.13415762 414.78093548 -3.67729856 414.78187911 -5.22040737 414.78847795 C-21.0662625 414.85040464 -34.94698372 412.22084716 -46.93212891 401.07861328 C-57.16433993 389.90035841 -60.66885786 377.14875984 -60.56506348 362.31054688 C-60.56968117 360.91470377 -60.57603988 359.51886554 -60.58397245 358.12303734 C-60.60057005 354.31526054 -60.59246351 350.50788811 -60.58002758 346.70011044 C-60.57093988 342.58278186 -60.58496518 338.46552057 -60.59594727 334.34820557 C-60.61369753 326.29340199 -60.60990812 318.23874784 -60.5982967 310.1839385 C-60.58924888 303.63536958 -60.58804421 297.08684242 -60.59239197 290.53826904 C-60.5930049 289.60486328 -60.59361783 288.67145753 -60.59424934 287.70976675 C-60.59552829 285.81334065 -60.59682514 283.91691457 -60.5981397 282.0204885 C-60.60953527 264.25390255 -60.59644787 246.48739926 -60.57493824 228.72082686 C-60.55706819 213.48913616 -60.56017258 198.25756741 -60.57861328 183.02587891 C-60.60003808 165.32118282 -60.60843673 147.61655912 -60.59616423 129.91185188 C-60.59489008 128.02255377 -60.5936326 126.13325565 -60.59239197 124.24395752 C-60.59177487 123.31448095 -60.59115776 122.38500437 -60.59052196 121.42736185 C-60.58707389 114.88960615 -60.59288569 108.35189651 -60.60231018 101.81414795 C-60.61354944 93.84257143 -60.61044969 85.87115239 -60.5891872 77.89959383 C-60.57870265 73.83538176 -60.5745104 69.77143188 -60.58778381 65.70722198 C-60.59976775 61.98138428 -60.59304751 58.25604997 -60.57187361 54.53025746 C-60.56534104 52.55558341 -60.5782898 50.58087396 -60.59210253 48.60623741 C-60.47651833 35.39226584 -55.924272 23.52714674 -46.93212891 13.70361328 C-33.26218325 0.9950704 -17.70666533 -0.11576864 0 0 Z " fill="#fefefe" transform="translate(60.05712890625,48.60888671875)"/>
<path d="M0 0 C1.24961047 -0.00981429 2.49922094 -0.01962858 3.7866984 -0.02974027 C5.17075125 -0.02040132 6.55480159 -0.01068576 7.93884945 -0.00063419 C9.41129641 -0.0045269 10.88373962 -0.01016709 12.35617393 -0.01740509 C16.40360672 -0.03218356 20.4506514 -0.02196432 24.49807179 -0.00766838 C28.86296366 0.00342471 33.22780035 -0.00849597 37.59268856 -0.01751041 C46.1459654 -0.0314587 54.6990948 -0.02387381 63.25236464 -0.00883483 C73.21624793 0.00801748 83.1800944 0.00481573 93.14398753 0.00107109 C110.9291485 -0.00481096 128.71423874 0.00937469 146.49938107 0.03401852 C163.74712943 0.05791497 180.99478319 0.06503305 198.24254513 0.05452633 C217.02429609 0.04310564 235.80600327 0.04120324 254.58775371 0.05562443 C256.5925922 0.05715023 258.59743068 0.05867059 260.60226917 0.06018543 C261.58865716 0.06094325 262.57504516 0.06170106 263.59132369 0.06248184 C270.53128482 0.06721776 277.47122635 0.06537795 284.41118717 0.06112003 C292.8780269 0.05618255 301.34477731 0.06222512 309.81159664 0.08201433 C314.12900394 0.09185775 318.44627554 0.09702363 322.76368999 0.08912182 C326.72227592 0.08202533 330.68058901 0.08896163 334.63913917 0.10672545 C336.06516437 0.11074461 337.49121475 0.10981304 338.91723032 0.10320658 C354.40849504 0.03762648 368.1078064 2.91817372 379.70226192 13.87557125 C390.17235578 25.36465235 393.44289731 37.33988297 393.3351965 52.70139217 C393.33981559 54.09809833 393.34617524 55.4947996 393.35410547 56.89149088 C393.37068355 60.69700865 393.3626056 64.50212118 393.3501606 68.30763972 C393.34106486 72.42426893 393.35510208 76.5408312 393.36608028 80.65744686 C393.38382158 88.70877127 393.3800453 96.75994611 393.36842972 104.81127626 C393.35937897 111.35696086 393.35817849 117.90260367 393.36252499 124.44829273 C393.36313792 125.381563 393.36375085 126.31483327 393.36438236 127.27638445 C393.36566132 129.17256901 393.36695817 131.06875356 393.36827272 132.9649381 C393.3796655 150.72485199 393.36658495 168.48468316 393.34507126 186.24458348 C393.32719852 201.47000947 393.33030836 216.69531347 393.3487463 231.92073727 C393.37017097 249.62067959 393.37857007 267.32054951 393.36629725 285.02050298 C393.36502311 286.90922382 393.36376562 288.79794467 393.36252499 290.68666553 C393.36159933 292.08043791 393.36159933 292.08043791 393.36065498 293.50236731 C393.35720709 300.03762989 393.36301825 306.5728464 393.3724432 313.10810184 C393.38368219 321.07599437 393.38058315 329.04372934 393.35932022 337.0116039 C393.34883576 341.0737977 393.3446433 345.13572917 393.35791683 349.1979208 C393.36990078 352.92186827 393.36318053 356.64531209 393.34200662 360.36921435 C393.33547415 362.34284668 393.34842272 364.31651441 393.36223555 366.29010922 C393.2466111 379.50184677 388.6927077 391.36639204 379.70226192 401.18807125 C368.54749742 411.55832485 355.78907503 414.74354372 340.95616817 414.996665 C337.14048116 414.39168092 335.48394846 413.27424949 332.82726192 410.50057125 C332.16319942 408.50057125 332.16319942 408.50057125 332.20226192 406.50057125 C332.18292599 405.51057125 332.18292599 405.51057125 332.16319942 404.50057125 C333.21420682 401.33518428 335.0490266 400.24078459 337.82726192 398.50057125 C340.77257442 398.03182125 340.77257442 398.03182125 343.95226192 398.00057125 C353.39013928 397.51001491 361.20599249 395.13529032 368.10851192 388.4732275 C376.41590973 378.93860048 377.12976315 367.47332002 377.10573483 355.3071661 C377.11442343 353.70048267 377.11442343 353.70048267 377.12328756 352.06134099 C377.14017872 348.50239754 377.14315466 344.94358462 377.14610958 341.38460445 C377.15541526 338.82143496 377.16558488 336.25826848 377.17655087 333.69510555 C377.19816021 328.19226952 377.21380247 322.68946892 377.22391796 317.18660069 C377.23855339 309.23055943 377.26410359 301.27458208 377.29224925 293.3185785 C377.33762923 280.40798695 377.37428023 267.49738615 377.40538692 254.58675289 C377.43560859 242.05125462 377.46997539 229.51577893 377.50987911 216.98030758 C377.51234066 216.20657869 377.51480221 215.4328498 377.51733835 214.63567457 C377.52971365 210.75379281 377.54217005 206.87191131 377.55466676 202.99002993 C377.65810278 170.82690771 377.74734932 138.66376082 377.82726192 106.50057125 C377.21857675 106.50518022 376.60989157 106.50978918 375.98276138 106.51453781 C361.1683653 106.62498584 346.35400898 106.70771254 331.53930283 106.75963211 C324.37496621 106.78540788 317.2109045 106.82054581 310.04674435 106.87776852 C303.80203638 106.92762343 297.55752752 106.95986685 291.31262606 106.97101372 C288.00620915 106.97752925 284.70049428 106.99545339 281.39422703 107.02922153 C277.70204459 107.06543668 274.01104803 107.07051944 270.318717 107.0681982 C269.2239555 107.08617458 268.12919399 107.10415096 267.0012579 107.12267208 C259.60127422 107.07222117 259.60127422 107.07222117 255.64810848 104.15259457 C253.82726192 101.50057125 253.82726192 101.50057125 253.20226192 98.50057125 C254.0818625 94.27848851 255.34634746 93.07141477 258.82726192 90.50057125 C262.65603474 89.77130993 266.43193428 89.86912192 270.318717 89.9329443 C272.06082455 89.9318491 272.06082455 89.9318491 273.83812618 89.93073177 C277.67482448 89.93421362 281.51030708 89.97310654 285.34679317 90.01229 C288.00767733 90.02161601 290.66849426 90.02897903 293.3293829 90.0337286 C299.61575983 90.04925481 305.90170079 90.09026604 312.18788594 90.14047605 C319.34620785 90.19640813 326.50455083 90.22386562 333.66303694 90.24895322 C348.384668 90.30118343 363.10595736 90.38910151 377.82726192 90.50057125 C377.73294925 84.72027797 377.62669277 78.94036578 377.50987911 73.16048336 C377.47185055 71.19862868 377.43695469 69.23671045 377.40538692 67.27474117 C377.66902048 44.52740267 377.66902048 44.52740267 366.74913692 25.4263525 C357.38616552 17.61842006 348.08459625 17.06049712 336.22551632 17.12876034 C334.74875575 17.12618269 333.27199701 17.12227891 331.79524302 17.11717075 C327.75479168 17.10693229 323.7145599 17.11517614 319.67411923 17.12646759 C315.31012243 17.13534168 310.94615603 17.12681182 306.58216 17.12026119 C299.02594428 17.11111581 291.46978933 17.11242475 283.91357327 17.12044621 C272.98318312 17.13168485 262.05287944 17.12263101 251.12249681 17.1078844 C233.38036922 17.08412656 215.63825231 17.07074881 197.89610958 17.06673336 C196.83486117 17.06648849 195.77361277 17.06624362 194.68020532 17.06599133 C182.83267857 17.06344389 170.98515264 17.06287952 159.13762569 17.06392574 C154.83739376 17.06425879 150.53716183 17.06454418 146.23692989 17.06478024 C145.175764 17.06484302 144.11459811 17.06490581 143.02127567 17.0649705 C125.33963926 17.06557488 107.65805221 17.0507145 89.97643638 17.02394718 C79.07010193 17.00812591 68.16392662 17.00590091 57.25759044 17.0210812 C49.79053599 17.0305287 42.3235777 17.02581817 34.85653457 17.00986738 C30.54599608 17.00115174 26.23571284 16.9990838 21.92518711 17.01439381 C17.98125378 17.0282905 14.03778341 17.02391763 10.0938755 17.00487279 C8.66539802 17.0012523 7.23688415 17.00443631 5.80844131 17.01502246 C3.86992158 17.02842373 1.93127129 17.01490798 -0.00723743 17 C-1.62379345 17.000161 -1.62379345 17.000161 -3.27300715 17.00032526 C-6.88383764 16.37801682 -8.56935996 15.02863762 -11.17273808 12.50057125 C-11.83680058 10.50057125 -11.83680058 10.50057125 -11.79773808 8.50057125 C-11.8106287 7.84057125 -11.82351933 7.18057125 -11.83680058 6.50057125 C-10.02653417 1.04847478 -5.15223795 0.00051248 0 0 Z " fill="#fefefe" transform="translate(119.17273807525635,48.49942874908447)"/>
<path d="M0 0 C1.02447235 -0.0071553 2.0489447 -0.01431061 3.10446167 -0.02168274 C4.21777359 -0.02437164 5.33108551 -0.02706055 6.47813416 -0.02983093 C7.65927795 -0.03640213 8.84042175 -0.04297333 10.05735779 -0.04974365 C13.96575785 -0.06945096 17.87414442 -0.08114199 21.78257751 -0.09111023 C23.13352923 -0.09516121 24.48448074 -0.09927823 25.83543205 -0.10346031 C32.18713823 -0.12249893 38.53883292 -0.13673027 44.89056212 -0.14507228 C52.19514459 -0.15482681 59.4994226 -0.18110481 66.80389792 -0.22157317 C72.46698689 -0.25185856 78.12998922 -0.26655302 83.79315752 -0.26985329 C87.16720561 -0.27219049 90.540928 -0.28097456 93.91488838 -0.30631447 C97.68881769 -0.33078014 101.46196158 -0.3297265 105.23594666 -0.32279968 C106.33508896 -0.33560974 107.43423126 -0.3484198 108.56668091 -0.36161804 C120.16323836 -0.28450301 130.50335129 2.7927705 138.80992126 11.14717102 C147.97462032 21.93757693 149.28031287 31.96208247 149.24351501 45.73310852 C149.24808649 47.24089287 149.2533949 48.74867514 149.25939941 50.25645447 C149.26829355 53.40500899 149.26595055 56.55330938 149.25596619 59.70185852 C149.2444901 63.70843431 149.26468522 67.71412688 149.29388332 71.72058678 C149.31235707 74.83158307 149.31193069 77.94237212 149.3062458 81.05340958 C149.3060939 82.52918866 149.31202811 84.004983 149.32453728 85.48070908 C149.41294925 97.61967239 147.77132216 107.59942349 139.79820251 117.14326477 C132.22814753 124.77280938 122.45026133 129.24159715 111.70249939 129.29434204 C110.69630051 129.30149734 109.69010162 129.30865265 108.65341187 129.31602478 C107.56037247 129.31871368 106.46733307 129.32140259 105.34117126 129.32417297 C104.1811409 129.33074417 103.02111053 129.33731537 101.82592773 129.34408569 C97.98725822 129.36379287 94.14862783 129.37547729 90.30992126 129.38545227 C88.99579254 129.3895278 87.68166382 129.39360332 86.32771301 129.39780235 C80.08546171 129.41684232 73.84322211 129.43107238 67.60094738 129.43941432 C60.42598344 129.44916395 53.25132988 129.47542844 46.07647514 129.51591522 C40.51188351 129.54622326 34.94738007 129.56089724 29.3827076 129.56419533 C26.06841032 129.56653035 22.7545178 129.57730578 19.44029236 129.60065651 C15.73122392 129.62515928 12.0229531 129.62406176 8.31382751 129.61714172 C7.23698196 129.62995178 6.16013641 129.64276184 5.05065918 129.65596008 C-6.83681849 129.57572303 -17.6046637 126.64568914 -26.19007874 118.14717102 C-33.6903754 110.05828605 -37.2790312 100.12596738 -37.35121155 89.17036438 C-37.36081909 87.98820847 -37.37042664 86.80605255 -37.38032532 85.58807373 C-37.3845752 84.31722427 -37.38882507 83.04637482 -37.39320374 81.73701477 C-37.39890381 80.41859085 -37.40460388 79.10016693 -37.41047668 77.74179077 C-37.42096262 74.9502372 -37.42681989 72.15871219 -37.43031311 69.36714172 C-37.43576941 65.82256546 -37.4597454 62.27837883 -37.48828506 58.73392391 C-37.50709147 55.9806414 -37.51212666 53.227449 -37.51364899 50.47410774 C-37.51807696 48.54232426 -37.5366395 46.61058937 -37.55561829 44.67889404 C-37.52276209 31.49501365 -35.34367256 20.70492269 -26.11585999 10.95576477 C-18.53332143 3.77021776 -10.4963914 0.05057919 0 0 Z M-17.19007874 25.14717102 C-21.49814084 32.63926177 -21.76608029 40.03860466 -21.68617249 48.49482727 C-21.68762772 49.74670334 -21.68908295 50.99857941 -21.69058228 52.28839111 C-21.68851 55.59117436 -21.6676056 58.89317603 -21.63960266 62.19581604 C-21.62757801 64.20979199 -21.62921909 66.22326407 -21.63612366 68.23725891 C-21.64876669 72.1358441 -21.64000902 76.0337656 -21.62367249 79.93232727 C-21.62660812 81.12318436 -21.62954376 82.31404144 -21.63256836 83.54098511 C-21.54452245 91.37259731 -21.27362198 99.33441029 -15.50257874 105.20967102 C-14.35789124 106.16873352 -14.35789124 106.16873352 -13.19007874 107.14717102 C-12.10601924 105.52108178 -11.02199358 103.89496996 -9.93812561 102.26875305 C-9.02075736 100.89302691 -8.10278582 99.51770288 -7.18421936 98.14277649 C-5.19553506 95.1646865 -3.21385666 92.18370431 -1.26039124 89.18232727 C-0.74218811 88.38697571 -0.22398499 87.59162415 0.30992126 86.77217102 C0.75335876 86.08381165 1.19679626 85.39545227 1.65367126 84.68623352 C2.80992126 83.14717102 2.80992126 83.14717102 4.80992126 82.14717102 C8.39168346 81.75784904 10.17273847 81.71120385 13.18492126 83.77217102 C15.37182452 86.96841424 15.30705239 88.28890554 14.80992126 92.14717102 C13.25637536 95.37902177 11.33411736 98.33743274 9.37242126 101.33467102 C8.35045721 102.93077219 7.33082135 104.52836712 6.31382751 106.12763977 C5.85822449 106.82784241 5.40262146 107.52804504 4.93321228 108.24946594 C3.65768352 110.25203958 3.65768352 110.25203958 2.80992126 113.14717102 C29.20992126 113.14717102 55.60992126 113.14717102 82.80992126 113.14717102 C79.27145357 106.65998024 75.86432671 100.44777801 71.80992126 94.33467102 C70.85467167 92.87557376 69.9002901 91.41590796 68.94664001 89.95576477 C68.19132996 88.8011676 68.19132996 88.8011676 67.42076111 87.62324524 C64.45706837 83.06765691 61.53971979 78.48255786 58.62242126 73.89717102 C58.02864685 72.96397034 57.43487244 72.03076965 56.82310486 71.06929016 C52.41953205 64.13492132 48.07512298 57.16753409 43.80992126 50.14717102 C40.62517459 53.07519519 38.61808225 56.01672841 36.49742126 59.77217102 C32.72143413 65.82021894 32.72143413 65.82021894 29.18492126 67.02217102 C25.80992126 67.14717102 25.80992126 67.14717102 22.93492126 66.20967102 C19.90399588 63.2678905 19.90760834 61.33497332 19.80992126 57.14717102 C20.91514219 54.32349323 22.5291519 51.94707339 24.24742126 49.45967102 C24.70246033 48.76994202 25.15749939 48.08021301 25.62632751 47.36958313 C26.55671096 45.96377504 27.49534934 44.5633946 28.44224548 43.1686554 C29.71612821 41.28580125 30.95834717 39.38670147 32.18882751 37.47529602 C37.49625873 29.30400229 37.49625873 29.30400229 39.80992126 28.14717102 C42.62242126 27.77217102 42.62242126 27.77217102 45.80992126 28.14717102 C50.63358717 32.18729729 53.71734565 37.30921904 57.05992126 42.58467102 C57.62694763 43.46542297 58.193974 44.34617493 58.77818298 45.25361633 C61.40440154 49.3388452 63.99992949 53.44107838 66.55210876 57.57295227 C66.95913025 58.22529846 67.36615173 58.87764465 67.7855072 59.54975891 C68.86819753 61.28992834 69.93717953 63.03860531 71.00523376 64.78779602 C71.89855408 65.95568665 71.89855408 65.95568665 72.80992126 67.14717102 C75.72792437 67.46281789 75.72792437 67.46281789 77.23277283 65.9889679 C77.71713806 65.45336243 78.2015033 64.91775696 78.70054626 64.36592102 C79.24203308 63.7748053 79.7835199 63.18368958 80.34141541 62.57466125 C80.90852234 61.93858948 81.47562927 61.3025177 82.05992126 60.64717102 C82.64185242 60.00658752 83.22378357 59.36600403 83.823349 58.70600891 C85.49468291 56.86102992 87.15431091 55.00625835 88.80992126 53.14717102 C89.55886658 52.31056946 90.30781189 51.4739679 91.07945251 50.61201477 C93.50948217 47.86433418 95.85288041 45.0926013 98.12242126 42.20967102 C100.44811685 39.3671542 101.40490103 39.19575421 105.09898376 38.75263977 C109.72710882 39.24468254 111.38996523 41.02519558 114.18492126 44.45967102 C114.64970886 44.99785461 115.11449646 45.53603821 115.59336853 46.0905304 C117.02249587 47.757805 118.41938985 49.44763262 119.80992126 51.14717102 C120.24191833 51.66972473 120.67391541 52.19227844 121.1190033 52.73066711 C123.04526299 55.06237642 124.95346943 57.40598292 126.83726501 59.77217102 C128.71956867 62.03839007 130.71453865 64.07986495 132.80992126 66.14717102 C132.90946871 61.45159455 132.98170594 56.75664439 133.02964783 52.06025696 C133.0496518 50.46574694 133.07686427 48.87130924 133.11167908 47.27705383 C133.59877308 35.07364237 133.59877308 35.07364237 128.80992126 24.14717102 C126.9552218 22.10350323 126.9552218 22.10350323 124.87242126 20.77217102 C124.22402283 20.31068665 123.57562439 19.84920227 122.90757751 19.37373352 C118.86133546 17.00777448 115.43117151 15.89762748 110.73805237 15.88647461 C109.24099007 15.8758474 109.24099007 15.8758474 107.71368408 15.86500549 C106.62991989 15.86748291 105.5461557 15.86996033 104.42955017 15.87251282 C102.7043087 15.86484642 102.7043087 15.86484642 100.94421387 15.85702515 C97.14158425 15.84312353 93.33913578 15.84408646 89.53648376 15.84638977 C86.89238925 15.84250303 84.24829535 15.8381684 81.60420227 15.83340454 C76.06110529 15.82519639 70.51805929 15.82609616 64.97496033 15.83149719 C58.57824213 15.8375344 52.18174404 15.82523045 45.78506339 15.80392712 C39.61969374 15.7841531 33.45442664 15.78114147 27.28902817 15.78466225 C24.67118691 15.784149 22.05334215 15.77891062 19.43552017 15.76885033 C15.77320187 15.75650405 12.11139168 15.76326753 8.44908142 15.77485657 C7.36936569 15.76721283 6.28964996 15.75956909 5.17721558 15.75169373 C-4.05265768 15.81619749 -10.93632654 18.08248292 -17.19007874 25.14717102 Z M101.45445251 61.49092102 C100.50461473 62.53774631 99.5609546 63.59019884 98.62242126 64.64717102 C98.13136902 65.19236389 97.64031677 65.73755676 97.13438416 66.29927063 C95.68694917 67.91003762 94.2475544 69.52765628 92.80992126 71.14717102 C92.08031189 71.96314758 91.35070251 72.77912415 90.59898376 73.61982727 C88.13710759 76.39852718 85.87320318 79.05224815 83.80992126 82.14717102 C84.17370716 85.38503011 85.61546654 87.70499817 87.35679626 90.41279602 C87.87242126 91.22103821 88.38804626 92.0292804 88.91929626 92.86201477 C89.46070251 93.69861633 90.00210876 94.5352179 90.55992126 95.39717102 C91.61735788 97.04811986 92.67465095 98.69916064 93.73179626 100.35029602 C94.25362488 101.14975647 94.77545349 101.94921692 95.31309509 102.77290344 C96.29042168 104.32314012 97.22047213 105.90449256 98.09385681 107.51557922 C100.43780633 111.98112716 100.43780633 111.98112716 104.86070251 114.03388977 C112.82498818 113.54744837 119.24554271 113.14448935 125.55992126 107.83467102 C129.44892758 103.18946903 132.35681167 99.48546732 133.01109314 93.27192688 C132.61977378 89.13885356 129.72858921 86.68565471 126.93492126 83.83467102 C125.72791895 82.52855474 124.5221968 81.22125432 123.31773376 79.91279602 C122.71993103 79.27664368 122.1221283 78.64049133 121.50621033 77.98506165 C119.15532721 75.43793325 116.98521965 72.78351579 114.80992126 70.08467102 C114.1073822 69.22099915 113.40484314 68.35732727 112.68101501 67.46748352 C111.52145112 66.02952746 110.3668109 64.58756727 109.22007751 63.13935852 C108.12484273 61.77428328 106.97483656 60.45328817 105.80992126 59.14717102 C103.49240061 58.91205728 103.49240061 58.91205728 101.45445251 61.49092102 Z " fill="#fefefe" transform="translate(85.19007873535156,189.8528289794922)"/>
<path d="M0 0 C0.91193219 -0.00523668 1.82386439 -0.01047336 2.76343089 -0.01586872 C5.82018092 -0.03087427 8.87676363 -0.03157401 11.93354797 -0.03224182 C14.12493167 -0.03986302 16.31631269 -0.04829044 18.50769043 -0.0574646 C24.46242649 -0.07942254 30.41711118 -0.08821046 36.37188315 -0.09329104 C40.09322262 -0.0969336 43.81454862 -0.10317319 47.53588295 -0.11029243 C59.85129502 -0.13352832 72.16667711 -0.14750154 84.48210993 -0.15082847 C85.14574269 -0.15101128 85.80937544 -0.1511941 86.49311829 -0.15138245 C87.15756538 -0.151563 87.82201248 -0.15174354 88.50659434 -0.15192956 C99.26637731 -0.15546913 110.02595989 -0.18247889 120.7856734 -0.21988034 C131.84419399 -0.25801137 142.9026103 -0.27688623 153.9611972 -0.27762848 C160.1654881 -0.27842112 166.36952052 -0.28715386 172.57375145 -0.31562614 C178.4121742 -0.34181988 184.25012444 -0.34400424 190.08857918 -0.3279705 C192.22748216 -0.32615699 194.36641238 -0.33283786 196.50525665 -0.34878922 C218.0152178 -0.49938501 218.0152178 -0.49938501 224.96211243 5.27415466 C231.27548735 12.14159741 232.33673346 17.47806134 232.23164368 26.75462341 C231.79237463 32.49058584 230.3028876 36.09464375 226.09101868 40.01634216 C219.49495632 45.22835363 214.19328787 46.57179884 205.92422485 46.54830933 C205.01229266 46.553546 204.10036046 46.55878268 203.16079396 46.56417805 C200.10404393 46.5791836 197.04746122 46.57988333 193.99067688 46.58055115 C191.79929319 46.58817234 189.60791217 46.59659977 187.41653442 46.60577393 C181.46179837 46.62773186 175.50711367 46.63651979 169.5523417 46.64160037 C165.83100223 46.64524292 162.10967624 46.65148252 158.3883419 46.65860176 C146.07292984 46.68183765 133.75754774 46.69581087 121.44211493 46.6991378 C120.77848217 46.69932061 120.11484941 46.69950342 119.43110657 46.69969177 C118.76665947 46.69987232 118.10221237 46.70005287 117.41763052 46.70023889 C106.65784754 46.70377845 95.89826496 46.73078821 85.13855145 46.76818966 C74.08003087 46.8063207 63.02161455 46.82519556 51.96302766 46.82593781 C45.75873675 46.82673044 39.55470434 46.83546319 33.3504734 46.86393547 C27.51205065 46.8901292 21.67410042 46.89231357 15.83564568 46.87627983 C13.6967427 46.87446631 11.55781247 46.88114719 9.4189682 46.89709854 C-12.09099295 47.04769434 -12.09099295 47.04769434 -19.03788757 41.27415466 C-25.35126249 34.40671192 -26.41250861 29.07024799 -26.30741882 19.79368591 C-25.86814978 14.05772349 -24.37866274 10.45366557 -20.16679382 6.53196716 C-13.57073146 1.3199557 -8.26906302 -0.02348952 0 0 Z M-8.55227661 18.11840057 C-10.58617318 21.069766 -10.62311325 22.76280059 -10.03788757 26.27415466 C-8.60921991 28.59976901 -8.60921991 28.59976901 -6.03788757 30.27415466 C-3.00640052 30.66687168 -0.33885686 30.81452564 2.69233704 30.78208923 C3.58314689 30.7883292 4.47395674 30.79456916 5.39176083 30.80099821 C8.38292686 30.81697954 11.37328379 30.80430381 14.36445618 30.79173279 C16.5063169 30.79715161 18.6481739 30.80427292 20.7900238 30.81297302 C26.61227651 30.83123766 32.43424629 30.82412578 38.25650406 30.81145668 C44.34319585 30.80134532 50.42986306 30.81071717 56.51655579 30.81700134 C66.73901224 30.82428318 76.96135319 30.81467593 87.18379211 30.79563904 C99.01042532 30.77386936 110.83678272 30.78092035 122.66340923 30.80294466 C132.8087154 30.82108333 142.95393842 30.82366446 153.09925556 30.81318998 C159.16246373 30.80694665 165.22554217 30.80614256 171.28874207 30.81933594 C176.98840654 30.83087145 182.68771466 30.82291054 188.38734055 30.79975891 C190.48198224 30.79445955 192.57665382 30.79600646 194.67128372 30.80480957 C197.52522643 30.81570006 200.3780189 30.80208007 203.23188782 30.78208923 C204.48265814 30.79547356 204.48265814 30.79547356 205.75869656 30.80912828 C209.36976655 30.75988246 211.52324224 30.59605574 214.47650146 28.42990875 C216.51039803 25.47854332 216.54733811 23.78550874 215.96211243 20.27415466 C214.53344476 17.94854032 214.53344476 17.94854032 211.96211243 16.27415466 C208.93062537 15.88143764 206.26308171 15.73378368 203.23188782 15.76622009 C202.34107797 15.75998013 201.45026812 15.75374017 200.53246403 15.74731112 C197.54129799 15.73132979 194.55094106 15.74400552 191.55976868 15.75657654 C189.41790795 15.75115771 187.27605096 15.74403641 185.13420105 15.7353363 C179.31194835 15.71707167 173.48997856 15.72418355 167.66772079 15.73685265 C161.581029 15.746964 155.49436179 15.73759216 149.40766907 15.73130798 C139.18521261 15.72402615 128.96287167 15.7336334 118.74043274 15.75267029 C106.91379954 15.77443996 95.08744214 15.76738898 83.26081562 15.74536467 C73.11550946 15.72722599 62.97028643 15.72464486 52.82496929 15.73511934 C46.76176112 15.74136268 40.69868268 15.74216677 34.63548279 15.72897339 C28.93581831 15.71743788 23.2365102 15.72539878 17.53688431 15.74855042 C15.44224261 15.75384978 13.34757104 15.75230287 11.25294113 15.74349976 C8.39899842 15.73260927 5.54620595 15.74622925 2.69233704 15.76622009 C1.85849015 15.75729721 1.02464327 15.74837432 0.1655283 15.73918104 C-3.4455417 15.78842687 -5.59901738 15.95225358 -8.55227661 18.11840057 Z " fill="#fefefe" transform="translate(250.0378875732422,78.72584533691406)"/>
<path d="M0 0 C1.65834003 -0.00570993 3.31667613 -0.01267659 4.9750061 -0.02079773 C9.45859694 -0.0386765 13.94199149 -0.03757061 18.4256072 -0.03185534 C22.17788181 -0.02875551 25.93011914 -0.03486483 29.68238842 -0.04089409 C38.53959283 -0.05492067 47.39670075 -0.05339388 56.25390625 -0.04199219 C65.37041575 -0.03051552 74.4866309 -0.0445833 83.60310161 -0.07138866 C91.44969554 -0.09359048 99.29619739 -0.10017288 107.14282048 -0.09431225 C111.82065643 -0.09095185 116.49830379 -0.09329638 121.17611313 -0.11056328 C125.57741687 -0.12610175 129.97828679 -0.1220009 134.37957382 -0.10325813 C135.98751751 -0.09959112 137.59549383 -0.10262517 139.20340729 -0.11314392 C152.53946432 -0.19367271 163.6752906 1.6666867 173.54736328 11.40405273 C180.48409635 19.57027241 183.20959374 28.6773006 182.89501953 39.31811523 C181.80178562 49.02210166 178.12531314 57.9355856 170.40673828 64.11889648 C162.23083021 69.80588016 154.73831953 72.51566581 144.73156738 72.55122375 C144.05859792 72.55490044 143.38562846 72.55857713 142.69226599 72.56236523 C140.44408745 72.57335121 138.19595521 72.57723728 135.94775391 72.58105469 C134.33266047 72.58732336 132.71756847 72.59397052 131.10247803 72.60096741 C125.80286658 72.62196848 120.50325499 72.63236857 115.20361328 72.64233398 C113.37473028 72.64638352 111.54584742 72.6505005 109.71696472 72.65468407 C101.12005469 72.67372989 92.5231532 72.68796018 83.92622614 72.69629604 C74.02607646 72.70605565 64.12615112 72.73234434 54.22608042 72.77279693 C46.55959596 72.80303972 38.8931755 72.81777277 31.2266326 72.82107705 C26.6548373 72.82341891 22.08328182 72.83226565 17.5115509 72.85753822 C13.20389662 72.88096625 8.89663754 72.88499359 4.58893585 72.87477684 C3.01729765 72.87428487 1.44563902 72.88050406 -0.12593842 72.89433289 C-11.94074559 72.99238644 -24.22725812 72.1742973 -33.67529297 64.22436523 C-41.51686604 56.19321567 -45.46967364 47.6011379 -45.82763672 36.40405273 C-45.49997691 26.15485404 -42.32254281 18.085974 -35.45263672 10.40405273 C-24.62057868 0.87900335 -13.83297555 -0.04309941 0 0 Z M-24.51123047 22.65795898 C-24.96626953 23.41979492 -25.42130859 24.18163086 -25.89013672 24.96655273 C-26.36322266 25.7309668 -26.83630859 26.49538086 -27.32373047 27.28295898 C-29.60768287 31.57426056 -30.05030654 35.63123227 -29.45263672 40.40405273 C-27.5448223 46.55273174 -23.80822567 50.90788864 -18.45263672 54.40405273 C-14.41531677 56.35445001 -11.14344808 56.65895055 -6.67912292 56.67147827 C-5.67662765 56.67827494 -5.67662765 56.67827494 -4.65387994 56.68520892 C-2.42160749 56.69783658 -0.18957953 56.69623363 2.04272461 56.69458008 C3.64622816 56.70056639 5.24972882 56.70737218 6.85322571 56.7149353 C11.20458311 56.73259288 15.55586183 56.7372906 19.9072516 56.73856688 C22.62753951 56.73998926 25.34780748 56.74426055 28.06809044 56.74956131 C37.56322879 56.76806137 47.05831102 56.77623202 56.5534668 56.7746582 C65.39614952 56.77345707 74.23858806 56.79455382 83.081209 56.82614553 C90.6796851 56.85232228 98.27808152 56.8630249 105.87660235 56.86174738 C110.41189484 56.86123813 114.94697032 56.86690116 119.48221779 56.88810349 C123.74965862 56.90750929 128.01667598 56.90759449 132.284132 56.89307022 C133.84657537 56.89098386 135.40904541 56.89567276 136.97144318 56.90779114 C146.11407163 56.97408675 153.33069826 56.90569224 160.57080078 50.65795898 C164.66046353 45.53997063 167.12946142 41.48829147 166.92236328 34.65405273 C165.90685065 28.56097695 162.9545776 23.04741729 157.98486328 19.34155273 C153.03236654 16.55014548 149.52970523 16.27704143 143.85614014 16.25688171 C143.18458082 16.25320503 142.51302151 16.24952834 141.82111192 16.24574023 C139.57197698 16.23473175 137.32288828 16.2308644 135.07373047 16.22705078 C133.46052403 16.22078402 131.84731903 16.21413703 130.2341156 16.20713806 C124.93750001 16.18612171 119.6408842 16.17573839 114.34423828 16.16577148 C112.51926915 16.16172311 110.69430018 16.15760617 108.86933136 16.1534214 C100.29538748 16.13437557 91.72145218 16.1201429 83.14749122 16.11180943 C73.25690171 16.10203695 63.366536 16.07571463 53.47602534 16.03530854 C45.82662415 16.00513253 38.17728706 15.99033917 30.5278275 15.98702842 C25.96120725 15.98467977 21.39482625 15.97574326 16.82826996 15.95056725 C12.53049331 15.92725525 8.23311292 15.92306577 3.93528938 15.93332863 C2.36155185 15.93382333 0.7877946 15.92752225 -0.78588295 15.91377258 C-13.89482143 15.65936865 -13.89482143 15.65936865 -24.51123047 22.65795898 Z " fill="#fefefe" transform="translate(187.45263671875,346.595947265625)"/>
<path d="M0 0 C1.21695053 -0.00426498 2.43390106 -0.00852997 3.68772888 -0.01292419 C5.03845218 -0.01257467 6.38917545 -0.01211314 7.73989868 -0.0115509 C9.16078276 -0.0145427 10.58166603 -0.01794528 12.00254822 -0.02172852 C15.86415772 -0.03057088 19.72574507 -0.03290674 23.58736372 -0.0335443 C26.81051608 -0.03449347 30.03366327 -0.03817189 33.25681365 -0.0417164 C40.86136679 -0.04986196 48.46590809 -0.05230055 56.07046509 -0.05158997 C63.91561913 -0.05098922 71.7607044 -0.06154007 79.60584104 -0.07733363 C86.34053444 -0.09040868 93.07520537 -0.09577387 99.80991137 -0.09513456 C103.8325515 -0.09487955 107.85513053 -0.09773238 111.87775803 -0.10831261 C115.66162838 -0.11799292 119.44537921 -0.11807325 123.22925377 -0.11079597 C124.61718228 -0.10975003 126.00511823 -0.11211363 127.39303398 -0.11815643 C129.28943269 -0.12587757 131.18587212 -0.12003161 133.08227539 -0.11352539 C134.14304983 -0.11407016 135.20382427 -0.11461493 136.29674339 -0.1151762 C139.33974408 0.1485889 141.46436682 0.72193332 144.16812134 2.13371277 C146.64851041 5.85429637 146.63149337 7.73167847 146.16812134 12.13371277 C144.04376845 14.9785538 142.85508322 16.01271727 139.326087 16.63428402 C138.2201447 16.6344933 137.1142024 16.63470259 135.9747467 16.63491821 C134.70304626 16.64475235 133.43134583 16.65458649 132.12110901 16.66471863 C130.71416968 16.65534691 129.30723303 16.64556761 127.90029907 16.63542175 C126.41690559 16.63920522 124.93351564 16.64470549 123.45013428 16.65179443 C119.42328852 16.66576177 115.39686941 16.6545711 111.37004733 16.63808322 C107.15804627 16.62424014 102.94607016 16.63069185 98.73405457 16.63421631 C91.66163245 16.63691873 84.58938003 16.62343915 77.51699829 16.6002655 C69.33601728 16.57364523 61.15531983 16.57191177 52.97431034 16.58365387 C45.10833059 16.59442558 37.24245359 16.58825004 29.37648201 16.57409859 C26.02684162 16.56833453 22.67727632 16.56842472 19.32763481 16.57316399 C15.38526263 16.57792949 11.44320176 16.56785013 7.50088882 16.54620934 C6.05246722 16.5406358 4.60401573 16.54018137 3.15559196 16.5451622 C1.18189178 16.55109918 -0.79183868 16.53679874 -2.76548767 16.52139282 C-4.42383558 16.51774798 -4.42383558 16.51774798 -6.11568546 16.5140295 C-8.83187866 16.13371277 -8.83187866 16.13371277 -10.65243435 14.82042027 C-12.63995727 11.97809038 -12.77296436 9.55074218 -12.83187866 6.13371277 C-9.41170135 0.51485003 -6.26127961 0.0098988 0 0 Z " fill="#fefefe" transform="translate(316.8318786621094,285.8662872314453)"/>
<path d="M0 0 C1.21695053 -0.00426498 2.43390106 -0.00852997 3.68772888 -0.01292419 C5.03845218 -0.01257467 6.38917545 -0.01211314 7.73989868 -0.0115509 C9.16078276 -0.0145427 10.58166603 -0.01794528 12.00254822 -0.02172852 C15.86415772 -0.03057088 19.72574507 -0.03290674 23.58736372 -0.0335443 C26.81051608 -0.03449347 30.03366327 -0.03817189 33.25681365 -0.0417164 C40.86136679 -0.04986196 48.46590809 -0.05230055 56.07046509 -0.05158997 C63.91561913 -0.05098922 71.7607044 -0.06154007 79.60584104 -0.07733363 C86.34053444 -0.09040868 93.07520537 -0.09577387 99.80991137 -0.09513456 C103.8325515 -0.09487955 107.85513053 -0.09773238 111.87775803 -0.10831261 C115.66162838 -0.11799292 119.44537921 -0.11807325 123.22925377 -0.11079597 C124.61718228 -0.10975003 126.00511823 -0.11211363 127.39303398 -0.11815643 C129.28943269 -0.12587757 131.18587212 -0.12003161 133.08227539 -0.11352539 C134.14304983 -0.11407016 135.20382427 -0.11461493 136.29674339 -0.1151762 C139.33974408 0.1485889 141.46436682 0.72193332 144.16812134 2.13371277 C146.64851041 5.85429637 146.63149337 7.73167847 146.16812134 12.13371277 C144.04376845 14.9785538 142.85508322 16.01271727 139.326087 16.63428402 C138.2201447 16.6344933 137.1142024 16.63470259 135.9747467 16.63491821 C134.70304626 16.64475235 133.43134583 16.65458649 132.12110901 16.66471863 C130.71416968 16.65534691 129.30723303 16.64556761 127.90029907 16.63542175 C126.41690559 16.63920522 124.93351564 16.64470549 123.45013428 16.65179443 C119.42328852 16.66576177 115.39686941 16.6545711 111.37004733 16.63808322 C107.15804627 16.62424014 102.94607016 16.63069185 98.73405457 16.63421631 C91.66163245 16.63691873 84.58938003 16.62343915 77.51699829 16.6002655 C69.33601728 16.57364523 61.15531983 16.57191177 52.97431034 16.58365387 C45.10833059 16.59442558 37.24245359 16.58825004 29.37648201 16.57409859 C26.02684162 16.56833453 22.67727632 16.56842472 19.32763481 16.57316399 C15.38526263 16.57792949 11.44320176 16.56785013 7.50088882 16.54620934 C6.05246722 16.5406358 4.60401573 16.54018137 3.15559196 16.5451622 C1.18189178 16.55109918 -0.79183868 16.53679874 -2.76548767 16.52139282 C-4.42383558 16.51774798 -4.42383558 16.51774798 -6.11568546 16.5140295 C-8.83187866 16.13371277 -8.83187866 16.13371277 -10.65243435 14.82042027 C-12.63995727 11.97809038 -12.77296436 9.55074218 -12.83187866 6.13371277 C-9.41170135 0.51485003 -6.26127961 0.0098988 0 0 Z " fill="#fefefe" transform="translate(316.8318786621094,245.8662872314453)"/>
<path d="M0 0 C1.21695053 -0.00426498 2.43390106 -0.00852997 3.68772888 -0.01292419 C5.03845218 -0.01257467 6.38917545 -0.01211314 7.73989868 -0.0115509 C9.16078276 -0.0145427 10.58166603 -0.01794528 12.00254822 -0.02172852 C15.86415772 -0.03057088 19.72574507 -0.03290674 23.58736372 -0.0335443 C26.81051608 -0.03449347 30.03366327 -0.03817189 33.25681365 -0.0417164 C40.86136679 -0.04986196 48.46590809 -0.05230055 56.07046509 -0.05158997 C63.91561913 -0.05098922 71.7607044 -0.06154007 79.60584104 -0.07733363 C86.34053444 -0.09040868 93.07520537 -0.09577387 99.80991137 -0.09513456 C103.8325515 -0.09487955 107.85513053 -0.09773238 111.87775803 -0.10831261 C115.66162838 -0.11799292 119.44537921 -0.11807325 123.22925377 -0.11079597 C124.61718228 -0.10975003 126.00511823 -0.11211363 127.39303398 -0.11815643 C129.28943269 -0.12587757 131.18587212 -0.12003161 133.08227539 -0.11352539 C134.14304983 -0.11407016 135.20382427 -0.11461493 136.29674339 -0.1151762 C139.33974408 0.1485889 141.46436682 0.72193332 144.16812134 2.13371277 C146.64851041 5.85429637 146.63149337 7.73167847 146.16812134 12.13371277 C144.04376845 14.9785538 142.85508322 16.01271727 139.326087 16.63428402 C138.2201447 16.6344933 137.1142024 16.63470259 135.9747467 16.63491821 C134.70304626 16.64475235 133.43134583 16.65458649 132.12110901 16.66471863 C130.71416968 16.65534691 129.30723303 16.64556761 127.90029907 16.63542175 C126.41690559 16.63920522 124.93351564 16.64470549 123.45013428 16.65179443 C119.42328852 16.66576177 115.39686941 16.6545711 111.37004733 16.63808322 C107.15804627 16.62424014 102.94607016 16.63069185 98.73405457 16.63421631 C91.66163245 16.63691873 84.58938003 16.62343915 77.51699829 16.6002655 C69.33601728 16.57364523 61.15531983 16.57191177 52.97431034 16.58365387 C45.10833059 16.59442558 37.24245359 16.58825004 29.37648201 16.57409859 C26.02684162 16.56833453 22.67727632 16.56842472 19.32763481 16.57316399 C15.38526263 16.57792949 11.44320176 16.56785013 7.50088882 16.54620934 C6.05246722 16.5406358 4.60401573 16.54018137 3.15559196 16.5451622 C1.18189178 16.55109918 -0.79183868 16.53679874 -2.76548767 16.52139282 C-4.42383558 16.51774798 -4.42383558 16.51774798 -6.11568546 16.5140295 C-8.83187866 16.13371277 -8.83187866 16.13371277 -10.65243435 14.82042027 C-12.63995727 11.97809038 -12.77296436 9.55074218 -12.83187866 6.13371277 C-9.41170135 0.51485003 -6.26127961 0.0098988 0 0 Z " fill="#fefefe" transform="translate(316.8318786621094,205.8662872314453)"/>
<path d="M0 0 C5.75070545 3.205011 9.60552611 7.75407834 11.6875 14 C12.90804132 29.74698393 12.90804132 29.74698393 7.6875 36 C1.33310908 41.91661451 -4.69321196 44.57053962 -13.3984375 44.37109375 C-20.34013201 43.4870978 -25.60896174 40.3802208 -29.875 34.875 C-34.30857465 28.41931339 -33.894266 21.5966836 -33.3125 14 C-31.83404321 8.00142054 -28.33432733 4.73124092 -23.41015625 1.2265625 C-15.89378421 -3.16848559 -7.97473389 -3.57778847 0 0 Z M-17.3125 18 C-17.92225382 21.65852292 -17.75793026 23.30512879 -15.75 26.4375 C-13.28626884 28.33441535 -13.28626884 28.33441535 -9.6875 27.9375 C-6.05733076 27.3249155 -6.05733076 27.3249155 -4.3125 24 C-3.84600302 20.34577364 -3.84253702 18.66142938 -6 15.625 C-8.19825314 13.84807743 -8.19825314 13.84807743 -10.8125 13.5 C-14.18263879 14.17402776 -15.32927007 15.2087875 -17.3125 18 Z " fill="#fefefe" transform="translate(192.3125,81)"/>
<path d="M0 0 C5.75070545 3.205011 9.60552611 7.75407834 11.6875 14 C12.90804132 29.74698393 12.90804132 29.74698393 7.6875 36 C1.33310908 41.91661451 -4.69321196 44.57053962 -13.3984375 44.37109375 C-20.34013201 43.4870978 -25.60896174 40.3802208 -29.875 34.875 C-34.30857465 28.41931339 -33.894266 21.5966836 -33.3125 14 C-31.83404321 8.00142054 -28.33432733 4.73124092 -23.41015625 1.2265625 C-15.89378421 -3.16848559 -7.97473389 -3.57778847 0 0 Z M-17.3125 18 C-17.92225382 21.65852292 -17.75793026 23.30512879 -15.75 26.4375 C-13.28626884 28.33441535 -13.28626884 28.33441535 -9.6875 27.9375 C-6.05733076 27.3249155 -6.05733076 27.3249155 -4.3125 24 C-3.84600302 20.34577364 -3.84253702 18.66142938 -6 15.625 C-8.19825314 13.84807743 -8.19825314 13.84807743 -10.8125 13.5 C-14.18263879 14.17402776 -15.32927007 15.2087875 -17.3125 18 Z " fill="#fefefe" transform="translate(128.3125,81)"/>
<path d="M0 0 C5.99645699 3.36998952 9.4766741 8.61752231 11.625 15.0625 C12.29648988 22.4929208 12.25526341 28.95710843 7.625 35.0625 C2.52137464 40.73463046 -3.26252975 43.61386688 -10.8125 44.4375 C-18.2265288 43.65707592 -24.12775456 41.55380336 -29.375 36.0625 C-33.17221705 29.95287513 -34.95868947 24.30024939 -34.375 17.0625 C-32.45415216 9.45251683 -28.95660387 4.37669844 -22.375 0.0625 C-15.25707732 -3.38053426 -7.196277 -3.15721684 0 0 Z M-16.8125 16.25 C-18.60029278 18.90897339 -18.60029278 18.90897339 -18.3125 21.6875 C-17.29449379 24.26644908 -16.62549391 25.45500435 -14.375 27.0625 C-12.0183774 28.15055146 -12.0183774 28.15055146 -9.375 28.0625 C-6.4434887 26.6339939 -6.4434887 26.6339939 -4.375 24.0625 C-3.625 21.0625 -3.625 21.0625 -4.375 18.0625 C-5.875 15.5625 -5.875 15.5625 -8.375 14.0625 C-12.40996227 13.30594457 -13.72981898 13.48349139 -16.8125 16.25 Z " fill="#fefefe" transform="translate(64.375,80.9375)"/>
</svg>
