<?xml version="1.0" encoding="UTF-8"?>
<svg version="1.1" xmlns="http://www.w3.org/2000/svg" width="512" height="512">
<path d="M0 0 C0.62825684 0.20898926 1.25651367 0.41797852 1.90380859 0.63330078 C17.56903011 5.95063379 30.29706058 14.43576209 42 26 C42.71542969 26.64324219 43.43085938 27.28648438 44.16796875 27.94921875 C59.82145817 42.35292858 71.17807964 66.98129554 72.14526367 88.18457031 C72.16994258 91.87313852 72.18565383 95.56134314 72.1875 99.25 C72.19974609 100.52230469 72.21199219 101.79460937 72.22460938 103.10546875 C72.23585897 110.37270922 71.71253346 116.93326114 70 124 C75.94 124 81.88 124 88 124 C88 81.76 88 39.52 88 -4 C161.92 -4 235.84 -4 312 -4 C311.625 61.125 311.625 61.125 311.39697266 81.62158203 C311.39676599 87.73132942 311.39676599 87.73132942 311.41513062 93.84103394 C311.41439262 96.5472598 311.3916106 99.24436455 311.33578491 101.94918823 C310.35871923 119.71208094 310.35871923 119.71208094 318.16812706 134.80909538 C320.07402049 136.49992127 322.03337634 138.01221826 324.09091187 139.51242065 C325.53091049 140.74377243 325.53091049 140.74377243 327 142 C326.97583609 145.35588779 325.83548937 147.69210535 324.15234375 150.55078125 C323.61577148 151.47407227 323.61577148 151.47407227 323.06835938 152.41601562 C322.69517578 153.04185547 322.32199219 153.66769531 321.9375 154.3125 C321.56044922 154.95767578 321.18339844 155.60285156 320.79492188 156.26757812 C319.86962507 157.84878152 318.93567319 159.4249146 318 161 C318.71285156 161.12117187 319.42570312 161.24234375 320.16015625 161.3671875 C321.59681641 161.61855469 321.59681641 161.61855469 323.0625 161.875 C324.47208984 162.11863281 324.47208984 162.11863281 325.91015625 162.3671875 C329.31537003 163.06458906 332.65784319 164.04509806 336 165 C336 185.46 336 205.92 336 227 C321 231 321 231 318 231 C318.66128906 232.02480469 319.32257813 233.04960937 320.00390625 234.10546875 C320.85754406 235.46566087 321.71036625 236.82636511 322.5625 238.1875 C323.21895508 239.19780273 323.21895508 239.19780273 323.88867188 240.22851562 C324.29794922 240.88916016 324.70722656 241.54980469 325.12890625 242.23046875 C325.51119385 242.83270264 325.89348145 243.43493652 326.28735352 244.05541992 C327.27695869 246.75573003 326.80618346 248.25331501 326 251 C324.39483643 253.1265564 324.39483643 253.1265564 322.29394531 255.25537109 C321.50932922 256.05905121 320.72471313 256.86273132 319.9163208 257.69076538 C319.06221619 258.54304718 318.20811157 259.39532898 317.328125 260.2734375 C316.45355652 261.15657623 315.57898804 262.03971497 314.67791748 262.94961548 C312.35302368 265.28893016 310.01808684 267.61768522 307.68029785 269.9440918 C306.24971781 271.37528231 304.82929803 272.81580927 303.41210938 274.26025391 C300.6909636 277.0302286 297.95033901 279.77934168 295.203125 282.5234375 C294.35711731 283.38786469 293.51110962 284.25229187 292.63946533 285.14291382 C291.8422406 285.92768097 291.04501587 286.71244812 290.22363281 287.52099609 C289.52715637 288.21873138 288.83067993 288.91646667 288.11309814 289.63534546 C286 291 286 291 283.3518219 290.77043152 C281.19461933 290.0637552 279.40014699 289.30102112 277.44921875 288.15234375 C276.83369141 287.79462891 276.21816406 287.43691406 275.58398438 287.06835938 C274.64522461 286.50858398 274.64522461 286.50858398 273.6875 285.9375 C273.04232422 285.56044922 272.39714844 285.18339844 271.73242188 284.79492188 C270.15121848 283.86962507 268.5750854 282.93567319 267 282 C266.87882812 282.71285156 266.75765625 283.42570312 266.6328125 284.16015625 C266.46523438 285.11792969 266.29765625 286.07570313 266.125 287.0625 C265.88136719 288.47208984 265.88136719 288.47208984 265.6328125 289.91015625 C264.93541094 293.31537003 263.95490194 296.65784319 263 300 C250.13 300 237.26 300 224 300 C224.04640625 304.56457031 224.0928125 309.12914062 224.140625 313.83203125 C224.16109156 316.74416373 224.18034913 319.65620606 224.1953125 322.56835938 C224.21911548 327.17881965 224.24710587 331.78895864 224.30175781 336.39916992 C224.34559623 340.12098877 224.369216 343.84246254 224.37950897 347.56451988 C224.38683294 348.97614655 224.40113267 350.38775687 224.42292023 351.79923439 C224.61883809 365.03199961 222.3053495 375.25241606 213 385 C203.83288499 393.75121565 193.84634548 396.63039557 181.37817383 396.45410156 C180.27441406 396.45468567 179.1706543 396.45526978 178.03344727 396.45587158 C174.42430985 396.45310888 170.81602246 396.42210205 167.20703125 396.390625 C164.68926952 396.38315618 162.17150194 396.37746628 159.6537323 396.37347412 C153.72887233 396.3598184 147.80428019 396.32836843 141.87955731 396.28807616 C134.46337825 396.23874968 127.0471608 396.21744686 119.63085938 396.1953125 C106.4204167 396.15253107 93.21023817 396.08434112 80 396 C80 401.28 80 406.56 80 412 C82.578125 411.95359375 85.15625 411.9071875 87.8125 411.859375 C90.33119746 411.82811002 92.84987265 411.80386193 95.36865234 411.78027344 C97.10866089 411.76025478 98.84860299 411.73303114 100.58837891 411.69824219 C103.10075346 411.64929048 105.61223275 411.62693413 108.125 411.609375 C108.89303955 411.58872986 109.6610791 411.56808472 110.45239258 411.54681396 C117.04676278 411.54412224 122.07518488 413.47942206 127.08618164 417.79785156 C128.76194726 419.84092682 130.40903736 421.88979368 132 424 C132.55155762 424.72123047 133.10311523 425.44246094 133.67138672 426.18554688 C148.73991541 447.34350484 144 464.59255897 144 492 C70.08 492 -3.84 492 -80 492 C-80 434.92546584 -80 434.92546584 -61.97094727 416.44848633 C-56.228667 412.22837623 -51.12632399 411.56878075 -44.22265625 411.70703125 C-43.00563271 411.71339851 -43.00563271 411.71339851 -41.76402283 411.71989441 C-39.19649744 411.73656133 -36.62978436 411.77418952 -34.0625 411.8125 C-32.31186037 411.8275624 -30.56120832 411.84124807 -28.81054688 411.85351562 C-24.53980702 411.88386195 -20.27080259 411.94260245 -16 412 C-16 406.72 -16 401.44 -16 396 C-17.39124588 396.00888245 -18.78249176 396.01776489 -20.21589661 396.0269165 C-33.35394247 396.10815096 -46.49193708 396.16803688 -59.6301775 396.20724869 C-66.38400721 396.22781738 -73.13764862 396.25582786 -79.89135742 396.30175781 C-86.41415887 396.34609604 -92.93683852 396.36916623 -99.45978355 396.37950897 C-101.94316363 396.3868758 -104.42653354 396.40126131 -106.90983009 396.42292023 C-110.39950929 396.45213463 -113.8883912 396.45594835 -117.37817383 396.45410156 C-118.39525925 396.46848267 -119.41234467 396.48286377 -120.46025085 396.49768066 C-131.6943129 396.43372898 -140.86393908 392.76693906 -149 385 C-160.40923004 373.04854912 -160.58704461 360.26368559 -160.51757812 344.6484375 C-160.52300534 342.59571843 -160.53013135 340.54300327 -160.53881836 338.49029541 C-160.55698325 332.94070043 -160.55001239 327.39140441 -160.53730202 321.8418045 C-160.52713889 316.02001673 -160.53657688 310.19825368 -160.54284668 304.37646484 C-160.55011344 294.60184152 -160.54056084 284.82733929 -160.52148438 275.05273438 C-160.4997176 263.76970146 -160.50676965 252.48695772 -160.52879 241.20393181 C-160.54697164 231.49743623 -160.54948879 221.79102745 -160.53903532 212.08452034 C-160.53281561 206.29561756 -160.53192284 200.50685048 -160.54518127 194.71795654 C-160.55677936 189.27425422 -160.5486417 183.8309229 -160.52560425 178.38726044 C-160.52033829 176.39553186 -160.5217945 174.4037718 -160.53065491 172.41205597 C-160.58752543 158.32387851 -159.71527083 147.38851795 -150.21875 136.2265625 C-146.84150884 132.83742965 -143.12944789 130.3787504 -139 128 C-137.989375 127.38125 -136.97875 126.7625 -135.9375 126.125 C-134.9784375 125.568125 -134.9784375 125.568125 -134 125 C-134.21112427 124.04818848 -134.21112427 124.04818848 -134.42651367 123.07714844 C-135.98631754 115.42455405 -136.3496293 108.04715278 -136.3125 100.25 C-136.30686035 99.0115332 -136.3012207 97.77306641 -136.29541016 96.49707031 C-135.90925582 67.4016794 -123.65524103 43.18770088 -103.26416016 22.8293457 C-76.92998566 -2.46778496 -34.56398911 -11.81580458 0 0 Z M104 12 C104 48.96 104 85.92 104 124 C152.17742799 129.3879979 152.17742799 129.3879979 169.9375 112.9375 C173.22254485 108.51224311 173.22254485 108.51224311 176.23803711 103.90600586 C176.81948486 103.27702393 177.40093262 102.64804199 178 102 C182.39203797 102.17992503 185.49869084 104.29422605 189.1875 106.5625 C192.84667915 109.09296007 192.84667915 109.09296007 197 110 C197.67126129 107.5636811 198.33716354 105.12611117 199 102.6875 C199.28617188 101.65206055 199.28617188 101.65206055 199.578125 100.59570312 C200.37716184 97.64212051 201 95.07440781 201 92 C221.46 92 241.92 92 263 92 C263.99 97.445 263.99 97.445 265 103 C265.62962397 105.34360034 266.27910762 107.68284591 267 110 C271.62747935 108.30601202 275.41839955 105.86772405 279.5 103.14453125 C282 102 282 102 284.546875 102.0703125 C287.5648412 103.21406402 289.06738771 104.70078021 291.25 107.0625 C292.487862 108.3864539 293.73473139 109.70221281 295 111 C295.33 111 295.66 111 296 111 C296 78.33 296 45.66 296 12 C232.64 12 169.28 12 104 12 Z M-92 36 C-92.63164063 36.55042969 -93.26328125 37.10085937 -93.9140625 37.66796875 C-108.92366863 51.54671415 -118.40804546 73.00673846 -119.37890625 93.23046875 C-119.71909482 105.7183 -119.15052967 117.16078423 -115 129 C-114.63777344 130.05960937 -114.27554688 131.11921875 -113.90234375 132.2109375 C-109.29950315 144.34995441 -101.67880066 153.58436577 -93 163 C-92.53418518 163.50972351 -92.06837036 164.01944702 -91.58843994 164.5446167 C-88.53420555 167.88339207 -85.43888998 171.17711065 -82.29907227 174.43554688 C-81.21824963 175.56860136 -80.14926741 176.71306131 -79.09204102 177.86816406 C-77.53130451 179.56956575 -75.9338056 181.22770994 -74.32421875 182.8828125 C-73.86754318 183.39828644 -73.41086761 183.91376038 -72.94035339 184.44485474 C-67.5019814 189.85639888 -64.88214578 188 -56 188 C-56 166.88 -56 145.76 -56 124 C-63.92 123.67 -71.84 123.34 -80 123 C-90.3457895 118.8616842 -96.12255388 115.77256414 -101 106 C-104.36883398 97.64858989 -104.49501478 86.8531163 -101.3125 78.375 C-97.38934081 70.2142821 -91.59733288 65.2578804 -83.23046875 61.8828125 C-74.51873297 59.50209631 -64.21434209 59.88031209 -56.04296875 63.80859375 C-49.12312672 67.84406568 -45.12052619 73.22505628 -41.8984375 80.48046875 C-40.55591152 85.73966835 -40.52788718 90.96661608 -40.375 96.375 C-40.33632812 97.49261719 -40.29765625 98.61023438 -40.2578125 99.76171875 C-40.16393784 102.50755263 -40.08089719 105.25375315 -40 108 C-34.72 108 -29.44 108 -24 108 C-23.97421875 106.38351563 -23.9484375 104.76703125 -23.921875 103.1015625 C-23.8655564 100.94268273 -23.80820994 98.7838296 -23.75 96.625 C-23.73582031 95.56410156 -23.72164063 94.50320312 -23.70703125 93.41015625 C-23.40462365 83.55166835 -21.18785722 75.02449683 -14 68 C-4.75955504 61.13184319 4.75933953 59.83135991 16 61 C24.13092913 62.9235574 30.15189183 66.94037887 34.75 73.9375 C40.05326889 82.54647316 40.5760303 93.33807732 38.27734375 103.0546875 C35.12033047 111.46486863 30.04997533 116.9822908 22 121 C16 123 16 123 -8 124 C-8 145.12 -8 166.24 -8 188 C2.89883044 188.77630891 2.89883044 188.77630891 9.98196411 183.50584412 C10.58861908 182.852939 11.19527405 182.20003387 11.8203125 181.52734375 C12.48988983 180.85264542 13.15946716 180.17794708 13.84933472 179.48280334 C15.25651496 178.05321799 16.64922933 176.60926299 18.02783203 175.15209961 C20.0979479 172.96606689 22.20879892 170.82770423 24.33203125 168.69335938 C36.76772695 156.01836258 46.37543127 142.9850838 52 126 C52.33902344 125.03707031 52.67804688 124.07414062 53.02734375 123.08203125 C59.32354149 101.58211177 55.45895812 77.89829912 44.99609375 58.55078125 C44.33495126 57.36482391 43.67000479 56.18097323 43 55 C42.51660156 54.14792969 42.03320312 53.29585937 41.53515625 52.41796875 C29.32704432 32.77883216 9.24110707 19.39369703 -13.09155273 14.1484375 C-41.73259802 8.02573135 -70.45957092 16.42755032 -92 36 Z M-85.375 83.625 C-87.57907893 88.20270239 -87.7971639 92.00552411 -87 97 C-84.65207342 101.8764629 -81.71239146 104.40337614 -77 107 C-72.6019731 108.21815853 -68.21385922 108.11508505 -63.6875 108.0625 C-62.94693359 108.05798828 -62.20636719 108.05347656 -61.44335938 108.04882812 C-59.62887101 108.03712175 -57.81442466 108.01918898 -56 108 C-54.91722711 93.81721233 -54.91722711 93.81721233 -60.46484375 81.38671875 C-65.17587926 77.29767815 -68.41203334 76.64421225 -74.4609375 76.72265625 C-79.50573015 77.27370283 -82.09986364 80.00511244 -85.375 83.625 Z M-5.3125 83.9375 C-8.24703664 89.26314057 -8.13188484 94.34006626 -8.0625 100.3125 C-8.05798828 101.05306641 -8.05347656 101.79363281 -8.04882812 102.55664062 C-8.03712175 104.37112899 -8.01918898 106.18557534 -8 108 C6.18278767 109.08277289 6.18278767 109.08277289 18.61328125 103.53515625 C22.70232185 98.82412074 23.35578775 95.58796666 23.27734375 89.5390625 C22.72629717 84.49426985 19.99488756 81.90013636 16.375 78.625 C7.83240012 74.51189635 0.5015021 76.55214598 -5.3125 83.9375 Z M215 108 C213.27859651 112.93646816 211.80349457 117.73374995 210.8125 122.875 C209.57985258 127.55643756 209.57985258 127.55643756 207.171875 129.3984375 C203.36710951 130.93443542 200.93005187 131.17832648 197 130 C194.54604297 128.68696643 192.14621869 127.34747014 189.75 125.9375 C189.1003125 125.56044922 188.450625 125.18339844 187.78125 124.79492188 C186.18494909 123.86765885 184.59212471 122.93441544 183 122 C177.19108254 126.81867247 171.86934448 132.01256408 166.5625 137.375 C165.73556641 138.20644531 164.90863281 139.03789062 164.05664062 139.89453125 C162.03544469 141.9274104 160.01663665 143.96259963 158 146 C158.78004988 147.60081769 159.56482139 149.19933516 160.3515625 150.796875 C160.78807129 151.68729492 161.22458008 152.57771484 161.67431641 153.49511719 C162.78539023 155.59449424 163.94064636 157.37118998 165.375 159.25 C167 162 167 162 166.8125 165.1875 C166.24922963 167.13728206 165.64178841 169.07463477 165 171 C170.3136436 171.83066885 175.77579785 172.64021581 181 171 C185.00110898 167.84318443 187.26915414 163.03828369 189.84667969 158.73095703 C196.39944147 148.89626588 209.90917223 143.53075957 221 141 C224.61640518 140.5872184 228.175069 140.52179564 231.8125 140.5625 C232.77518799 140.57079834 233.73787598 140.57909668 234.72973633 140.58764648 C247.36747614 140.88629293 256.81068786 144.58809714 267 152 C267.63421875 152.42667969 268.2684375 152.85335937 268.921875 153.29296875 C278.38106357 160.3439694 285.21590218 173.56768897 287 185 C288.66256788 202.83033609 286.57002817 217.76394744 275 232 C274.38898438 232.82242188 273.77796875 233.64484375 273.1484375 234.4921875 C265.12365507 243.85929717 252.57747469 249.96494148 240.42919922 251.27783203 C223.4601967 252.48192807 209.48376531 249.95862381 196 239 C195.18273437 238.40574219 194.36546875 237.81148437 193.5234375 237.19921875 C190.53513131 234.59485902 188.42253985 231.65209715 186.25 228.375 C185.85167969 227.78976563 185.45335937 227.20453125 185.04296875 226.6015625 C183.5841197 224.44543306 182.16551706 222.33103411 181 220 C175.72 220 170.44 220 165 220 C165.7734375 222.0109375 165.7734375 222.0109375 166.5625 224.0625 C167.82947744 229.89395246 165.6496596 233.32689095 162.625 238.125 C161.12353884 240.44997725 159.58154893 242.72765958 158 245 C162.81867247 250.80891746 168.01256408 256.13065552 173.375 261.4375 C174.20644531 262.26443359 175.03789062 263.09136719 175.89453125 263.94335938 C177.9274104 265.96455531 179.96259963 267.98336335 182 270 C183.60081769 269.21995012 185.19933516 268.43517861 186.796875 267.6484375 C187.68729492 267.21192871 188.57771484 266.77541992 189.49511719 266.32568359 C191.59449424 265.21460977 193.37118998 264.05935364 195.25 262.625 C198 261 198 261 201.0625 261.125 C202.031875 261.41375 203.00125 261.7025 204 262 C205.24330078 262.22623047 205.24330078 262.22623047 206.51171875 262.45703125 C210.02453562 264.63530859 210.22327698 266.98029241 211.16796875 270.88085938 C211.36003906 271.76580078 211.55210937 272.65074219 211.75 273.5625 C212.15906441 275.3143628 212.57040106 277.0656971 212.984375 278.81640625 C213.24299316 279.98345093 213.24299316 279.98345093 213.50683594 281.17407227 C213.83856023 283.00465039 213.83856023 283.00465039 215 284 C217.52094076 284.08847743 220.01430893 284.11527301 222.53515625 284.09765625 C223.28840683 284.0962413 224.04165741 284.09482635 224.81773376 284.09336853 C227.2326956 284.08775376 229.64756601 284.07519883 232.0625 284.0625 C233.69596221 284.0574869 235.32942586 284.05292366 236.96289062 284.04882812 C240.97529585 284.03777954 244.98763241 284.02050506 249 284 C250.72140349 279.06353184 252.19650543 274.26625005 253.1875 269.125 C254.42014742 264.44356244 254.42014742 264.44356244 256.828125 262.6015625 C260.63289049 261.06556458 263.06994813 260.82167352 267 262 C269.45395703 263.31303357 271.85378131 264.65252986 274.25 266.0625 C275.22453125 266.62807617 275.22453125 266.62807617 276.21875 267.20507812 C277.81505091 268.13234115 279.40787529 269.06558456 281 270 C286.80891746 265.18132753 292.13065552 259.98743592 297.4375 254.625 C298.67790039 253.37783203 298.67790039 253.37783203 299.94335938 252.10546875 C301.96455531 250.0725896 303.98336335 248.03740037 306 246 C305.21995012 244.39918231 304.43517861 242.80066484 303.6484375 241.203125 C303.21192871 240.31270508 302.77541992 239.42228516 302.32568359 238.50488281 C301.21460977 236.40550576 300.05935364 234.62881002 298.625 232.75 C297 230 297 230 297.125 226.9375 C297.41375 225.968125 297.7025 224.99875 298 224 C298.15082031 223.17113281 298.30164063 222.34226562 298.45703125 221.48828125 C300.63530859 217.97546438 302.98029241 217.77672302 306.88085938 216.83203125 C307.76580078 216.63996094 308.65074219 216.44789063 309.5625 216.25 C311.3143628 215.84093559 313.0656971 215.42959894 314.81640625 215.015625 C315.59443604 214.84321289 316.37246582 214.67080078 317.17407227 214.49316406 C319.00465039 214.16143977 319.00465039 214.16143977 320 213 C320.08847743 210.47905924 320.11527301 207.98569107 320.09765625 205.46484375 C320.0962413 204.71159317 320.09482635 203.95834259 320.09336853 203.18226624 C320.08775376 200.7673044 320.07519883 198.35243399 320.0625 195.9375 C320.0574869 194.30403779 320.05292366 192.67057414 320.04882812 191.03710938 C320.03777954 187.02470415 320.02050506 183.01236759 320 179 C315.06353184 177.27859651 310.26625005 175.80349457 305.125 174.8125 C300.44356244 173.57985258 300.44356244 173.57985258 298.6015625 171.171875 C297.06556458 167.36710951 296.82167352 164.93005187 298 161 C299.31303357 158.54604297 300.65252986 156.14621869 302.0625 153.75 C302.62807617 152.77546875 302.62807617 152.77546875 303.20507812 151.78125 C304.13234115 150.18494909 305.06558456 148.59212471 306 147 C301.18132753 141.19108254 295.98743592 135.86934448 290.625 130.5625 C289.37783203 129.32209961 289.37783203 129.32209961 288.10546875 128.05664062 C286.0725896 126.03544469 284.03740037 124.01663665 282 122 C280.39918231 122.78004988 278.80066484 123.56482139 277.203125 124.3515625 C276.31270508 124.78807129 275.42228516 125.22458008 274.50488281 125.67431641 C272.40550576 126.78539023 270.62881002 127.94064636 268.75 129.375 C266 131 266 131 262.9375 130.875 C261.968125 130.58625 260.99875 130.2975 260 130 C259.17113281 129.84917969 258.34226562 129.69835937 257.48828125 129.54296875 C253.97546438 127.36469141 253.77672302 125.01970759 252.83203125 121.11914062 C252.63996094 120.23419922 252.44789063 119.34925781 252.25 118.4375 C251.84093559 116.6856372 251.42959894 114.9343029 251.015625 113.18359375 C250.84321289 112.40556396 250.67080078 111.62753418 250.49316406 110.82592773 C250.16143977 108.99534961 250.16143977 108.99534961 249 108 C246.47905924 107.91152257 243.98569107 107.88472699 241.46484375 107.90234375 C240.71159317 107.9037587 239.95834259 107.90517365 239.18226624 107.90663147 C236.7673044 107.91224624 234.35243399 107.92480117 231.9375 107.9375 C230.30403779 107.9425131 228.67057414 107.94707634 227.03710938 107.95117188 C223.02470415 107.96222046 219.01236759 107.97949494 215 108 Z M-40 124 C-40 145.12 -40 166.24 -40 188 C-34.72 188 -29.44 188 -24 188 C-24 166.88 -24 145.76 -24 124 C-29.28 124 -34.56 124 -40 124 Z M65 140 C61.7 145.94 58.4 151.88 55 158 C52.38454266 161.54092686 49.9053452 164.75236149 47 168 C46.35683838 168.7537793 45.71367676 169.50755859 45.05102539 170.28417969 C41.07985523 174.84638387 37.03710125 178.91195901 32.34375 182.734375 C19.89898096 192.93976788 19.89898096 192.93976788 14.52734375 207.609375 C14.31011596 212.73317239 14.57024067 217.73340914 14.93359375 222.84375 C15.53830759 233.33528343 11.70171966 243.11279224 4.875 251.04296875 C-3.49388169 259.77798902 -12.43427087 264.56380511 -24 268 C-24.28629777 273.53509023 -24.26719764 277.26819653 -21 282 C-15.20311545 285.07580425 -8.66220373 284.33481251 -2.28051758 284.31567383 C-0.07257685 284.31251442 2.13402154 284.33599663 4.34179688 284.36132812 C5.75781082 284.3636016 7.17382834 284.36430439 8.58984375 284.36328125 C9.86722412 284.36626221 11.14460449 284.36924316 12.46069336 284.37231445 C16.37529499 283.96052115 18.73635592 283.19442124 22 281 C23.95481279 277.60244961 24.24738384 274.63561658 24.2734375 270.76171875 C24.2940625 269.77623047 24.3146875 268.79074219 24.3359375 267.77539062 C24.36182988 265.72859822 24.38014807 263.68169498 24.390625 261.63476562 C24.5658655 254.16270531 25.79900839 248.70942652 30.74609375 242.9765625 C31.30425781 242.53054687 31.86242187 242.08453125 32.4375 241.625 C33.27087891 240.93277344 33.27087891 240.93277344 34.12109375 240.2265625 C40.60237506 235.99553894 47.50761669 236.32967352 55 237 C61.20594371 238.63211433 65.53618117 242.69395906 69 248 C70.64767511 251.56165652 71.25494064 254.39472187 71.30859375 258.30859375 C71.33373047 259.30310547 71.35886719 260.29761719 71.38476562 261.32226562 C71.41985471 263.39512086 71.45111953 265.46804444 71.47851562 267.54101562 C71.62469805 273.04959714 71.79824894 277.28784058 75 282 C77.84083641 283.42041821 79.85477278 283.31452272 83 283 C85.84780619 280.76793569 86.84997666 279.45007001 88 276 C88.09606132 274.24784379 88.1353934 272.49232447 88.1418457 270.73754883 C88.14888016 269.6624556 88.15591461 268.58736237 88.16316223 267.47969055 C88.16940865 265.7359742 88.16940865 265.7359742 88.17578125 263.95703125 C88.19898465 261.49673628 88.22310219 259.0364498 88.24804688 256.57617188 C88.28312284 252.6964759 88.31248409 248.81709091 88.32592773 244.93725586 C88.34144036 241.19346367 88.38167935 237.45058178 88.42578125 233.70703125 C88.42387283 232.55467484 88.42196442 231.40231842 88.41999817 230.21504211 C88.53675144 222.49196471 89.55431176 216.99298995 94.74609375 210.9765625 C95.30425781 210.53054687 95.86242187 210.08453125 96.4375 209.625 C97.27087891 208.93277344 97.27087891 208.93277344 98.12109375 208.2265625 C103.13659371 204.95241076 107.78756975 204.72061457 113.64575195 204.77294922 C114.93431847 204.77251114 114.93431847 204.77251114 116.24891663 204.77206421 C119.07880878 204.7734538 121.90843527 204.78899755 124.73828125 204.8046875 C126.70411536 204.80841895 128.66995133 204.8112653 130.63578796 204.81326294 C135.80283772 204.820889 140.96977456 204.84052873 146.13677979 204.8626709 C151.41213453 204.88315141 156.68750756 204.89226938 161.96289062 204.90234375 C172.30864329 204.92377554 182.65431224 204.95789915 193 205 C193.33651077 205.82972321 193.67302155 206.65944641 194.01972961 207.51431274 C194.46479355 208.59965302 194.90985748 209.68499329 195.3684082 210.80322266 C195.80804398 211.88044586 196.24767975 212.95766907 196.70063782 214.0675354 C200.57661313 222.81502747 208.40893276 229.11168822 217 233 C227.69393439 236.66612935 240.04690427 236.67162494 250.28515625 231.671875 C259.67596798 225.88875641 266.53492917 218.19050072 270.12890625 207.70703125 C272.75193094 196.54447325 272.08422973 184.87976557 266 175 C259.63789673 166.19575079 251.56964138 159.85457468 241 157 C228.31284606 155.91216826 217.02873023 156.9441727 206.83984375 165.3203125 C199.56639022 171.96062039 197.048225 177.28426001 193 187 C158.35 187.33 123.7 187.66 88 188 C88 185.03 88 182.06 88 179 C87.71207743 176.66062911 87.39550686 174.32360278 87 172 C89.15364583 172 91.30729167 172 93.4609375 172 C94.13450287 171.9992749 94.80806824 171.9985498 95.50204468 171.99780273 C99.04233842 171.99494622 102.58191712 172.00217149 106.12207031 172.03515625 C109.58765428 172.06489932 113.05112784 172.05003268 116.51660156 172.01220703 C117.9257712 172.00404834 119.33509581 172.01030784 120.74414062 172.03076172 C131.93359302 172.17799136 139.04315701 169.77210604 148 163 C146.70966095 160.72840311 145.41778598 158.45770375 144.125 156.1875 C143.57779297 155.22360352 143.57779297 155.22360352 143.01953125 154.24023438 C141.41916099 151.43231202 139.79357134 148.69035702 138 146 C138.33 144.02 138.66 142.04 139 140 C114.58 140 90.16 140 65 140 Z M-136.66015625 147.6484375 C-173.97211226 189.63584745 -144 259.82950369 -144 316 C-27.84 316 88.32 316 208 316 C208 310.72 208 305.44 208 300 C205.69 300 203.38 300 201 300 C200.87882812 299.28714844 200.75765625 298.57429687 200.6328125 297.83984375 C199.68936031 292.44765159 198.62637791 287.22764328 197 282 C192.37252065 283.69398798 188.58160045 286.13227595 184.5 288.85546875 C181.3866043 290.28082022 180.23815683 289.99163264 177 289 C174.91140747 287.43280029 174.91140747 287.43280029 172.83642578 285.38574219 C172.05276642 284.62114685 171.26910706 283.85655151 170.46170044 283.06878662 C169.63129242 282.23655579 168.8008844 281.40432495 167.9453125 280.546875 C167.08436981 279.69450256 166.22342712 278.84213013 165.33639526 277.96392822 C163.5209257 276.15993945 161.71066816 274.35069251 159.90527344 272.53662109 C157.13191944 269.75693523 154.33297018 267.0049633 151.53125 264.25390625 C149.77181755 262.49901848 148.01395011 260.74255995 146.2578125 258.984375 C145.41525909 258.16024109 144.57270569 257.33610718 143.70462036 256.48699951 C142.93987396 255.70979553 142.17512756 254.93259155 141.38720703 254.13183594 C140.36725143 253.11376862 140.36725143 253.11376862 139.32669067 252.07513428 C138 250 138 250 138.22956848 247.36329651 C138.97234115 245.08484345 139.81029868 243.26500917 141.06640625 241.23046875 C141.46923828 240.56982422 141.87207031 239.90917969 142.28710938 239.22851562 C142.70798828 238.55498047 143.12886719 237.88144531 143.5625 237.1875 C144.19961914 236.14819336 144.19961914 236.14819336 144.84960938 235.08789062 C145.89309456 233.38783049 146.94565296 231.69334524 148 230 C147.2575 229.40703125 146.515 228.8140625 145.75 228.203125 C144.16265623 226.93144618 142.59012357 225.6397054 141.0625 224.296875 C135.06750651 219.80062988 129.5040447 219.44498354 122.25 219.4375 C121.33863281 219.43524414 120.42726563 219.43298828 119.48828125 219.43066406 C114.35606448 219.556897 110.30437867 219.9206096 106 223 C104.20074735 226.58170944 103.74994929 229.50894341 103.74462891 233.48950195 C103.73766998 234.56444412 103.73071106 235.63938629 103.72354126 236.74690247 C103.72503677 238.47513496 103.72503677 238.47513496 103.7265625 240.23828125 C103.70627178 242.69206184 103.68542097 245.14583785 103.6640625 247.59960938 C103.64147842 251.45731475 103.62499645 255.31483901 103.61914062 259.17260742 C103.60959773 262.90316288 103.57579578 266.63290807 103.5390625 270.36328125 C103.54410797 271.50936356 103.54915344 272.65544586 103.55435181 273.83625793 C103.46004817 281.5464934 102.43695226 287.01713362 97.25390625 293.0234375 C96.69574219 293.46945312 96.13757813 293.91546875 95.5625 294.375 C95.00691406 294.83648437 94.45132813 295.29796875 93.87890625 295.7734375 C87.39762494 300.00446106 80.49238331 299.67032648 73 299 C66.79405629 297.36788567 62.46381883 293.30604094 59 288 C57.35232489 284.43834348 56.74505936 281.60527813 56.69140625 277.69140625 C56.66626953 276.69689453 56.64113281 275.70238281 56.61523438 274.67773438 C56.58014529 272.60487914 56.54888047 270.53195556 56.52148438 268.45898438 C56.37530195 262.95040286 56.20175106 258.71215942 53 254 C50.15916359 252.57958179 48.14522722 252.68547728 45 253 C42.15219381 255.23206431 41.15002334 256.54992999 40 260 C39.89757069 261.67888875 39.84521769 263.36108937 39.82421875 265.04296875 C39.80037109 266.03490234 39.77652344 267.02683594 39.75195312 268.04882812 C39.70938959 270.12154335 39.6779215 272.19451969 39.65820312 274.26757812 C39.45014041 281.76267443 38.21645732 287.27265125 33.25390625 293.0234375 C32.69574219 293.46945312 32.13757813 293.91546875 31.5625 294.375 C31.00691406 294.83648437 30.45132813 295.29796875 29.87890625 295.7734375 C24.3336969 299.39338705 19.1605628 299.3209566 12.73046875 299.3359375 C11.73549881 299.3425943 10.74052887 299.3492511 9.71540833 299.35610962 C7.61326949 299.36621898 5.51109867 299.37092717 3.40893555 299.37060547 C0.20892828 299.37497077 -2.98969038 299.41128761 -6.18945312 299.44921875 C-8.23697448 299.45508899 -10.28450235 299.459057 -12.33203125 299.4609375 C-13.28124954 299.47530853 -14.23046783 299.48967957 -15.20845032 299.50448608 C-22.27851563 299.45637353 -27.61338427 297.92242709 -33.0234375 293.25390625 C-33.46945313 292.69574219 -33.91546875 292.13757813 -34.375 291.5625 C-34.83648437 291.00691406 -35.29796875 290.45132813 -35.7734375 289.87890625 C-38.83507138 285.18895116 -39.37250036 280.68462753 -39.625 275.1875 C-39.66367188 274.49462891 -39.70234375 273.80175781 -39.7421875 273.08789062 C-39.83573568 271.39232985 -39.91892364 269.69620288 -40 268 C-41.34191406 267.58041016 -41.34191406 267.58041016 -42.7109375 267.15234375 C-56.68977476 262.51756935 -67.87349305 255.32687487 -74.875 241.875 C-75.9921875 239.5546875 -75.9921875 239.5546875 -77 237 C-77.39832031 236.02546875 -77.79664062 235.0509375 -78.20703125 234.046875 C-79.20542361 230.4846034 -78.82173399 227.42559157 -78.39453125 223.7734375 C-77.47217913 213.99650503 -76.59128657 204.20781566 -82.72363281 195.97314453 C-88.93872105 188.53602608 -96.30711982 182.22528273 -103.62541199 175.90983582 C-112.21883859 168.37804063 -118.79269649 159.28505235 -124.125 149.1875 C-124.50914063 148.48302734 -124.89328125 147.77855469 -125.2890625 147.05273438 C-126.20271544 145.37389709 -127.10301646 143.68780237 -128 142 C-131.08841465 142 -134.5727328 145.57574881 -136.66015625 147.6484375 Z M-64 204 C-64.5326154 224.03035008 -64.5326154 224.03035008 -56 241 C-48.82717271 248.04024268 -42.10394593 251.09228241 -32.125 251.4375 C-23.36195394 251.22193844 -16.04898547 248.90170261 -9.59765625 242.81640625 C0.81659412 230.97624385 0 219.65785181 0 204 C-21.12 204 -42.24 204 -64 204 Z M-144 332 C-145.48395409 352.62453258 -145.48395409 352.62453258 -138 371 C-131.02188479 377.92827153 -124.38342856 380.12106666 -114.53917217 380.12863445 C-113.47382392 380.1318589 -112.40847566 380.13508335 -111.31084412 380.1384055 C-109.57199589 380.1360826 -109.57199589 380.1360826 -107.79801941 380.13371277 C-106.55784303 380.13597833 -105.31766666 380.13824388 -104.03990918 380.14057809 C-100.60474502 380.14580926 -97.16963324 380.14656366 -93.73446882 380.14538372 C-90.02679723 380.14517946 -86.31913341 380.15070084 -82.61146545 380.15544128 C-75.35012031 380.16374298 -68.08878328 380.16649591 -60.82743379 380.16705366 C-54.92423907 380.16752905 -49.02104703 380.16958493 -43.11785316 380.17275429 C-26.37628303 380.18155954 -9.6347193 380.18617386 7.10685316 380.18542381 C8.46028775 380.18536388 8.46028775 380.18536388 9.84106445 380.18530273 C11.19615408 380.18524141 11.19615408 380.18524141 12.57861926 380.18517885 C27.2188512 380.18477242 41.85905742 380.19434172 56.49928192 380.2084411 C71.53659218 380.22280848 86.57388989 380.22971109 101.61120719 380.22884732 C110.05156935 380.22851548 118.49190454 380.23125705 126.93226051 380.24202538 C134.11858009 380.25113513 141.30486047 380.25330172 148.49118332 380.24651595 C152.15607466 380.24325315 155.82089082 380.24318537 159.48577499 380.2518692 C163.46290754 380.26119579 167.43993058 380.25495187 171.41706848 380.24723816 C172.56960847 380.25238172 173.72214846 380.25752529 174.90961391 380.26282471 C184.75059966 380.22065374 193.35650891 379.68409175 200.62890625 372.359375 C211.12225624 360.72819188 208 347.8390705 208 332 C176.32 332 144.64 332 112 332 C111.67 336.95 111.34 341.9 111 347 C108.75859038 353.29318855 105.62117669 357.33045846 100 361 C96.41813588 362.66206884 93.60750131 363.2529859 89.66911316 363.26742554 C88.61361771 363.27595551 87.55812225 363.28448547 86.47064209 363.29327393 C85.32299377 363.29236755 84.17534546 363.29146118 82.99291992 363.29052734 C81.77609024 363.29724457 80.55926056 363.30396179 79.30555725 363.31088257 C75.97476741 363.32661128 72.64422695 363.33323679 69.3134172 363.33451414 C67.2296637 363.33593805 65.14593614 363.34021221 63.0621891 363.34550858 C55.78452527 363.3640007 48.50693459 363.37218035 41.22924805 363.37060547 C34.45873384 363.36940476 27.68853878 363.39049496 20.9181053 363.4220928 C15.09455792 363.44829728 9.27111448 363.458971 3.44750863 363.45769465 C-0.025875 363.45718617 -3.49897497 363.46280531 -6.97229958 363.48405075 C-10.84990372 363.50712232 -14.72707484 363.49788669 -18.60473633 363.48583984 C-19.74631195 363.49707886 -20.88788757 363.50831787 -22.0640564 363.51989746 C-29.68805248 363.45978446 -35.08588806 362.3776217 -41.0234375 357.25390625 C-41.69246094 356.41666016 -41.69246094 356.41666016 -42.375 355.5625 C-43.06722656 354.72912109 -43.06722656 354.72912109 -43.7734375 353.87890625 C-48.4827559 346.66495035 -47.37612416 341.35813766 -48 332 C-79.68 332 -111.36 332 -144 332 Z M-32 332 C-32.25313245 339.80717911 -32.25313245 339.80717911 -29 346 C-25.3349605 347.87240458 -22.34491555 348.23898305 -18.26171875 348.1953125 C-17.19501953 348.18886719 -16.12832031 348.18242187 -15.02929688 348.17578125 C-13.92650391 348.15902344 -12.82371094 348.14226562 -11.6875 348.125 C-10.56537109 348.11597656 -9.44324219 348.10695313 -8.28710938 348.09765625 C-5.52464783 348.07414594 -2.7622964 348.03827662 0 348 C0 342.72 0 337.44 0 332 C-10.56 332 -21.12 332 -32 332 Z M16 332 C16 337.28 16 342.56 16 348 C26.56 348 37.12 348 48 348 C48 342.72 48 337.44 48 332 C37.44 332 26.88 332 16 332 Z M64 332 C64 337.28 64 342.56 64 348 C67.87542277 348.0811135 71.74913882 348.1405605 75.625 348.1875 C76.71941406 348.21263672 77.81382812 348.23777344 78.94140625 348.26367188 C86.89972472 348.36676048 86.89972472 348.36676048 94 345 C96.78060181 340.5763153 96 337.63875369 96 332 C85.44 332 74.88 332 64 332 Z M0 396 C0 411.84 0 427.68 0 444 C21.12 444 42.24 444 64 444 C64 428.16 64 412.32 64 396 C42.88 396 21.76 396 0 396 Z M-51 430 C-52.57404862 431.69633441 -52.57404862 431.69633441 -53.6875 433.75 C-54.08324219 434.40484375 -54.47898437 435.0596875 -54.88671875 435.734375 C-56.3318227 438.54691051 -56.3318227 438.54691051 -58 444 C-44.14 444 -30.28 444 -16 444 C-16 438.72 -16 433.44 -16 428 C-20.18118657 427.95396859 -24.36148611 427.91418064 -28.54272461 427.89013672 C-29.96365343 427.88010854 -31.38456178 427.86648259 -32.80541992 427.84912109 C-34.85340444 427.82473179 -36.90111498 427.8134851 -38.94921875 427.8046875 C-40.17987061 427.79421387 -41.41052246 427.78374023 -42.6784668 427.77294922 C-45.93347204 427.99545233 -48.1086776 428.52844734 -51 430 Z M80 428 C80 433.28 80 438.56 80 444 C93.86 444 107.72 444 122 444 C120.21792249 438.60008573 120.21792249 438.60008573 117.6875 433.75 C117.29949219 433.08484375 116.91148437 432.4196875 116.51171875 431.734375 C114.51142193 429.43946082 112.90567748 428.92269841 110 428 C106.61321072 427.72583754 106.61321072 427.72583754 102.94921875 427.8046875 C102.29041214 427.8075174 101.63160553 427.81034729 100.95283508 427.81326294 C98.86419938 427.82439076 96.77600444 427.84948052 94.6875 427.875 C93.26498018 427.88503941 91.8424536 427.89416358 90.41992188 427.90234375 C86.94631127 427.92259804 83.47364461 427.96175804 80 428 Z M-64 460 C-64 465.28 -64 470.56 -64 476 C-0.64 476 62.72 476 128 476 C128 470.72 128 465.44 128 460 C64.64 460 1.28 460 -64 460 Z " fill="#fefefe" transform="translate(168,12)"/>
<path d="M0 0 C52.8 0 105.6 0 160 0 C160 5.28 160 10.56 160 16 C107.2 16 54.4 16 0 16 C0 10.72 0 5.44 0 0 Z " fill="#fefefe" transform="translate(288,72)"/>
<path d="M0 0 C42.24 0 84.48 0 128 0 C128 5.28 128 10.56 128 16 C85.76 16 43.52 16 0 16 C0 10.72 0 5.44 0 0 Z " fill="#fefefe" transform="translate(320,40)"/>
<path d="M0 0 C5.28 0 10.56 0 16 0 C16 5.28 16 10.56 16 16 C10.72 16 5.44 16 0 16 C0 10.72 0 5.44 0 0 Z " fill="#fefefe" transform="translate(40,296)"/>
<path d="M0 0 C5.28 0 10.56 0 16 0 C16 5.28 16 10.56 16 16 C10.72 16 5.44 16 0 16 C0 10.72 0 5.44 0 0 Z " fill="#fefefe" transform="translate(40,264)"/>
<path d="M0 0 C5.28 0 10.56 0 16 0 C16 5.28 16 10.56 16 16 C10.72 16 5.44 16 0 16 C0 10.72 0 5.44 0 0 Z " fill="#fefefe" transform="translate(40,232)"/>
<path d="M0 0 C5.28 0 10.56 0 16 0 C16 5.28 16 10.56 16 16 C10.72 16 5.44 16 0 16 C0 10.72 0 5.44 0 0 Z " fill="#fefefe" transform="translate(224,184)"/>
<path d="M0 0 C5.28 0 10.56 0 16 0 C16 5.28 16 10.56 16 16 C10.72 16 5.44 16 0 16 C0 10.72 0 5.44 0 0 Z " fill="#fefefe" transform="translate(320,104)"/>
<path d="M0 0 C5.28 0 10.56 0 16 0 C16 5.28 16 10.56 16 16 C10.72 16 5.44 16 0 16 C0 10.72 0 5.44 0 0 Z " fill="#fefefe" transform="translate(288,104)"/>
<path d="M0 0 C5.28 0 10.56 0 16 0 C16 5.28 16 10.56 16 16 C10.72 16 5.44 16 0 16 C0 10.72 0 5.44 0 0 Z " fill="#fefefe" transform="translate(288,40)"/>
</svg>
