<?xml version="1.0" encoding="UTF-8"?>
<svg version="1.1" xmlns="http://www.w3.org/2000/svg" width="512" height="512">
<path d="M0 0 C2.20838731 0.00850782 4.41418243 -0.02027097 6.62231445 -0.05200195 C8.03832931 -0.05361442 9.4543487 -0.05303556 10.87036133 -0.05004883 C12.1477417 -0.05190186 13.42512207 -0.05375488 14.74121094 -0.05566406 C18.90952472 0.53520886 21.04610454 1.79126727 24.28051758 4.44604492 C25.93217155 7.4010918 27.22536168 10.26858761 28.4699707 13.40112305 C30.01458016 16.90547912 31.35256945 18.83140459 34.80004883 20.38745117 C39.67914511 21.87144118 43.07351074 21.13759579 47.88598633 19.62963867 C48.82055664 19.34217773 49.75512695 19.0547168 50.71801758 18.75854492 C51.58297852 18.46592773 52.44793945 18.17331055 53.33911133 17.87182617 C57.44707361 17.2771809 60.58379674 17.64207788 64.28051758 19.44604492 C67.87593085 22.28774133 70.99814861 25.50678806 74.15551758 28.82104492 C75.00887695 29.6847168 75.86223633 30.54838867 76.74145508 31.43823242 C85.5593884 40.47940456 85.5593884 40.47940456 85.59301758 46.63354492 C85.53639447 50.08755441 84.93436811 52.78354213 83.71801758 56.00854492 C82.00002731 60.62211504 82.30318457 63.64082431 83.28051758 68.44604492 C83.37333008 69.62166992 83.37333008 69.62166992 83.46801758 70.82104492 C84.18855483 72.72980283 84.18855483 72.72980283 86.71801758 73.32104492 C87.89364258 73.69229492 89.06926758 74.06354492 90.28051758 74.44604492 C92.03433789 75.33657169 93.76252618 76.27863539 95.46801758 77.25854492 C96.30719727 77.73936523 97.14637695 78.22018555 98.01098633 78.71557617 C100.71000674 80.77352117 101.78828068 82.39424426 103.28051758 85.44604492 C103.81886774 89.86702195 103.75363724 94.28933906 103.7265625 98.73828125 C103.71805451 100.87427241 103.74683477 103.0075833 103.77856445 105.14331055 C103.78017694 106.51375246 103.77959803 107.88419906 103.77661133 109.25463867 C103.77846436 110.49012451 103.78031738 111.72561035 103.78222656 112.99853516 C103.15078708 117.33749232 101.38816078 120.33840172 98.28051758 123.44604492 C98.96705351 123.44751148 99.65358944 123.44897804 100.36092949 123.45048904 C117.09670028 123.48760519 133.83223663 123.54668334 150.56783867 123.62994766 C158.66119578 123.66968952 166.75445634 123.70210657 174.84790039 123.71704102 C181.90543908 123.7300828 188.9627649 123.75711154 196.02018368 123.80065799 C199.75410754 123.82321638 203.48776939 123.83895901 207.22176743 123.83792877 C211.39903896 123.83703911 215.57554222 123.86738802 219.75268555 123.90014648 C221.59228096 123.89260094 221.59228096 123.89260094 223.46903992 123.88490295 C234.37131869 124.01683908 242.33970561 126.68571854 250.30004883 134.22338867 C256.44761169 141.12272451 258.43009697 147.74689155 258.4276886 156.80715942 C258.43136529 157.55081155 258.43504197 158.29446367 258.43883008 159.06065071 C258.44984775 161.55386855 258.45370752 164.04704468 258.45751953 166.5402832 C258.46378569 168.32758211 258.47043263 170.11487972 258.47743225 171.9021759 C258.49845911 177.77356054 258.50883423 183.64494539 258.51879883 189.51635742 C258.52284707 191.53939706 258.52696402 193.56243656 258.53114891 195.58547592 C258.55019856 205.09167642 258.56442936 214.59786917 258.57276088 224.10408509 C258.58252899 235.06775442 258.6088384 246.03122163 258.64926177 256.99481976 C258.67945204 265.4748184 258.69423257 273.95475919 258.69754189 282.43481052 C258.69988929 287.49668211 258.7088093 292.55833771 258.73400307 297.62015152 C258.75733932 302.38576515 258.76149471 307.15102144 258.75124168 311.91667747 C258.75074754 313.66050469 258.75703192 315.40434983 258.77079773 317.14812279 C258.86603472 329.93324764 257.72098088 339.8522615 248.55004883 349.46557617 C241.8066067 355.35012895 236.24439332 356.45005873 227.28051758 357.44604492 C227.28051758 388.13604492 227.28051758 418.82604492 227.28051758 450.44604492 C233.88051758 450.44604492 240.48051758 450.44604492 247.28051758 450.44604492 C252.89190606 453.25173916 255.5440571 454.97312397 258.28051758 460.44604492 C258.63692035 464.89711956 258.65204401 469.35759153 258.71801758 473.82104492 C258.78666016 475.65989258 258.78666016 475.65989258 258.85668945 477.53588867 C258.98488913 488.04826232 256.17206717 496.46774575 249.09301758 504.38354492 C238.84270841 513.18392678 228.20156051 513.16310649 215.40304565 513.07423401 C213.48605217 513.07928394 211.56906341 513.08651621 209.65208542 513.09573215 C204.40382374 513.11461732 199.15602962 513.1024416 193.90777993 513.08500922 C188.2403751 513.07161859 182.57303792 513.08707833 176.90563965 513.09883118 C165.81147639 513.11719868 154.7174894 513.10870161 143.62333165 513.09074295 C134.60716293 513.07671193 125.59104203 513.07282524 116.57486343 513.07618523 C115.29118471 513.07666267 114.00750599 513.07714011 112.68492792 513.07763202 C110.07710836 513.07865836 107.46928882 513.07971372 104.86146928 513.08079778 C81.11228262 513.08962157 57.36320003 513.07097889 33.61403714 513.04026755 C11.94179541 513.01240151 -9.73033411 513.00744705 -31.40258789 513.02246094 C-36.95371558 513.0262835 -42.50484328 513.03007833 -48.05597115 513.03363132 C-49.08114362 513.03428805 -49.08114362 513.03428805 -50.12702665 513.03495804 C-68.24761194 513.04620088 -86.36818505 513.03877399 -104.48876846 513.02575058 C-107.08633223 513.0239062 -109.68389602 513.02207147 -112.28145981 513.02024651 C-113.5594957 513.01933442 -114.83753159 513.01842233 -116.15429584 513.0174826 C-125.1606144 513.01187651 -134.16690457 513.015185 -143.17322159 513.02179146 C-154.1473288 513.02952185 -165.12131542 513.02278233 -176.09539832 512.99761642 C-181.6944867 512.98511547 -187.29338724 512.97898229 -192.89248276 512.99015808 C-198.01832633 513.00019613 -203.14379525 512.99174977 -208.26959322 512.9685769 C-210.12337637 512.96341621 -211.97719307 512.96498195 -213.8309616 512.97397155 C-226.49368089 513.03026735 -235.45746765 512.10213812 -245.00073242 503.16479492 C-252.57233341 495.59319394 -254.1061222 488.53377572 -254.1784668 478.08276367 C-254.17137695 476.84139648 -254.16428711 475.6000293 -254.15698242 474.32104492 C-254.17696289 473.07194336 -254.19694336 471.8228418 -254.2175293 470.53588867 C-254.21393446 463.79915706 -254.12568561 459.62878689 -249.71948242 454.44604492 C-249.71948242 451.22333824 -250.2638018 450.25559999 -251.68713379 447.46130371 C-254.98437645 439.38186659 -254.27728879 430.78161591 -254.23706055 422.2019043 C-254.24248723 420.25608294 -254.24961295 418.3102657 -254.25830078 416.36445618 C-254.27647198 411.10204475 -254.26949222 405.83994846 -254.25678444 400.57753181 C-254.24662459 395.05823064 -254.25605839 389.53895561 -254.2623291 384.01965332 C-254.26959682 374.75271789 -254.26004077 365.48591016 -254.2409668 356.21899414 C-254.21919981 345.52046711 -254.2262518 334.82224505 -254.24827242 324.12372541 C-254.26645135 314.92171868 -254.26897254 305.7198035 -254.25851774 296.5177846 C-254.25229654 291.02903275 -254.25140937 285.54042404 -254.2646637 280.05168152 C-254.27625785 274.8903349 -254.26813134 269.72937972 -254.24508667 264.56807518 C-254.23981861 262.67913143 -254.24128058 260.79015447 -254.25013733 258.90122414 C-254.30475658 246.06419931 -253.77454698 235.89465104 -244.50073242 226.12963867 C-238.32758211 220.29492862 -231.16563645 217.33069134 -222.71948242 217.44604492 C-222.74042969 216.37757324 -222.76137695 215.30910156 -222.78295898 214.20825195 C-222.85597563 210.20139241 -222.90150354 206.19459027 -222.93920898 202.18725586 C-222.95918527 200.4609179 -222.98637614 198.73464639 -223.02124023 197.00854492 C-223.28464537 183.62136634 -222.63715941 173.61409267 -213.00854492 163.42651367 C-206.94138102 158.17727801 -199.82301854 155.31714499 -191.83465576 155.32579041 C-190.85311523 155.32441574 -189.87157471 155.32304108 -188.86029053 155.32162476 C-187.78998596 155.32522003 -186.7196814 155.32881531 -185.61694336 155.33251953 C-184.48494507 155.3323735 -183.35294678 155.33222748 -182.18664551 155.33207703 C-178.44236337 155.33277409 -174.69813088 155.34055688 -170.95385742 155.34838867 C-168.35882596 155.35025358 -165.76379415 155.35167714 -163.16876221 155.35267639 C-157.03484047 155.35610534 -150.90093924 155.36398809 -144.76702523 155.37402588 C-137.78278731 155.38520686 -130.79854852 155.39070247 -123.81430387 155.39572132 C-109.44935381 155.40617123 -95.08441875 155.42375831 -80.71948242 155.44604492 C-80.57768555 154.18920898 -80.43588867 152.93237305 -80.28979492 151.63745117 C-79.98463595 148.93263297 -79.54857115 146.98078647 -78.59448242 144.38354492 C-77.49859066 140.70447973 -77.9718348 138.18428305 -78.71948242 134.44604492 C-78.90510742 133.47666992 -79.09073242 132.50729492 -79.28198242 131.50854492 C-79.49854492 130.48760742 -79.49854492 130.48760742 -79.71948242 129.44604492 C-80.92604492 129.10573242 -80.92604492 129.10573242 -82.15698242 128.75854492 C-85.02800714 127.70079897 -87.63264448 126.5900641 -90.34448242 125.19604492 C-91.44663086 124.63143555 -91.44663086 124.63143555 -92.57104492 124.05541992 C-96.48062772 121.12678699 -98.50893291 117.84202788 -99.23706055 113.0144043 C-99.24382812 111.17072266 -99.24382812 111.17072266 -99.25073242 109.28979492 C-99.25455933 108.62443726 -99.25838623 107.95907959 -99.2623291 107.27355957 C-99.26503555 105.87514725 -99.25776336 104.4766832 -99.2409668 103.07836914 C-99.21953305 100.95106998 -99.24080552 98.82714667 -99.26635742 96.69995117 C-99.26371391 95.33405838 -99.25858844 93.96816768 -99.25073242 92.60229492 C-99.2462207 91.37317383 -99.24170898 90.14405273 -99.23706055 88.87768555 C-98.62072356 84.79125503 -97.29704958 82.64343761 -94.71948242 79.44604492 C-91.55541992 77.32885742 -91.55541992 77.32885742 -88.09448242 75.57104492 C-86.9472168 74.97549805 -85.79995117 74.37995117 -84.61791992 73.76635742 C-81.71948242 72.44604492 -81.71948242 72.44604492 -79.71948242 72.44604492 C-77.42431633 65.96557594 -77.43391319 61.00026574 -79.78198242 54.50854492 C-81.01282983 50.48777671 -81.53628261 46.59926623 -80.71948242 42.44604492 C-77.57796726 36.76371776 -73.05204004 32.30705733 -68.53198242 27.69604492 C-67.81461914 26.92905273 -67.09725586 26.16206055 -66.3581543 25.37182617 C-61.62249298 20.54713272 -57.66046024 17.55989716 -50.71948242 17.44604492 C-47.20776367 18.16088867 -47.20776367 18.16088867 -44.03198242 19.38354492 C-39.37699999 21.15118782 -36.57728851 21.70114074 -31.71948242 20.44604492 C-30.85323242 20.24881836 -29.98698242 20.0515918 -29.09448242 19.84838867 C-25.5794764 17.77291637 -24.37542118 14.58631504 -22.71948242 11.00854492 C-22.08686656 9.64944947 -21.44130713 8.29629222 -20.78198242 6.94995117 C-20.50483398 6.34997314 -20.22768555 5.74999512 -19.94213867 5.13183594 C-15.22369288 -1.37392848 -7.1509983 -0.0420974 0 0 Z M-6.71948242 15.44604492 C-9.13901747 19.86682953 -9.13901747 19.86682953 -11.53466797 24.30053711 C-15.21194366 30.87543397 -19.99489849 34.06575642 -26.98120117 36.68432617 C-35.6026192 39.08258083 -43.38722197 37.04311311 -51.71948242 34.44604492 C-56.00948242 38.73604492 -60.29948242 43.02604492 -64.71948242 47.44604492 C-63.69854492 50.38510742 -63.69854492 50.38510742 -62.65698242 53.38354492 C-59.69373251 63.1834357 -61.13960313 69.49302714 -65.28198242 78.77807617 C-69.00315852 85.68449811 -75.9292117 88.23443039 -82.71948242 91.44604492 C-82.71948242 97.71604492 -82.71948242 103.98604492 -82.71948242 110.44604492 C-78.25259446 112.90857288 -78.25259446 112.90857288 -73.77490234 115.35131836 C-65.6761264 119.89677526 -63.22060792 126.75360877 -60.71948242 135.44604492 C-60.1915692 141.94343843 -62.69642306 148.35141956 -64.71948242 154.44604492 C-63.64919113 155.74149941 -63.64919113 155.74149941 -61.12744141 155.55957031 C-59.43856812 155.55171509 -59.43856812 155.55171509 -57.71557617 155.54370117 C-56.50063477 155.54047852 -55.28569336 155.53725586 -54.03393555 155.53393555 C-52.75454102 155.52555664 -51.47514648 155.51717773 -50.15698242 155.50854492 C-48.23208984 155.50177734 -48.23208984 155.50177734 -46.26831055 155.49487305 C-43.0853222 155.48304038 -39.9024248 155.4665556 -36.71948242 155.44604492 C-36.5398999 154.72376709 -36.36031738 154.00148926 -36.17529297 153.25732422 C-34.27604578 145.91589729 -31.53561646 139.97587427 -27.71948242 133.44604492 C-28.46053223 132.73641602 -28.46053223 132.73641602 -29.21655273 132.01245117 C-31.47831157 129.8345398 -33.72384083 127.64056621 -35.96948242 125.44604492 C-36.74678711 124.70225586 -37.5240918 123.9584668 -38.32495117 123.19213867 C-44.80297004 116.82485517 -49.10313352 110.90881839 -49.75463867 101.67651367 C-49.6302309 93.7835318 -46.53347401 88.19750336 -40.90698242 82.69604492 C-35.40256352 78.81057276 -29.40076006 77.4967267 -22.71948242 78.44604492 C-15.39231127 80.37000338 -10.58939766 83.70535013 -5.71948242 89.44604492 C-2.51371434 88.04125524 -0.44860044 86.38154131 1.96020508 83.85620117 C2.64211914 83.15430664 3.3240332 82.45241211 4.02661133 81.72924805 C5.44019079 80.25471607 6.85166922 78.7781669 8.26098633 77.29956055 C14.1895717 71.20908348 19.36535398 67.86976592 27.90551758 67.13354492 C33.88256312 67.24505697 39.63676217 69.15043837 44.17895508 73.09448242 C49.76284159 79.33209223 50.75774831 84.96984199 50.58129883 93.23510742 C49.45620431 105.24585672 38.06544251 113.82104956 29.93286133 121.73120117 C28.16487386 123.16916767 28.16487386 123.16916767 28.28051758 124.44604492 C34.04619061 124.59440943 39.81075226 124.70326825 45.57788086 124.77563477 C47.53934075 124.80580109 49.50066582 124.846741 51.46166992 124.89868164 C54.2818322 124.97150608 57.10021142 125.00550144 59.92114258 125.03198242 C60.79732239 125.06295013 61.6735022 125.09391785 62.57623291 125.12582397 C64.95741733 125.12713909 66.98217634 125.07203182 69.28051758 124.44604492 C71.73127101 121.65446079 71.73127101 121.65446079 73.28051758 118.44604492 C75.01977539 117.03051758 75.01977539 117.03051758 76.73364258 116.11010742 C77.29212891 115.80024902 77.85061523 115.49039063 78.42602539 115.17114258 C79.12050781 114.80811035 79.81499023 114.44507812 80.53051758 114.07104492 C82.75801758 112.87479492 84.98551758 111.67854492 87.28051758 110.44604492 C87.28051758 104.17604492 87.28051758 97.90604492 87.28051758 91.44604492 C85.21801758 90.39416992 83.15551758 89.34229492 81.03051758 88.25854492 C72.384514 83.8490831 69.45906193 78.64231702 66.19848633 69.72338867 C64.0079995 61.90288464 66.8508373 54.94636229 69.28051758 47.44604492 C64.99051758 43.15604492 60.70051758 38.86604492 56.28051758 34.44604492 C54.69239258 34.94104492 53.10426758 35.43604492 51.46801758 35.94604492 C40.64729189 38.82419191 32.13779087 38.02787438 22.28051758 32.44604492 C17.21625162 27.82214991 14.4373849 21.46611749 11.28051758 15.44604492 C5.34051758 15.44604492 -0.59948242 15.44604492 -6.71948242 15.44604492 Z M22.57739258 85.39526367 C21.88194336 86.03512207 21.18649414 86.67498047 20.4699707 87.33422852 C15.98585344 91.65934162 11.62670468 96.10220637 7.28442383 100.5690918 C6.56641602 101.29805664 5.8484082 102.02702148 5.10864258 102.77807617 C4.46830078 103.43525635 3.82795898 104.09243652 3.16821289 104.76953125 C0.07042239 107.52076345 -1.88887975 108.4382732 -6.05932617 108.47729492 C-10.91166403 107.11014744 -13.02201303 104.65037685 -16.28198242 100.94604492 C-20.40364868 96.16851258 -20.40364868 96.16851258 -25.94604492 93.43432617 C-28.86975857 93.21053227 -28.86975857 93.21053227 -31.53198242 95.13354492 C-34.22856066 97.86860185 -34.22856066 97.86860185 -34.71948242 101.44604492 C-32.31165794 107.59307919 -28.07736416 112.10710844 -23.65698242 116.88354492 C-22.96282227 117.72336914 -22.26866211 118.56319336 -21.5534668 119.4284668 C-17.33511175 123.91850006 -13.54372253 126.01806577 -7.4438324 126.44454956 C2.34848289 126.38455866 8.0731306 122.50685777 14.86100769 115.74424744 C16.21580624 114.32805729 17.55646393 112.8982117 18.88305664 111.45556641 C20.92450159 109.23792238 23.02322451 107.08983229 25.13989258 104.9440918 C26.47431418 103.55896773 27.80518406 102.17041114 29.13208008 100.77807617 C29.75370026 100.13409378 30.37532043 99.49011139 31.01577759 98.82661438 C33.72688767 95.85324605 35.15737255 94.21521448 35.80541992 90.16748047 C35.06026076 86.30409017 33.34643278 84.81516122 30.28051758 82.44604492 C25.89741624 82.44604492 25.58472536 82.61681797 22.57739258 85.39526367 Z M-19.18812561 148.70370483 C-22.01691092 155.39473337 -21.26602554 163.19106634 -21.22119141 170.32348633 C-21.22497814 172.03905174 -21.2304811 173.7546141 -21.23756409 175.47016907 C-21.25148768 180.112643 -21.24037168 184.75474504 -21.22385287 189.3971982 C-21.20997126 194.26173961 -21.21646583 199.12626012 -21.21998596 203.99081421 C-21.22268511 212.15661594 -21.20923613 220.32227042 -21.18603516 228.48803711 C-21.15940948 237.92439286 -21.15768509 247.36050276 -21.16942352 256.79688323 C-21.1802065 265.88343358 -21.17401129 274.96989514 -21.15986824 284.05643845 C-21.15411475 287.91994708 -21.15418607 291.7833906 -21.15893364 295.64690018 C-21.16370982 300.19587123 -21.15357521 304.74457336 -21.13197899 309.29349327 C-21.12642034 310.96157995 -21.12593736 312.62969252 -21.13093185 314.29778099 C-21.13689995 316.57704257 -21.12435137 318.85548611 -21.10716248 321.13467407 C-21.10473258 322.40926294 -21.10230268 323.68385181 -21.09979916 324.99706459 C-20.39742332 331.36670393 -17.45018963 335.29225323 -12.71948242 339.44604492 C-9.87463573 341.13218118 -7.80876682 341.69687378 -4.51429272 341.70331383 C-3.67811387 341.70976272 -2.84193503 341.71621161 -1.98041743 341.72285593 C-1.06690699 341.71975872 -0.15339655 341.71666152 0.78779602 341.71347046 C1.76224377 341.71800157 2.73669153 341.72253268 3.740668 341.7272011 C7.01482259 341.73988901 10.28881178 341.73822189 13.56298828 341.73657227 C15.90687271 341.74255479 18.25075516 341.74935969 20.59463501 341.75692749 C26.96864232 341.77462324 33.34259596 341.77928439 39.71662545 341.78055906 C44.36483043 341.78221736 49.0130234 341.78801392 53.66122415 341.79423202 C66.16038462 341.81084445 78.65951659 341.81831626 91.15868769 341.81689255 C92.22337459 341.81677268 92.22337459 341.81677268 93.30957031 341.81665039 C94.02022906 341.81656863 94.73088782 341.81648687 95.46308168 341.81640263 C106.97827154 341.81558987 118.49333054 341.83472472 130.00848255 341.86292712 C141.83423209 341.89166148 153.65991783 341.90546709 165.48570317 341.90373957 C172.12413252 341.90307582 178.76244128 341.90895044 185.40084267 341.93009567 C191.64465245 341.94944031 197.88817242 341.94962812 204.13199234 341.93506241 C206.42372879 341.93296851 208.7154832 341.93770964 211.0071888 341.94978333 C214.13589717 341.96519906 217.26360174 341.9559512 220.39228821 341.94052124 C221.29910648 341.95080837 222.20592476 341.96109549 223.14022237 341.97169435 C230.15174812 341.89528559 234.46594327 340.18454965 239.59301758 335.19604492 C244.56306242 327.09671259 243.56485536 317.49253825 243.53930664 308.3347168 C243.54201969 306.70121607 243.54558238 305.06771656 243.54992676 303.43421936 C243.5590157 299.01484468 243.55552096 294.59556376 243.54916859 290.17618752 C243.54409047 285.54213847 243.54880507 280.90809723 243.55194092 276.27404785 C243.55557528 268.49331222 243.55079536 260.71261462 243.54125977 252.93188477 C243.53037624 243.94776916 243.53390219 234.96374435 243.54491258 225.97963095 C243.55400053 218.25371065 243.55526335 210.52781763 243.55003524 202.80189371 C243.54692384 198.19294148 243.54648336 193.58403186 243.55310822 188.9750824 C243.55890301 184.64121202 243.55484584 180.30745823 243.5433197 175.97360039 C243.54068451 174.38697439 243.54141863 172.80033852 243.54584503 171.21371651 C244.02269024 157.98481994 244.02269024 157.98481994 239.03051758 146.13354492 C233.28125579 140.51494817 228.19847099 140.00664508 220.53945923 140.05163574 C219.56400819 140.04554464 218.58855716 140.03945354 217.583547 140.03317785 C214.31786776 140.01654069 211.05257813 140.02132479 207.78686523 140.02612305 C205.44430638 140.01878315 203.10175115 140.01019716 200.75920105 140.00045776 C194.39761985 139.97822477 188.03616811 139.975312 181.67455339 139.97720528 C177.03325481 139.97730982 172.39198307 139.97086911 167.75069111 139.96357772 C167.08797913 139.96253823 166.42526716 139.96149875 165.74247301 139.96042776 C165.07732971 139.95938423 164.41218642 139.95834071 163.72688727 139.95726556 C151.15331762 139.93837217 138.57980634 139.9394106 126.00622837 139.94623488 C114.51120537 139.9518096 103.01640529 139.93098648 91.52143438 139.89787441 C79.71029699 139.86411644 67.89926633 139.8489717 56.08807981 139.85359144 C49.46024499 139.85583402 42.83259073 139.85016369 36.20479202 139.82569885 C29.97156188 139.80345086 23.73879593 139.80529398 17.50556374 139.82562637 C15.21908394 139.82903981 12.93257302 139.8239331 10.64613533 139.80964279 C7.522063 139.79146594 4.39956801 139.80418906 1.27554321 139.82458496 C0.37300202 139.81206711 -0.52953917 139.79954926 -1.4594301 139.78665209 C-8.90271644 139.89067044 -14.93060985 142.3582003 -19.18812561 148.70370483 Z M-204.06146622 178.03451157 C-206.91801696 182.35981158 -207.25642247 186.55242234 -207.11010742 191.56713867 C-207.10444763 192.31189957 -207.09878784 193.05666046 -207.09295654 193.82398987 C-207.07075592 196.17785872 -207.02059613 198.53014463 -206.96948242 200.88354492 C-206.94939608 202.48964256 -206.93114906 204.09576432 -206.91479492 205.7019043 C-206.87436335 209.61770234 -206.79605664 213.53012471 -206.71948242 217.44604492 C-201.76948242 217.44604492 -196.81948242 217.44604492 -191.71948242 217.44604492 C-191.6634082 214.5746582 -191.6634082 214.5746582 -191.60620117 211.64526367 C-191.54055516 209.14133737 -191.47410737 206.63743201 -191.40698242 204.13354492 C-191.38442383 202.8709082 -191.36186523 201.60827148 -191.33862305 200.30737305 C-191.30317383 199.09887695 -191.26772461 197.89038086 -191.23120117 196.64526367 C-191.20501709 195.52982178 -191.17883301 194.41437988 -191.15185547 193.26513672 C-190.71948242 190.44604492 -190.71948242 190.44604492 -189.62385559 188.79411316 C-186.7393209 186.7522079 -184.32076613 187.06448048 -180.81713867 187.05786133 C-180.11926239 187.05260437 -179.42138611 187.04734741 -178.70236206 187.04193115 C-176.39534122 187.02872646 -174.08901029 187.03747037 -171.78198242 187.04760742 C-170.17919787 187.04558681 -168.57641421 187.04267548 -166.97363281 187.03890991 C-163.61441292 187.03448594 -160.25543232 187.0409198 -156.89624023 187.05493164 C-152.58841403 187.07202377 -148.28114852 187.06218295 -143.9733429 187.04421425 C-140.66365324 187.03337826 -137.35409672 187.03682185 -134.04440308 187.04459763 C-132.45596246 187.04660016 -130.86750979 187.04413849 -129.27908325 187.03715897 C-127.05967146 187.02954729 -124.84117008 187.04114347 -122.62182617 187.05786133 C-121.35846436 187.06024811 -120.09510254 187.06263489 -118.79345703 187.06509399 C-115.71948242 187.44604492 -115.71948242 187.44604492 -113.81542969 188.75546265 C-111.93004716 191.66380904 -112.30844307 194.09901021 -112.71948242 197.44604492 C-114.812183 200.2042866 -116.00740077 201.31022244 -119.44036865 201.96502686 C-120.47961487 201.9739093 -121.51886108 201.98279175 -122.58959961 201.99194336 C-123.77052185 202.01166199 -124.95144409 202.03138062 -126.16815186 202.05169678 C-127.43805969 202.05292542 -128.70796753 202.05415405 -130.01635742 202.05541992 C-131.97221771 202.0802243 -131.97221771 202.0802243 -133.96759033 202.10552979 C-137.42650222 202.14917431 -140.88516065 202.16919546 -144.34429932 202.18426514 C-147.87706471 202.20384708 -151.4095568 202.2458157 -154.94213867 202.28588867 C-161.86784393 202.36115898 -168.79346617 202.40939933 -175.71948242 202.44604492 C-175.71948242 207.39604492 -175.71948242 212.34604492 -175.71948242 217.44604492 C-172.80688599 217.46006348 -172.80688599 217.46006348 -169.83544922 217.47436523 C-163.38124394 217.51005273 -156.92738588 217.56395125 -150.47342205 217.62994766 C-146.56478516 217.66926285 -142.65636817 217.70152864 -138.74755859 217.71704102 C-134.96712839 217.73231402 -131.1873034 217.76694396 -127.40714455 217.81435394 C-125.97329822 217.82905914 -124.53936543 217.83707962 -123.10544395 217.83792877 C-110.77933137 217.85255362 -100.72125941 219.51699083 -91.59448242 228.30151367 C-85.54469193 235.22096155 -83.4802323 243.83961479 -83.44100952 252.89353943 C-83.43233101 253.96574738 -83.43233101 253.96574738 -83.42347717 255.05961609 C-83.40654807 257.4442499 -83.40361766 259.8286899 -83.40063477 262.21337891 C-83.3912183 263.95637763 -83.38093834 265.69937187 -83.36986732 267.44236088 C-83.34266071 272.0994967 -83.32723379 276.75660105 -83.31428528 281.41379547 C-83.30032801 285.78790952 -83.27569606 290.1619384 -83.25195312 294.53601074 C-83.18876408 307.31847372 -83.14266194 320.10101655 -83.09448242 332.88354492 C-82.97073242 361.44916992 -82.84698242 390.01479492 -82.71948242 419.44604492 C4.07051758 419.44604492 90.86051758 419.44604492 180.28051758 419.44604492 C180.28051758 398.98604492 180.28051758 378.52604492 180.28051758 357.44604492 C174.54692871 357.43669922 168.81333984 357.42735352 162.90600586 357.41772461 C143.96684391 357.38396459 125.02779053 357.32862182 106.08871651 357.26214218 C94.60544734 357.22236112 83.12224662 357.18996384 71.63891602 357.17504883 C61.62809783 357.16202753 51.6174303 357.13505049 41.60669696 357.09143186 C36.30783336 357.06882798 31.0091555 357.05313361 25.71023941 357.05416107 C20.71807743 357.05490831 15.72632586 357.03693176 10.7342701 357.00487709 C8.90662445 356.99639028 7.07893271 356.99461985 5.25127602 357.00024223 C-12.50852129 357.04757985 -12.50852129 357.04757985 -20.71948242 352.44604492 C-21.38804701 352.07823788 -22.0566116 351.71043083 -22.74543571 351.33147812 C-29.40119093 347.43065803 -33.29515507 339.93624751 -35.29772568 332.67988396 C-36.21664564 327.81281471 -36.02922957 322.8376608 -36.03833008 317.90136719 C-36.05339851 316.02714836 -36.05339851 316.02714836 -36.06877136 314.11506653 C-36.09428189 310.70646277 -36.11118633 307.29802388 -36.12419939 303.88936353 C-36.13988052 300.32055812 -36.16665473 296.75183595 -36.19223022 293.18309021 C-36.23893012 286.4330714 -36.27571662 279.68303677 -36.3089031 272.93293947 C-36.34718677 265.24484284 -36.39658048 257.55682999 -36.44688725 249.8688041 C-36.55007631 234.06127835 -36.63937885 218.25370553 -36.71948242 202.44604492 C-37.33700378 202.43573746 -37.95452515 202.42542999 -38.59075928 202.41481018 C-45.0146326 202.30667747 -51.43836758 202.19208481 -57.86206055 202.07373047 C-60.25981758 202.03040338 -62.65760502 201.9887267 -65.05541992 201.94873047 C-68.50082568 201.89097429 -71.94607867 201.82729486 -75.39135742 201.76245117 C-76.46440125 201.74573868 -77.53744507 201.72902618 -78.64300537 201.71180725 C-79.64374084 201.69186203 -80.64447632 201.67191681 -81.67553711 201.65136719 C-82.55489929 201.63582291 -83.43426147 201.62027863 -84.340271 201.60426331 C-86.58906013 201.45471805 -88.55938741 201.0706632 -90.71948242 200.44604492 C-91.94170464 193.11271159 -91.94170464 193.11271159 -90.90698242 190.00854492 C-89.71948242 188.44604492 -89.71948242 188.44604492 -87.71948242 187.44604492 C-86.08613051 187.32731919 -84.44820888 187.268954 -82.81079102 187.24072266 C-81.78988373 187.22077744 -80.76897644 187.20083221 -79.71713257 187.18028259 C-78.6118924 187.1635701 -77.50665222 187.1468576 -76.36791992 187.12963867 C-75.23875153 187.10885757 -74.10958313 187.08807648 -72.94619751 187.06666565 C-69.3290227 187.00113157 -65.71177362 186.94226718 -62.09448242 186.88354492 C-59.64655799 186.84036338 -57.19864114 186.79674921 -54.75073242 186.75268555 C-48.74039243 186.64544621 -42.72997752 186.54418962 -36.71948242 186.44604492 C-36.71948242 181.49604492 -36.71948242 176.54604492 -36.71948242 171.44604492 C-57.18190267 171.33022763 -77.64423014 171.24103493 -98.10691071 171.18698406 C-107.60841541 171.16121857 -117.10971253 171.12609973 -126.61108398 171.06884766 C-134.89391327 171.01896197 -143.1765922 170.98674187 -151.45956755 170.97560245 C-155.8441298 170.96909241 -160.22826195 170.95382675 -164.61268616 170.91739464 C-168.74301461 170.88335331 -172.87273748 170.8730082 -177.0031929 170.88050652 C-178.51566997 170.87913558 -180.02816814 170.86925115 -181.54052353 170.85001755 C-190.40942316 170.74279743 -197.96409981 170.81723876 -204.06146622 178.03451157 Z M-235.05585766 240.14493752 C-238.57023464 245.89339638 -238.86814917 251.3717767 -238.85992432 257.93414307 C-238.86289544 258.67935518 -238.86586656 259.42456729 -238.86892772 260.19236159 C-238.87758638 262.68481176 -238.87912056 265.17721373 -238.88061523 267.66967773 C-238.88524541 269.45874636 -238.89027034 271.247814 -238.8956604 273.03688049 C-238.90876709 277.89447144 -238.91522597 282.75204857 -238.91967106 287.60965443 C-238.92260455 290.64620206 -238.92670989 293.68274594 -238.93117523 296.71929169 C-238.94484556 306.22495514 -238.95451451 315.73060999 -238.95837712 325.23628259 C-238.96285698 336.19991503 -238.98040349 347.16342274 -239.00937772 358.12701726 C-239.03101076 366.60787054 -239.04108227 375.08868877 -239.04241824 383.56956935 C-239.04346509 388.63191066 -239.04934753 393.69413464 -239.06723785 398.75644684 C-239.08374658 403.52038631 -239.08586043 408.28412061 -239.07709885 413.04807854 C-239.07632998 414.79232013 -239.08065135 416.53657288 -239.0905571 418.28078651 C-239.46246347 432.65649971 -239.46246347 432.65649971 -233.40698242 445.32104492 C-226.96134765 450.41759334 -221.83691107 450.88543429 -213.8840332 450.85009766 C-212.80360748 450.85696091 -211.72318176 450.86382416 -210.61001587 450.87089539 C-207.04480785 450.88916975 -203.48003966 450.88532447 -199.91479492 450.87963867 C-197.43146624 450.88420044 -194.94813882 450.889506 -192.46481323 450.89552307 C-187.26140208 450.90445568 -182.05814439 450.90202954 -176.85473633 450.89208984 C-170.19443928 450.88060552 -163.53487766 450.90080286 -156.87462044 450.93000698 C-151.74613085 450.94837549 -146.61776823 450.94807506 -141.489254 450.94236946 C-139.03411999 450.9422163 -136.57897734 450.94825639 -134.12387466 450.96066093 C-130.68682073 450.97557904 -127.25074456 450.96488618 -123.8137207 450.94775391 C-122.80462646 450.95742188 -121.79553223 450.96708984 -120.75585938 450.97705078 C-114.57522017 450.91271236 -109.8728442 449.99210971 -104.71948242 446.44604492 C-99.50897101 441.09841479 -98.42053074 436.00509685 -98.45205688 428.72343445 C-98.44526022 427.56780596 -98.44526022 427.56780596 -98.43832624 426.38883144 C-98.42568093 423.8110803 -98.42730269 421.23354041 -98.42895508 418.65576172 C-98.42296989 416.8059563 -98.41616436 414.95615339 -98.40859985 413.10635376 C-98.39093116 408.08353225 -98.38624409 403.06077888 -98.38496828 398.0379293 C-98.38354655 394.89886819 -98.37927654 391.7598244 -98.37397385 388.62076759 C-98.35547032 377.66676356 -98.34730359 366.71280821 -98.34887695 355.75878906 C-98.35007827 345.55283063 -98.32897868 335.3470837 -98.29738963 325.14117879 C-98.27122498 316.37498566 -98.26050975 307.6088616 -98.26178777 298.84262973 C-98.26229737 293.60870702 -98.25661524 288.37497226 -98.23543167 283.14108849 C-98.21604633 278.21704505 -98.21592693 273.29336878 -98.23046494 268.36931229 C-98.2325538 266.56498617 -98.22784753 264.76063706 -98.21574402 262.95635033 C-98.20025581 260.48700678 -98.20962237 258.01892367 -98.2250061 255.54960632 C-98.21471898 254.84093043 -98.20443185 254.13225453 -98.19383299 253.4021036 C-98.2750881 247.4724025 -100.10589276 242.21295089 -104.20217001 237.8763811 C-108.16062099 234.44906756 -111.22091069 233.32671164 -116.35429382 233.29214478 C-117.3060701 233.28354431 -118.25784637 233.27494385 -119.23846436 233.26608276 C-120.28109436 233.26182281 -121.32372437 233.25756287 -122.39794922 233.25317383 C-124.04719139 233.24090759 -124.04719139 233.24090759 -125.72975159 233.22839355 C-129.37606256 233.20353862 -133.02233459 233.18702266 -136.66870117 233.17260742 C-137.91367685 233.16728374 -139.15865253 233.16196007 -140.44135475 233.15647507 C-145.67510865 233.13524513 -150.9088567 233.11611593 -156.14264202 233.10485268 C-163.63019686 233.08863071 -171.11723139 233.05549251 -178.60459012 232.99845183 C-184.51255481 232.9549868 -190.42040427 232.93909791 -196.32853127 232.93272018 C-198.83672602 232.92600579 -201.34491315 232.91077901 -203.85300255 232.88682938 C-207.36708363 232.85518973 -210.87985667 232.85514022 -214.39404297 232.86254883 C-215.42655182 232.84614349 -216.45906067 232.82973816 -217.52285767 232.81283569 C-224.64663204 232.87418831 -230.47401357 234.32018054 -235.05585766 240.14493752 Z M196.28051758 357.44604492 C196.26649902 360.78499878 196.26649902 360.78499878 196.25219727 364.19140625 C196.218455 371.53971117 196.16292178 378.88773443 196.09661484 386.23581409 C196.0570775 390.69172976 196.02491994 395.14744597 196.00952148 399.60351562 C195.99439578 403.90258923 195.96002398 408.2011147 195.91220856 412.49994469 C195.89735235 414.14136686 195.88947414 415.78286727 195.88863373 417.42435646 C195.8862749 419.72100128 195.85928666 422.01611775 195.82641602 424.3125 C195.81753357 425.62044022 195.80865112 426.92838043 195.79949951 428.2759552 C195.28051758 431.44604492 195.28051758 431.44604492 193.54629064 433.12012798 C190.94724394 434.64107468 189.49962667 434.823972 186.50916672 434.83080578 C185.06554484 434.84499059 185.06554484 434.84499059 183.59275889 434.85946196 C182.53829043 434.85461439 181.48382196 434.84976681 180.3973999 434.84477234 C178.71393333 434.85474258 178.71393333 434.85474258 176.99645734 434.86491424 C173.22223774 434.8836202 169.44833304 434.88093377 165.67407227 434.87841797 C162.97399589 434.88576957 160.27394373 434.89762483 157.57388306 434.90930176 C151.75388751 434.9321086 145.9339519 434.94397645 140.11391449 434.94843102 C131.69911716 434.95488736 123.28442827 434.97781561 114.86967459 435.00477431 C101.217575 435.04806432 87.56547996 435.07801842 73.91333008 435.09960938 C60.65093748 435.12061244 47.38858221 435.14788164 34.1262207 435.18359375 C33.30883481 435.18579258 32.49144891 435.1879914 31.64929375 435.19025686 C27.54874048 435.20132634 23.44818756 435.21251918 19.34763479 435.22377336 C-14.67470641 435.31698981 -48.69706214 435.38857323 -82.71948242 435.44604492 C-83.13520508 436.81889648 -83.13520508 436.81889648 -83.55932617 438.21948242 C-83.92155273 439.40799805 -84.2837793 440.59651367 -84.65698242 441.82104492 C-85.01663086 443.0044043 -85.3762793 444.18776367 -85.74682617 445.40698242 C-86.71948242 448.44604492 -86.71948242 448.44604492 -87.71948242 450.44604492 C-86.82229492 450.43968018 -85.92510742 450.43331543 -85.00073242 450.42675781 C-81.63738996 450.4195916 -78.27720575 450.44387554 -74.91430664 450.48876953 C-73.46547207 450.50182355 -72.01647064 450.50272238 -70.56762695 450.49072266 C-56.99064804 450.39247436 -56.99064804 450.39247436 -51.95776367 454.79370117 C-50.85616221 455.99112193 -49.77565094 457.20836552 -48.71948242 458.44604492 C-47.46391983 459.58806284 -46.19492675 460.7156754 -44.90698242 461.82104492 C-44.36428711 462.3031543 -43.8215918 462.78526367 -43.26245117 463.28198242 C-39.5664598 466.0703506 -35.34417105 465.60059321 -30.94677734 465.60717773 C-30.15618423 465.61214264 -29.36559113 465.61710754 -28.55104065 465.6222229 C-25.93400198 465.63683473 -23.31702394 465.64364513 -20.69995117 465.64916992 C-18.88015237 465.65492248 -17.06035358 465.6606802 -15.24055481 465.66644287 C-11.42322507 465.67695028 -7.60591638 465.68279455 -3.78857422 465.6862793 C1.09732224 465.69176143 5.98293966 465.71578452 10.86874866 465.74425125 C14.62888902 465.76289712 18.38896245 465.76808428 22.14914513 465.76961517 C23.95003471 465.77263817 25.75092321 465.78065477 27.55176735 465.79380035 C30.07460225 465.81090063 32.59675918 465.80897096 35.11962891 465.80249023 C35.86010468 465.81170502 36.60058044 465.8209198 37.36349487 465.83041382 C43.5489988 465.78076783 47.43274393 464.11758582 51.98364258 460.00073242 C52.82411133 459.11643555 53.66458008 458.23213867 54.53051758 457.32104492 C60.08903528 451.50986732 60.08903528 451.50986732 63.86921883 451.30737972 C64.97352682 451.30092717 66.07783482 451.29447462 67.21560669 451.28782654 C69.11291534 451.27314331 69.11291534 451.27314331 71.04855347 451.25816345 C72.45806847 451.25225887 73.86758387 451.24644845 75.27709961 451.24072266 C76.75521114 451.23114677 78.23331991 451.22113686 79.71142578 451.21072388 C83.73182269 451.18363738 87.75223139 451.16264813 91.77266932 451.14272189 C95.97142349 451.12088539 100.17014119 451.0934853 104.36886597 451.06666565 C112.32320568 451.01670711 120.27756561 450.97178003 128.23194492 450.92864329 C138.97826033 450.87007659 149.72452779 450.80377277 160.4708004 450.7378931 C177.40734051 450.63426897 194.3439216 450.54101271 211.28051758 450.44604492 C211.28051758 419.75604492 211.28051758 389.06604492 211.28051758 357.44604492 C206.33051758 357.44604492 201.38051758 357.44604492 196.28051758 357.44604492 Z M-238.71948242 466.44604492 C-238.73643598 468.52153736 -238.7485154 470.59706998 -238.75854492 472.67260742 C-238.7657959 473.82841309 -238.77304688 474.98421875 -238.78051758 476.17504883 C-238.65703712 482.79261358 -237.33162242 488.03609655 -232.5743475 492.86501348 C-224.8708004 499.43128633 -213.1584809 497.86548381 -203.68994141 497.82699585 C-201.84067477 497.83045461 -199.9914102 497.83522064 -198.14214993 497.84117758 C-193.0718982 497.85368721 -188.00181614 497.84751731 -182.93156385 497.83821893 C-177.4590945 497.83142866 -171.98665424 497.84190957 -166.51419067 497.85015869 C-155.79812487 497.86349842 -145.0821221 497.86061719 -134.36605382 497.85192077 C-125.65686224 497.84514559 -116.94768833 497.84422679 -108.23849487 497.84749222 C-106.99895095 497.84795192 -105.75940703 497.84841162 -104.48230118 497.84888525 C-101.96419056 497.84984442 -99.44607994 497.85081706 -96.92796934 497.85180302 C-73.9888286 497.86011375 -51.04971542 497.85149524 -28.11058114 497.83577523 C-7.1771366 497.82153878 13.7562532 497.82281268 34.68969727 497.8371582 C58.21746772 497.85322777 81.74521408 497.85953364 105.27299023 497.85032141 C107.78183682 497.84936576 110.29068342 497.84842265 112.79953003 497.84749222 C114.03393013 497.84702939 115.26833023 497.84656656 116.5401364 497.84608971 C125.23885207 497.84349946 133.93754832 497.8478716 142.63626099 497.85493088 C153.23709556 497.86334468 163.83786349 497.8610682 174.43869042 497.84508865 C179.84736693 497.83720438 185.25593232 497.83411708 190.664608 497.8440361 C195.61652936 497.85298013 200.56823666 497.8480548 205.52013862 497.83210345 C207.31072906 497.82875443 209.10133761 497.83045242 210.89191639 497.83773081 C224.84375784 498.41375756 224.84375784 498.41375756 237.13538265 492.86501348 C242.9290604 486.98408606 243.3690038 480.55074898 243.31958008 472.67260742 C243.31394043 471.50552246 243.30830078 470.3384375 243.30249023 469.13598633 C243.29161377 467.80446533 243.29161377 467.80446533 243.28051758 466.44604492 C220.47129442 466.25908669 197.66219776 466.11805211 174.85236359 466.03154755 C164.26109693 465.99031258 153.6703066 465.93410424 143.0793457 465.8425293 C133.84723576 465.7627418 124.6154708 465.7111674 115.38302565 465.69333696 C110.4951961 465.68291541 105.6083534 465.65845958 100.72084045 465.60020447 C96.11753824 465.54578297 91.51562644 465.52917588 86.91203308 465.54118347 C85.22535639 465.53898784 83.53863183 465.52314286 81.85223389 465.49240112 C72.8328163 465.10289553 72.8328163 465.10289553 64.61985779 468.18482971 C62.50143745 470.23763167 62.50143745 470.23763167 60.89446259 472.4411087 C57.36368493 476.82724576 51.70503996 479.28032285 46.28051758 480.44604492 C43.48141957 480.55576418 40.70649136 480.61355159 37.90698242 480.62304688 C37.06414703 480.62961807 36.22131165 480.63618927 35.35293579 480.64295959 C32.56577458 480.66265573 29.77866723 480.67434869 26.99145508 480.68432617 C26.03673939 480.6884017 25.0820237 480.69247723 24.09837723 480.69667625 C19.04239367 480.71752403 13.98643714 480.73182981 8.93041992 480.74121094 C3.725389 480.75225615 -1.47921217 480.78663805 -6.68409157 480.82638264 C-10.70088458 480.85261522 -14.71757635 480.8609088 -18.73444748 480.86449242 C-20.65206165 480.86934334 -22.56967175 480.8809144 -24.48720169 480.89953041 C-37.10657683 481.01440192 -47.67260993 481.09027905 -57.28198242 471.75854492 C-58.52141602 470.57711914 -58.52141602 470.57711914 -59.78588867 469.37182617 C-60.76442688 468.39724165 -61.74291905 467.42260829 -62.71948242 466.44604492 C-64.98505629 466.34896882 -67.25372544 466.32417871 -69.52137756 466.32579041 C-70.2409372 466.32493598 -70.96049684 466.32408156 -71.70186132 466.32320124 C-74.13101822 466.32154432 -76.5601072 466.32707124 -78.98925781 466.33251953 C-80.7233734 466.33280138 -82.4574891 466.33264371 -84.19160461 466.33207703 C-88.91454563 466.33178897 -93.63746148 466.33768693 -98.36039662 466.34465098 C-103.29051033 466.35088326 -108.22062454 466.35148822 -113.15074158 466.35267639 C-122.49344604 466.35579008 -131.83613887 466.36400398 -141.17883819 466.37402588 C-151.81227297 466.38518585 -162.44570829 466.39069717 -173.07914746 466.39572132 C-194.95926562 466.40618656 -216.83937329 466.42378673 -238.71948242 466.44604492 Z " fill="#fefefe" transform="translate(253.719482421875,-0.446044921875)"/>
<path d="M0 0 C0.79280459 -0.00709439 1.58560919 -0.01418877 2.40243816 -0.02149814 C5.06215917 -0.03911715 7.72042631 -0.02095437 10.38012695 -0.00291443 C12.28553942 -0.00805177 14.19094713 -0.01533165 16.09634399 -0.02459717 C21.27407482 -0.04314291 26.45129204 -0.03015251 31.62900162 -0.01050687 C37.04303862 0.00585472 42.45704245 -0.00292979 47.87109375 -0.00802612 C56.9637067 -0.01254986 66.05611413 0.0033402 75.14868164 0.03126526 C85.6665777 0.06331836 96.18410303 0.0633023 106.70202541 0.04605049 C116.81267898 0.03019636 126.9231964 0.03691181 137.03384399 0.0539875 C141.34001277 0.06086688 145.64607271 0.05981644 149.95223999 0.05244255 C155.02158196 0.04479129 160.09050114 0.05686799 165.15977097 0.08429146 C167.02219767 0.09118855 168.88466376 0.09125913 170.74708939 0.08407593 C173.28580636 0.07541135 175.82320951 0.0912854 178.36181641 0.11352539 C179.10228053 0.10528462 179.84274466 0.09704386 180.60564709 0.08855337 C183.86823251 0.14146 185.8890292 0.4360903 188.63785553 2.24521732 C190.6880254 5.41134185 190.68408408 7.5055612 190.68884277 11.270401 C190.69508274 11.93661547 190.7013227 12.60282994 190.70775175 13.28923273 C190.7237 15.52041732 190.71107158 17.75051213 190.69848633 19.98170471 C190.70390668 21.58170204 190.71102885 23.18169438 190.71972656 24.78167725 C190.73797335 29.12673601 190.73088691 33.47141518 190.71821022 37.81648064 C190.70808953 42.36167811 190.71747331 46.90684289 190.72375488 51.45204163 C190.73103401 59.08519837 190.72143665 66.71820036 190.70239258 74.35133362 C190.68062329 83.17876224 190.68767448 92.00582132 190.7096982 100.83324099 C190.72784467 108.40957444 190.73041422 115.98579659 190.71994352 123.56214476 C190.71370443 128.08835629 190.71288433 132.61439408 190.72608948 137.14059448 C190.73763645 141.39573799 190.72964367 145.65040465 190.70651245 149.9054966 C190.70121914 151.46799235 190.7027498 153.03052818 190.71156311 154.59300804 C190.72247857 156.72454116 190.70880643 158.85454199 190.68884277 160.98597717 C190.68733467 162.17911278 190.68582657 163.37224838 190.68427277 164.60153961 C190.07539178 168.26264221 189.14400012 169.44925184 186.1809082 171.62818909 C183.33986988 172.02611464 180.89408526 172.18990659 178.0559082 172.15943909 C177.27199707 172.16326599 176.48808594 172.1670929 175.68041992 172.17103577 C174.02627271 172.17375261 172.37208238 172.16640719 170.71801758 172.14967346 C168.18904659 172.128258 165.66291606 172.14948006 163.1340332 172.17506409 C161.52465195 172.17242077 159.91527245 172.1672957 158.3059082 172.15943909 C157.55164551 172.16753601 156.79738281 172.17563293 156.02026367 172.18397522 C152.54761551 172.12209075 150.54007402 171.89231498 147.70825195 169.80982971 C145.43792095 166.56691445 145.57103535 164.49071715 146.1809082 160.62818909 C147.8309082 158.97818909 149.4809082 157.32818909 151.1809082 155.62818909 C158.7709082 155.62818909 166.3609082 155.62818909 174.1809082 155.62818909 C174.1809082 109.75818909 174.1809082 63.88818909 174.1809082 16.62818909 C118.0809082 16.62818909 61.9809082 16.62818909 4.1809082 16.62818909 C4.1809082 62.49818909 4.1809082 108.36818909 4.1809082 155.62818909 C42.50564326 155.54899628 42.50564326 155.54899628 80.83032227 155.44801331 C88.23901367 155.4389801 88.23901367 155.4389801 91.70623779 155.43730164 C94.13023614 155.43422845 96.55423141 155.4271902 98.97821045 155.41703796 C102.64771852 155.40243608 106.31703958 155.40037584 109.98657227 155.40113831 C111.06827824 155.39394209 112.14998421 155.38674587 113.26446915 155.37933159 C114.25237316 155.38208658 115.24027718 155.38484158 116.25811768 155.38768005 C117.11722874 155.38583647 117.9763398 155.38399288 118.86148453 155.38209343 C121.40989737 155.65248531 123.00678661 156.29207539 125.1809082 157.62818909 C127.2624984 160.30451934 127.17678411 161.74572576 127.0559082 165.19068909 C126.1809082 168.62818909 126.1809082 168.62818909 124.46026516 170.31838226 C121.70583671 171.90118357 120.00243296 172.01005351 116.8361969 172.02259827 C115.2106488 172.03962296 115.2106488 172.03962296 113.55226135 172.05699158 C112.36825241 172.05406097 111.18424347 172.05113037 109.96435547 172.04811096 C108.71359222 172.05658051 107.46282898 172.06505005 106.17416382 172.07377625 C102.74631293 172.0931694 99.31900636 172.09892318 95.89113736 172.09702873 C93.0282881 172.09690902 90.16548977 172.10547338 87.30265468 172.11380625 C80.54808939 172.13303906 73.79364768 172.13592456 67.0390625 172.12916565 C60.07359372 172.12252394 53.10865436 172.1453941 46.14329296 172.18247938 C40.16013779 172.21317786 34.17715291 172.22453631 28.19392055 172.22064257 C24.62164197 172.21857525 21.04977542 172.22405084 17.47757149 172.24853516 C13.49378844 172.27493876 9.51069878 172.26107306 5.52685547 172.24342346 C4.34487076 172.25668671 3.16288605 172.26994995 1.94508362 172.28361511 C0.31530579 172.26680191 0.31530579 172.26680191 -1.34739685 172.24964905 C-2.75962603 172.25071781 -2.75962603 172.25071781 -4.20038509 172.25180817 C-7.99440722 171.34829935 -9.47553041 169.6984773 -11.8190918 166.62818909 C-12.44550419 163.51251984 -12.44550419 163.51251984 -12.44728088 159.94837952 C-12.45437527 159.29018329 -12.46146966 158.63198707 -12.46877903 157.9538455 C-12.48633589 155.75550076 -12.46826911 153.55892973 -12.45019531 151.36061096 C-12.45533509 149.78179114 -12.46261682 148.20297705 -12.47187805 146.62417603 C-12.4903931 142.34099901 -12.47745313 138.05844446 -12.45778775 133.77529335 C-12.44140065 129.29196576 -12.45021423 124.80867757 -12.45530701 120.32533264 C-12.4598279 112.79646361 -12.44395844 105.26784303 -12.41601562 97.73902893 C-12.38396368 89.0359869 -12.38397943 80.33339296 -12.40123039 71.63031912 C-12.4170969 63.25655088 -12.41036114 54.88294685 -12.39329338 46.50918579 C-12.38642268 42.94626492 -12.38745551 39.38347566 -12.39483833 35.82055664 C-12.40250232 31.62446991 -12.3903717 27.42889282 -12.36298943 23.23289299 C-12.35610564 21.69339956 -12.3560076 20.15385853 -12.36320496 18.61436653 C-12.37190224 16.51167617 -12.35594247 14.41055767 -12.33375549 12.30799866 C-12.33094857 11.13183235 -12.32814165 9.95566605 -12.32524967 8.74385834 C-11.09832921 1.19151443 -6.98009086 -0.11157118 0 0 Z " fill="#fefefe" transform="translate(259.819091796875,154.37181091308594)"/>
<path d="M0 0 C1.26650391 -0.00386719 2.53300781 -0.00773438 3.83789062 -0.01171875 C5.14822266 -0.00011719 6.45855469 0.01148438 7.80859375 0.0234375 C9.12279297 0.01183594 10.43699219 0.00023437 11.79101562 -0.01171875 C13.68883789 -0.00591797 13.68883789 -0.00591797 15.625 0 C16.77556885 0.00338379 17.9261377 0.00676758 19.11157227 0.01025391 C23.71246169 0.58003459 27.38040943 2.75120291 30.24609375 6.3984375 C31.25094258 8.72968679 32.25131622 11.06287287 33.24609375 13.3984375 C36.36487331 14.95782728 38.81865146 14.7592209 42.24609375 14.3984375 C44.07334381 12.27235571 44.07334381 12.27235571 45.24609375 9.3984375 C47.82558635 5.09928317 49.71624646 2.58959355 54.24609375 0.3984375 C57.38061523 0.01025391 57.38061523 0.01025391 60.8671875 0 C62.13240234 -0.00386719 63.39761719 -0.00773438 64.70117188 -0.01171875 C66.6724707 0.00568359 66.6724707 0.00568359 68.68359375 0.0234375 C70.6490918 0.00603516 70.6490918 0.00603516 72.65429688 -0.01171875 C74.55405273 -0.00591797 74.55405273 -0.00591797 76.4921875 0 C77.64388428 0.00338379 78.79558105 0.00676758 79.98217773 0.01025391 C84.53072829 0.55122147 87.9625938 1.9821617 91.05859375 5.3984375 C92.92151595 8.53599068 93.3731136 11.10107039 93.39326477 14.67379761 C93.40042007 15.54576782 93.40757538 16.41773804 93.41494751 17.31613159 C93.41763641 18.26996735 93.42032532 19.2238031 93.4230957 20.20654297 C93.4296669 21.21332092 93.4362381 22.22009888 93.44300842 23.25738525 C93.46274122 26.5934659 93.47440268 29.92950158 93.484375 33.265625 C93.48845053 34.40401951 93.49252605 35.54241402 93.49672508 36.71530533 C93.51758356 42.73809885 93.5318875 48.76086958 93.54125977 54.78369141 C93.55233687 61.01044452 93.58675272 67.23684152 93.62643147 73.46346855 C93.6525454 78.24696528 93.66094686 83.03037639 93.66454124 87.81393814 C93.66941899 90.10968563 93.68106655 92.405429 93.69957924 94.70110703 C93.72386387 97.91154191 93.72302515 101.12104482 93.71606445 104.33154297 C93.72887451 105.28133026 93.74168457 106.23111755 93.75488281 107.20968628 C93.7210983 111.47961785 93.62558019 113.78271502 91.34172058 117.48831177 C89.08057916 119.54930104 88.25484086 120.06083731 85.24609375 119.9609375 C84.58609375 119.96222656 83.92609375 119.96351563 83.24609375 119.96484375 C80.18650486 119.09835862 79.15553957 117.96757128 77.24609375 115.3984375 C76.65705233 112.22063515 76.74112732 109.07979271 76.79199219 105.85644531 C76.79140808 104.89025772 76.79082397 103.92407013 76.79022217 102.92860413 C76.79300828 99.73589111 76.8241259 96.54411236 76.85546875 93.3515625 C76.86292924 91.13768016 76.86862308 88.92379121 76.87261963 86.7098999 C76.88789092 80.88346112 76.92718607 75.0574213 76.97143555 69.23114014 C77.01235574 63.28565874 77.03062372 57.34011288 77.05078125 51.39453125 C77.0936785 39.7289914 77.16194828 28.06374763 77.24609375 16.3984375 C71.63609375 16.3984375 66.02609375 16.3984375 60.24609375 16.3984375 C59.58609375 18.3784375 58.92609375 20.3584375 58.24609375 22.3984375 C56.4765625 24.4453125 56.4765625 24.4453125 54.43359375 26.1484375 C53.43392578 27.00695312 53.43392578 27.00695312 52.4140625 27.8828125 C45.90512787 32.43320284 38.91890266 32.08490625 31.24609375 31.3984375 C25.00765485 29.75777719 20.78736338 25.67970812 17.24609375 20.3984375 C16.75109375 18.9134375 16.75109375 18.9134375 16.24609375 17.3984375 C10.96609375 17.0684375 5.68609375 16.7384375 0.24609375 16.3984375 C0.24609375 67.5484375 0.24609375 118.6984375 0.24609375 171.3984375 C25.65609375 171.3984375 51.06609375 171.3984375 77.24609375 171.3984375 C77.24609375 162.1584375 77.24609375 152.9184375 77.24609375 143.3984375 C81.24609375 139.3984375 81.24609375 139.3984375 83.24609375 138.83203125 C83.90609375 138.83332031 84.56609375 138.83460938 85.24609375 138.8359375 C85.90609375 138.81402344 86.56609375 138.79210937 87.24609375 138.76953125 C90.42601089 139.76946613 91.45160619 141.6458644 93.24609375 144.3984375 C93.76367188 147.88427734 93.76367188 147.88427734 93.77734375 151.859375 C93.78308411 152.92256454 93.78308411 152.92256454 93.78894043 154.00723267 C93.79165283 155.50158107 93.78433856 156.9959775 93.76757812 158.49023438 C93.74621822 160.7602102 93.76736494 163.02699891 93.79296875 165.296875 C93.79032411 166.75521524 93.7851963 168.21355351 93.77734375 169.671875 C93.77283203 170.98591309 93.76832031 172.29995117 93.76367188 173.65380859 C93.11172025 178.3706171 92.05798091 180.55056105 89.24609375 184.3984375 C84.26410854 187.61623831 80.12821863 187.83431167 74.3984375 187.80249023 C73.52937775 187.80935349 72.66031799 187.81621674 71.7649231 187.82328796 C68.90431182 187.84152631 66.04425045 187.83772313 63.18359375 187.83203125 C61.18871889 187.83659406 59.19384561 187.84189993 57.19897461 187.84791565 C53.02288415 187.85684062 48.84698501 187.85443009 44.67089844 187.84448242 C39.32422933 187.83298618 33.97822002 187.85321757 28.63163757 187.88239956 C24.51375142 187.9007598 20.3960235 187.90046956 16.27810669 187.89476204 C14.30696689 187.89460884 12.33581636 187.90065176 10.36471558 187.91305351 C7.6073076 187.92796049 4.85112023 187.91728918 2.09375 187.90014648 C0.87789719 187.91464844 0.87789719 187.91464844 -0.36251831 187.92944336 C-5.61219118 187.86123177 -8.60616794 186.89142528 -12.75390625 183.3984375 C-16.10572767 179.91564103 -16.13056544 177.20537552 -16.13485718 172.45924377 C-16.13953715 171.76106645 -16.14421712 171.06288913 -16.14903891 170.34355491 C-16.16100395 168.00431532 -16.1515261 165.66565995 -16.14208984 163.32641602 C-16.14615492 161.64922748 -16.15149645 159.97204162 -16.15802002 158.29486084 C-16.17170807 153.73905549 -16.16638856 149.18345373 -16.15688276 144.62764478 C-16.14929263 139.86137162 -16.1563301 135.095116 -16.16104126 130.32884216 C-16.16650122 122.32328153 -16.15930143 114.31780389 -16.14501953 106.31225586 C-16.12869813 97.05660552 -16.13397685 87.80115349 -16.15049875 78.54550797 C-16.1641134 70.60059937 -16.16603321 62.65575046 -16.15818274 54.71083397 C-16.15350539 49.9649661 -16.15288296 45.21919143 -16.16279221 40.47332954 C-16.17145908 36.01060839 -16.16544508 31.54814278 -16.14810944 27.08544922 C-16.14414286 25.44757957 -16.14528158 23.80968841 -16.15189743 22.17182732 C-16.16009661 19.93579958 -16.14981179 17.70059046 -16.13485718 15.46461487 C-16.1337261 14.21340631 -16.13259502 12.96219774 -16.13142967 11.67307377 C-15.71965055 8.1013037 -14.91537747 6.24289353 -12.75390625 3.3984375 C-8.45252561 0.61793878 -5.07178467 0.01490136 0 0 Z " fill="#fefefe" transform="translate(46.75390625,247.6015625)"/>
<path d="M0 0 C2.4375 1.5 2.4375 1.5 4 4 C4.57805383 7.97837045 4.9181065 10.51996939 2.76782227 13.98632812 C0.95662548 16.10225924 -0.94496258 18.05377386 -2.9375 20 C-3.65099609 20.7211499 -4.36449219 21.4422998 -5.09960938 22.18530273 C-6.60980687 23.70093141 -8.1301039 25.206555 -9.65966797 26.70263672 C-11.99286426 28.99299527 -14.28030662 31.32289364 -16.56640625 33.66015625 C-18.04171268 35.13017599 -19.51949897 36.59771203 -21 38.0625 C-21.68054443 38.75923828 -22.36108887 39.45597656 -23.06225586 40.17382812 C-26.37632794 43.36129157 -28.63216157 45.41870158 -33.36157227 45.50952148 C-37.05801847 44.99187516 -38.35849341 44.64150659 -40.9375 42.0625 C-41.58847656 41.42957031 -42.23945313 40.79664063 -42.91015625 40.14453125 C-43.59980469 39.43683594 -44.28945313 38.72914063 -45 38 C-45.80308594 37.22011719 -46.60617187 36.44023437 -47.43359375 35.63671875 C-55.84586766 27.41287977 -55.84586766 27.41287977 -56.375 22.5625 C-56 19 -56 19 -54.5 16.5625 C-51.76261095 14.85163184 -49.56213075 14.08468235 -46.3046875 14.1953125 C-41.10497741 16.0108045 -37.5310401 20.94798677 -34 25 C-28.21958252 20.21006905 -22.95039345 15.03617818 -17.6875 9.6875 C-16.0895518 8.064127 -14.48940287 6.44291636 -12.88671875 4.82421875 C-11.83810669 3.75820435 -11.83810669 3.75820435 -10.76831055 2.6706543 C-7.37611461 -0.53420512 -4.5694726 -0.39392005 0 0 Z " fill="#fefefe" transform="translate(375,218)"/>
<path d="M0 0 C2.60895796 1.65234004 2.95397507 2.86192521 3.9375 5.8125 C4.05612745 11.86249972 -0.58044112 15.73150813 -4.51953125 19.92578125 C-6.2782802 21.72681417 -8.0427798 23.52224642 -9.8125 25.3125 C-10.68970703 26.23095703 -11.56691406 27.14941406 -12.47070312 28.09570312 C-19.76647352 35.47878266 -19.76647352 35.47878266 -23.82421875 36.29296875 C-29.91681765 35.73092088 -33.09571578 32.16019309 -37.25 27.9375 C-38.12140625 27.05964844 -38.9928125 26.18179687 -39.890625 25.27734375 C-42.56535925 22.3896214 -42.9560178 21.59375977 -43.25 17.625 C-43 14 -43 14 -41.875 11.625 C-39.25065402 9.35056682 -37.45152438 9.06903049 -34 9 C-30.7640615 10.50508768 -28.38709275 12.36163433 -26 15 C-23.08653407 13.68692751 -21.0549021 12.28818412 -18.8359375 9.99609375 C-18.27132812 9.42052734 -17.70671875 8.84496094 -17.125 8.25195312 C-16.5475 7.65318359 -15.97 7.05441406 -15.375 6.4375 C-14.21839849 5.24650616 -13.05964222 4.05759995 -11.8984375 2.87109375 C-11.38974121 2.34443115 -10.88104492 1.81776855 -10.35693359 1.27514648 C-7.04376885 -1.83832229 -4.22434407 -0.88933559 0 0 Z " fill="#fefefe" transform="translate(105,324)"/>
<path d="M0 0 C2.42791892 1.62961377 3.77787341 2.9163051 4.37771606 5.84277344 C4.54764472 8.16469884 4.58049031 10.45310565 4.56640625 12.78125 C4.57570412 14.0569989 4.57570412 14.0569989 4.58518982 15.35852051 C4.59228304 17.15387834 4.58912259 18.94930202 4.57641602 20.74462891 C4.56254475 23.49113947 4.59663047 26.23424569 4.63476562 28.98046875 C4.63571681 30.72656333 4.63385803 32.47266218 4.62890625 34.21875 C4.64216446 35.03863403 4.65542267 35.85851807 4.66908264 36.70324707 C4.60180874 40.82346935 4.55497364 42.4049196 1.65209961 45.51757812 C-1.59139001 47.33056431 -3.33976478 47.62301876 -7 47 C-9.84780619 44.76793569 -10.84997666 43.45007001 -12 40 C-12.12021476 37.55690815 -12.18801823 35.14313288 -12.203125 32.69921875 C-12.20882507 31.98522415 -12.21452515 31.27122955 -12.22039795 30.53559875 C-12.22983651 29.02513098 -12.23637739 27.51464273 -12.24023438 26.00415039 C-12.24992129 23.70617214 -12.28094606 21.40909586 -12.3125 19.11132812 C-12.31903256 17.64063029 -12.32428204 16.16992608 -12.328125 14.69921875 C-12.3404718 14.01776291 -12.3528186 13.33630707 -12.36553955 12.63420105 C-12.34433032 8.03667352 -11.42459073 4.90066917 -9 1 C-5.90826248 -0.54586876 -3.40570448 -0.29359521 0 0 Z " fill="#fefefe" transform="translate(477,217)"/>
</svg>
